<svg width="24" height="24" fill="none" xmlns="http://www.w3.org/2000/svg"><g clip-path="url(#clip0_1253_2398)" stroke="#0C131E" stroke-width="2" stroke-linecap="round" stroke-linejoin="round"><path d="M19.86 17c1.941.636 3.14 1.515 3.14 2.47C23 21.417 18.069 23 12 23S1 21.417 1 19.47c0-.962 1.199-1.834 3.14-2.47"/><path d="M12 1c-1.591 0-3.117.714-4.243 1.986C6.632 4.258 6 5.983 6 7.781 6 14.563 12 20 12 20s6-5.422 6-12.219c0-.89-.155-1.772-.457-2.595a6.9 6.9 0 00-1.3-2.2 6.008 6.008 0 00-1.947-1.47A5.406 5.406 0 0012 1z"/><path d="M12 8c1.105 0 2-.672 2-1.5S13.105 5 12 5s-2 .672-2 1.5.895 1.5 2 1.5z"/></g><defs><clipPath id="clip0_1253_2398"><path fill="#fff" d="M0 0h24v24H0z"/></clipPath></defs></svg>