<svg width="152" height="48" fill="none" xmlns="http://www.w3.org/2000/svg"><rect width="152" height="48" rx="12" fill="#0C131E"/><path d="M34.038 22.815c-.032-3.52 2.968-5.232 3.105-5.311-1.699-2.406-4.333-2.735-5.258-2.76-2.212-.227-4.358 1.284-5.485 1.284-1.15 0-2.884-1.263-4.755-1.226-2.406.036-4.658 1.39-5.892 3.49-2.549 4.284-.648 10.58 1.793 14.042 1.222 1.696 2.649 3.59 4.517 3.523 1.827-.073 2.51-1.131 4.715-1.131 2.185 0 2.826 1.13 4.731 1.088 1.961-.03 3.196-1.703 4.375-3.414 1.411-1.944 1.978-3.858 2-3.957-.046-.015-3.809-1.41-3.846-5.628zm-3.598-10.35c.982-1.193 1.655-2.817 1.468-4.465-1.422.061-3.201.956-4.226 2.123-.906 1.029-1.716 2.715-1.507 4.3 1.598.116 3.239-.783 4.265-1.958zm30.045 23.149H57.93l-1.4-4.268h-4.86l-1.332 4.268H47.85l4.818-14.532h2.975l4.842 14.532zm-4.375-6.06l-1.265-3.794c-.134-.388-.385-1.3-.755-2.738h-.045c-.147.619-.384 1.532-.71 2.738l-1.243 3.795h4.018zm16.764.694c0 1.782-.496 3.19-1.488 4.224-.888.921-1.991 1.38-3.308 1.38-1.422 0-2.443-.495-3.065-1.486h-.045v5.52h-2.397v-11.3c0-1.12-.03-2.27-.09-3.449h2.11l.133 1.66h.045c.8-1.25 2.013-1.875 3.642-1.875 1.273 0 2.335.488 3.186 1.465.852.979 1.277 2.265 1.277 3.86zm-2.442.085c0-1.02-.237-1.861-.711-2.523-.519-.69-1.215-1.035-2.087-1.035-.592 0-1.13.192-1.61.571a2.639 2.639 0 00-.943 1.5 2.967 2.967 0 00-.112.71v1.746c0 .763.241 1.406.723 1.931.48.525 1.106.787 1.875.787.903 0 1.606-.338 2.109-1.013.504-.676.756-1.567.756-2.674zm14.854-.085c0 1.782-.496 3.19-1.489 4.224-.887.921-1.99 1.38-3.307 1.38-1.422 0-2.443-.495-3.064-1.486h-.044v5.52h-2.398v-11.3c0-1.12-.03-2.27-.089-3.449h2.109l.133 1.66h.045c.799-1.25 2.012-1.875 3.642-1.875 1.272 0 2.334.488 3.187 1.465.849.979 1.275 2.265 1.275 3.86zm-2.442.085c0-1.02-.238-1.861-.712-2.523-.519-.69-1.213-1.035-2.086-1.035-.593 0-1.13.192-1.61.571a2.637 2.637 0 00-.943 1.5 3.024 3.024 0 00-.111.71v1.746c0 .763.24 1.406.72 1.931.48.524 1.106.787 1.877.787.903 0 1.606-.338 2.109-1.013.504-.676.756-1.567.756-2.674zm16.319 1.207c0 1.236-.441 2.242-1.329 3.018-.975.849-2.332 1.273-4.076 1.273-1.61 0-2.902-.302-3.88-.906l.556-1.94a6.722 6.722 0 003.466.928c.903 0 1.606-.199 2.111-.594.503-.395.754-.926.754-1.588 0-.59-.207-1.086-.622-1.49-.413-.402-1.102-.777-2.065-1.123-2.62-.949-3.93-2.34-3.93-4.167 0-1.195.46-2.174 1.378-2.936.916-.764 2.137-1.145 3.664-1.145 1.362 0 2.493.23 3.397.69l-.6 1.898c-.843-.445-1.797-.668-2.864-.668-.844 0-1.503.202-1.975.604-.4.359-.6.797-.6 1.316 0 .574.229 1.049.688 1.422.399.345 1.124.719 2.177 1.122 1.288.503 2.233 1.092 2.842 1.767.606.672.908 1.514.908 2.52zm7.928-4.656h-2.643v5.088c0 1.294.465 1.94 1.399 1.94.428 0 .784-.035 1.065-.108l.066 1.768c-.472.172-1.094.258-1.864.258-.947 0-1.687-.28-2.221-.84-.532-.562-.8-1.503-.8-2.826v-5.282h-1.574v-1.747h1.574v-1.919l2.355-.69v2.61h2.643v1.748zm11.923 3.406c0 1.61-.474 2.933-1.421 3.967-.993 1.065-2.311 1.596-3.954 1.596-1.584 0-2.844-.51-3.784-1.53-.941-1.02-1.411-2.308-1.411-3.86 0-1.623.484-2.953 1.454-3.987.969-1.035 2.275-1.553 3.918-1.553 1.584 0 2.858.51 3.82 1.53.919.991 1.378 2.27 1.378 3.837zm-2.487.075c0-.966-.213-1.795-.644-2.486-.502-.837-1.221-1.254-2.152-1.254-.964 0-1.696.419-2.199 1.254-.43.692-.643 1.534-.643 2.53 0 .966.213 1.795.643 2.485.519.837 1.243 1.254 2.178 1.254.915 0 1.634-.426 2.152-1.275.442-.705.665-1.542.665-2.508zm10.281-3.181a4.287 4.287 0 00-.756-.064c-.843 0-1.496.31-1.954.928-.4.546-.6 1.236-.6 2.07v5.498h-2.396l.022-7.179a55 55 0 00-.09-3.299h2.089l.087 2.005h.067c.253-.689.652-1.244 1.198-1.66a2.958 2.958 0 011.733-.561c.222 0 .422.015.6.043v2.22zm10.722 2.696c0 .418-.028.77-.087 1.057h-7.193c.028 1.035.375 1.827 1.043 2.373.607.488 1.39.732 2.353.732 1.065 0 2.037-.165 2.91-.495l.376 1.616c-1.021.432-2.227.647-3.618.647-1.673 0-2.987-.478-3.942-1.434-.954-.955-1.432-2.238-1.432-3.848 0-1.58.444-2.896 1.334-3.945.931-1.12 2.189-1.68 3.773-1.68 1.555 0 2.732.56 3.532 1.68.633.89.951 1.99.951 3.298zm-2.286-.603c.016-.69-.141-1.287-.466-1.79-.414-.647-1.052-.97-1.91-.97-.784 0-1.422.315-1.909.948-.399.504-.636 1.108-.709 1.81h4.994v.002zM55.317 12.143c0 1.286-.397 2.253-1.19 2.903-.734.6-1.777.9-3.13.9-.67 0-1.243-.029-1.723-.085V8.838a13.095 13.095 0 012.03-.149c1.287 0 2.258.272 2.913.816.733.615 1.1 1.494 1.1 2.638zm-1.242.032c0-.833-.227-1.472-.682-1.917-.454-.445-1.118-.668-1.991-.668-.371 0-.688.024-.95.075v5.338c.146.022.411.032.797.032.902 0 1.598-.244 2.088-.73.49-.487.738-1.197.738-2.13zm7.831 1.092c0 .792-.233 1.44-.698 1.95-.488.522-1.135.783-1.942.783-.779 0-1.398-.25-1.86-.752-.462-.501-.692-1.134-.692-1.896 0-.797.237-1.451.714-1.959s1.118-.762 1.925-.762c.779 0 1.404.25 1.877.751.45.487.676 1.116.676 1.885zm-1.222.037c0-.475-.106-.882-.316-1.222-.248-.41-.6-.616-1.058-.616-.473 0-.833.206-1.08.616-.212.34-.316.754-.316 1.243 0 .475.105.882.316 1.222.255.41.61.616 1.07.616.45 0 .802-.209 1.056-.627.218-.346.328-.757.328-1.232zm10.056-2.57l-1.658 5.148h-1.08l-.686-2.235a16.356 16.356 0 01-.427-1.663h-.021a11.893 11.893 0 01-.426 1.663l-.73 2.235H64.62l-1.56-5.148h1.211l.6 2.447c.145.58.264 1.13.36 1.653h.02c.089-.43.234-.979.438-1.641l.753-2.457h.96l.72 2.404c.175.586.317 1.151.426 1.695h.033c.08-.53.2-1.094.36-1.695l.643-2.405h1.157zm6.11 5.15h-1.178v-2.949c0-.908-.355-1.363-1.068-1.363-.35 0-.632.125-.851.375-.217.25-.328.545-.328.882v3.054h-1.178v-3.676c0-.452-.015-.942-.043-1.473h1.036l.055.805h.033c.137-.25.341-.457.61-.622.32-.192.677-.29 1.069-.29.494 0 .906.156 1.233.467.407.381.61.95.61 1.706v3.084zm3.251 0h-1.177v-7.51H80.1v7.51zm6.939-2.617c0 .792-.233 1.44-.699 1.95-.488.522-1.135.783-1.942.783-.779 0-1.399-.25-1.86-.752-.46-.501-.691-1.134-.691-1.896 0-.797.237-1.451.714-1.959s1.118-.762 1.924-.762c.78 0 1.403.25 1.878.751.45.487.676 1.116.676 1.885zm-1.224.037c0-.475-.105-.882-.316-1.222-.246-.41-.6-.616-1.056-.616-.474 0-.834.206-1.08.616-.212.34-.316.754-.316 1.243 0 .475.105.882.316 1.222.255.41.61.616 1.07.616.449 0 .8-.209 1.055-.627.22-.346.327-.757.327-1.232zm6.928 2.579h-1.058l-.088-.593h-.033c-.362.473-.878.71-1.548.71-.5 0-.906-.156-1.21-.466a1.439 1.439 0 01-.415-1.048c0-.63.27-1.109.813-1.44.542-.333 1.304-.495 2.286-.488v-.096c0-.678-.367-1.017-1.101-1.017a2.52 2.52 0 00-1.382.382l-.24-.752c.493-.296 1.101-.444 1.819-.444 1.385 0 2.08.71 2.08 2.13v1.895c0 .514.026.924.077 1.227zm-1.224-1.769v-.794c-1.3-.021-1.95.325-1.95 1.038 0 .268.074.47.226.604a.84.84 0 00.576.2c.259 0 .5-.08.72-.237a.973.973 0 00.428-.81zm7.92 1.77h-1.045l-.055-.827h-.033c-.334.63-.903.944-1.703.944a2.02 2.02 0 01-1.592-.731c-.422-.487-.632-1.12-.632-1.896 0-.833.228-1.508.687-2.023a2.14 2.14 0 011.636-.72c.712 0 1.21.232 1.494.698h.022V8.374h1.18v6.123c0 .501.013.963.041 1.387zm-1.22-2.171v-.858c0-.149-.012-.27-.033-.36a1.298 1.298 0 00-.427-.694 1.18 1.18 0 00-.788-.28c-.44 0-.784.168-1.037.508-.25.34-.378.773-.378 1.303 0 .509.12.921.362 1.24.256.338.6.507 1.03.507.387 0 .697-.141.932-.424.227-.26.338-.575.338-.942zm11.3-.446c0 .792-.232 1.44-.698 1.95-.488.522-1.134.783-1.942.783-.777 0-1.397-.25-1.86-.752-.461-.501-.692-1.134-.692-1.896 0-.797.237-1.451.714-1.959s1.118-.762 1.927-.762c.777 0 1.403.25 1.875.751.45.487.676 1.116.676 1.885zm-1.221.037c0-.475-.106-.882-.316-1.222-.249-.41-.599-.616-1.058-.616-.473 0-.832.206-1.081.616-.211.34-.316.754-.316 1.243 0 .475.106.882.316 1.222.255.41.611.616 1.07.616.449 0 .804-.209 1.058-.627.217-.346.327-.757.327-1.232zm7.558 2.58h-1.177v-2.949c0-.908-.356-1.363-1.07-1.363-.35 0-.632.125-.85.375-.218.25-.327.545-.327.882v3.054h-1.18v-3.676c0-.452-.013-.942-.042-1.473h1.035l.055.805h.033c.138-.25.343-.457.61-.622.321-.192.677-.29 1.07-.29.494 0 .905.156 1.232.467.409.381.611.95.611 1.706v3.084zm7.932-4.29h-1.298v2.501c0 .635.23.953.687.953.211 0 .387-.017.525-.053l.031.868c-.233.085-.539.128-.916.128-.465 0-.827-.138-1.09-.413-.263-.275-.393-.738-.393-1.388v-2.596h-.775v-.857h.775v-.943l1.155-.339v1.281h1.298v.858h.001zm6.239 4.29h-1.18v-2.927c0-.923-.355-1.385-1.067-1.385-.547 0-.92.268-1.125.803-.034.113-.055.25-.055.412v3.096h-1.177V8.374h1.177v3.102h.023c.371-.564.903-.846 1.592-.846.488 0 .892.155 1.212.466.4.388.6.965.6 1.727v3.06zm6.436-2.817a2.7 2.7 0 01-.044.519h-3.535c.016.509.185.896.512 1.165.299.24.685.36 1.157.36.523 0 1-.08 1.429-.243l.185.795c-.503.212-1.094.317-1.779.317-.821 0-1.468-.234-1.936-.704-.47-.47-.703-1.1-.703-1.89 0-.776.218-1.423.655-1.938.457-.55 1.074-.826 1.853-.826.763 0 1.342.275 1.733.826.316.436.473.977.473 1.62zm-1.125-.296a1.511 1.511 0 00-.228-.879c-.205-.318-.516-.477-.938-.477-.385 0-.699.155-.938.466a1.7 1.7 0 00-.35.89h2.454z" fill="#fff"/></svg>