<svg width="16" height="16" fill="none" xmlns="http://www.w3.org/2000/svg"><path d="M10.53 2.552a3.45 3.45 0 00.729-1.192c.156-.437.218-.9.182-1.36a3.922 3.922 0 00-2.58 1.216c-.313.337-.551.73-.699 1.155a3.117 3.117 0 00-.16 1.317c.486.004.967-.097 1.406-.294a3.141 3.141 0 001.121-.842zm2.166 5.951c.006-.613.18-1.214.504-1.747.325-.534.79-.981 1.353-1.3a3.923 3.923 0 00-1.37-1.146 4.238 4.238 0 00-1.777-.454c-1.341-.128-2.579.728-3.293.728-.713 0-1.72-.712-2.837-.696-.73.022-1.442.22-2.066.575a4.077 4.077 0 00-1.493 1.449c-1.513 2.447-.387 6.087 1.126 8.063.688.968 1.548 2.064 2.683 2.024 1.134-.04 1.504-.656 2.82-.656 1.315 0 1.719.656 2.837.632 1.117-.024 1.908-.992 2.63-1.96A8.556 8.556 0 0015 11.735a3.74 3.74 0 01-1.672-1.295 3.355 3.355 0 01-.632-1.937z" fill="#fff"/></svg>