<svg width="49" height="48" fill="none" xmlns="http://www.w3.org/2000/svg"><path d="M9.02 22.04v9.94c0 3.64 0 3.64 3.44 5.96l9.46 5.46c1.42.82 3.74.82 5.16 0l9.46-5.46c3.44-2.32 3.44-2.32 3.44-5.96v-9.94c0-3.64 0-3.64-3.44-5.96l-9.46-5.46c-1.42-.82-3.74-.82-5.16 0l-9.46 5.46c-3.44 2.32-3.44 2.32-3.44 5.96z" stroke="#D9A87D" stroke-width="2" stroke-linecap="round" stroke-linejoin="round"/><path d="M35.5 15.26V10c0-4-2-6-6-6h-10c-4 0-6 2-6 6v5.12m11.969 7.461l.869 1.277c.137.2.442.402.671.459l1.556.373c.961.23 1.22 1.004.595 1.722l-1.022 1.162c-.153.186-.275.516-.26.746l.092 1.506c.061.933-.64 1.406-1.556 1.062l-1.495-.56a1.395 1.395 0 00-.838 0l-1.495.56c-.915.344-1.617-.144-1.556-1.062l.091-1.506a1.206 1.206 0 00-.259-.746l-1.022-1.162c-.625-.718-.366-1.492.595-1.722l1.556-.373c.244-.057.549-.273.671-.46l.87-1.276c.549-.775 1.403-.775 1.937 0z" stroke="#D9A87D" stroke-width="2" stroke-linecap="round" stroke-linejoin="round"/></svg>