<svg width="49" height="48" fill="none" xmlns="http://www.w3.org/2000/svg"><path d="M9.02 22.04v9.94c0 3.64 0 3.64 3.44 5.96l9.46 5.46c1.42.82 3.74.82 5.16 0l9.46-5.46c3.44-2.32 3.44-2.32 3.44-5.96v-9.94c0-3.64 0-3.64-3.44-5.96l-9.46-5.46c-1.42-.82-3.74-.82-5.16 0l-9.46 5.46c-3.44 2.32-3.44 2.32-3.44 5.96z" stroke="#D5D4CE" stroke-width="2" stroke-linecap="round" stroke-linejoin="round"/><path d="M35.5 15.26V10c0-4-2-6-6-6h-10c-4 0-6 2-6 6v5.12" stroke="#D5D4CE" stroke-width="2" stroke-linecap="round" stroke-linejoin="round"/></svg>