<svg width="564" height="344" fill="none" xmlns="http://www.w3.org/2000/svg"><g clip-path="url(#clip0_1305_3541)"><path fill="#F28F8F" d="M0 0h564v344H0z"/><path fill-rule="evenodd" clip-rule="evenodd" d="M188.056 188.087c6.776-1.885 11.025-8.504 10.633-15.527-2.178-39.021 11.638-78.769 41.448-108.579 55.561-55.56 145.642-55.56 201.202 0 55.561 55.561 55.561 145.642 0 201.202-29.902 29.903-69.804 43.712-108.942 41.427-7.036-.41-13.678 3.841-15.566 10.631l-55.132 198.222c-1.641 5.901-9.033 7.845-13.364 3.514L-13.977 256.665c-4.33-4.331-2.387-11.723 3.513-13.364l198.52-55.214z" fill="url(#paint0_linear_1305_3541)"/></g><defs><linearGradient id="paint0_linear_1305_3541" x1="486.699" y1="32.862" x2="26.935" y2="156.948" gradientUnits="userSpaceOnUse"><stop stop-color="#fff" stop-opacity=".5"/><stop offset="1" stop-color="#fff" stop-opacity="0"/></linearGradient><clipPath id="clip0_1305_3541"><path fill="#fff" d="M0 0h564v344H0z"/></clipPath></defs></svg>