<svg width="24" height="24" fill="none" xmlns="http://www.w3.org/2000/svg"><path d="M3 15.5c0 1.933.949 3.5 2.813 3.5h12.375C20.05 19 21 17.433 21 15.5V12H3v3.5z" fill="#29B473"/><path d="M18.188 6H5.813C3.949 6 3 7.407 3 9.143V14h18V9.143C21 7.407 20.051 6 18.187 6z" fill="#CB0000"/><path d="M5.857 6C3.964 6 3 7.455 3 9.25v6.5C3 17.545 3.964 19 5.857 19H7V6H5.857z" fill="#E6E7E8"/><path fill-rule="evenodd" clip-rule="evenodd" d="M6.406 12.322c0 .034-.003.068.001.102.004.042-.023.052-.08.052s-.08-.011-.079-.053a1.64 1.64 0 000-.204c-.002-.043.024-.051.08-.052.057 0 .083.01.08.053-.004.034-.002.067-.002.102z" fill="#CD0808"/><path fill-rule="evenodd" clip-rule="evenodd" d="M3.919 17.454c0 .029-.002.058.001.086.004.04.003.069-.08.068-.075-.002-.075-.027-.074-.063a2.7 2.7 0 000-.18c0-.037 0-.064.074-.065.084 0 .084.029.08.07l-.001.084z" fill="#CC0303"/><path fill-rule="evenodd" clip-rule="evenodd" d="M3.768 14.676c0-.036.003-.07 0-.104-.005-.04.016-.054.077-.054.058 0 .08.012.076.054a1.77 1.77 0 000 .197c.002.035-.002.058-.07.057-.062 0-.092-.01-.084-.056.005-.031.001-.063.001-.094zm1.393 0c0 .03-.002.062.002.093.005.042-.014.057-.08.058-.075.001-.076-.025-.076-.062a1.535 1.535 0 000-.187c-.002-.041.011-.06.08-.06.074 0 .077.026.075.063-.002.032 0 .063 0 .095z" fill="#CC0202"/><path fill-rule="evenodd" clip-rule="evenodd" d="M6.407 14.676c0 .03-.004.062 0 .093.007.043-.017.057-.082.058-.072 0-.077-.023-.076-.063a1.708 1.708 0 000-.185c-.003-.044.015-.06.081-.06.074-.001.079.024.077.063-.003.031 0 .062 0 .094zm0 1.309c0 .034-.003.067 0 .1.006.046-.022.06-.085.059-.063 0-.074-.02-.073-.057.004-.065.004-.13 0-.195-.005-.048.024-.055.084-.056.063 0 .079.017.075.055-.004.03-.001.062-.001.094z" fill="#CC0606"/><path fill-rule="evenodd" clip-rule="evenodd" d="M5.007 15.99c.001-.034.005-.069 0-.103-.008-.046.026-.049.08-.05.061-.002.078.014.076.053a1.707 1.707 0 000 .197c0 .039-.012.056-.075.058-.07 0-.087-.019-.082-.061.004-.031.001-.063.001-.094zm-1.24 0c0-.031.004-.063 0-.094-.006-.043.01-.06.08-.06.074-.002.076.025.074.063a2.095 2.095 0 000 .188c.002.038-.008.056-.073.058-.069 0-.086-.018-.081-.06.003-.033 0-.064 0-.095zm.153-3.672v.094c.003.037.005.065-.073.064-.069 0-.083-.018-.08-.06a1.557 1.557 0 00-.001-.189c-.002-.042.012-.06.082-.06.076-.001.075.028.073.065-.002.028-.001.057-.001.086z" fill="#CC0202"/><path fill-rule="evenodd" clip-rule="evenodd" d="M3.767 8.652c0-.033.003-.068 0-.101-.006-.044.024-.05.08-.051.061-.001.076.015.073.054-.004.065-.004.13 0 .195.004.042-.011.059-.078.06-.075 0-.079-.025-.076-.063.003-.031.001-.062.001-.094z" fill="#CB0101"/><path fill-rule="evenodd" clip-rule="evenodd" d="M6.248 9.959c0-.03.004-.058 0-.086-.009-.047.023-.056.084-.057.064 0 .075.018.074.056a1.766 1.766 0 000 .197c.001.041-.02.055-.08.054-.057 0-.082-.01-.078-.053.003-.036 0-.074 0-.111z" fill="#CC0606"/><path fill-rule="evenodd" clip-rule="evenodd" d="M5.007 9.964c0-.031.003-.063-.001-.093-.004-.039.01-.055.073-.055.064 0 .087.013.083.057-.005.065-.005.13 0 .196.003.047-.026.054-.087.055-.07.001-.07-.024-.068-.058v-.102zm-1.088.005l.001.086c.003.04.004.07-.08.07-.076-.002-.075-.03-.074-.066 0-.06.002-.12 0-.18-.001-.037-.001-.064.074-.063.068 0 .086.017.08.059-.004.032-.001.063-.001.094zM5.16 8.66c0 .031-.002.063.002.094.004.04-.014.054-.074.055-.068.001-.086-.016-.082-.06a1.273 1.273 0 000-.187c-.002-.041.01-.062.08-.062.076 0 .076.029.075.065-.003.032 0 .063 0 .095z" fill="#CC0202"/><path fill-rule="evenodd" clip-rule="evenodd" d="M6.405 8.658c0 .031-.002.062.001.094.005.038-.009.056-.073.056-.06-.001-.09-.008-.087-.056a1.39 1.39 0 00.002-.204c-.002-.038.02-.05.072-.049.051 0 .09.003.086.049-.003.036 0 .073 0 .11z" fill="#CC0505"/><path fill-rule="evenodd" clip-rule="evenodd" d="M6.407 17.46c0 .031-.003.063 0 .094.005.039-.011.056-.074.056-.06 0-.089-.01-.085-.058a1.27 1.27 0 000-.188c-.001-.04.011-.061.08-.062.072 0 .083.024.08.064-.004.031-.001.063-.001.094z" fill="#CD0606"/><path fill-rule="evenodd" clip-rule="evenodd" d="M3.767 7.178c0-.031.004-.063 0-.094-.008-.046.03-.049.081-.049.048 0 .075.007.073.046-.005.07-.005.142 0 .213.002.042-.028.046-.075.045-.043-.001-.084.002-.08-.042.004-.04.001-.08.001-.12z" fill="#CB0000"/><path fill-rule="evenodd" clip-rule="evenodd" d="M6.406 7.186c0 .034-.003.068.001.101.005.043-.026.053-.08.053-.058 0-.08-.012-.078-.054a1.41 1.41 0 000-.195c-.005-.048.028-.055.086-.056.065 0 .075.021.073.057-.004.03-.002.062-.002.094z" fill="#CC0404"/><path fill-rule="evenodd" clip-rule="evenodd" d="M3.92 11.19c-.006.027.018.062-.014.087-.025.02-.069.008-.104.007-.035-.001-.035-.02-.035-.037v-.095c-.002-.038-.01-.07.077-.07.085 0 .08.032.076.07v.038z" fill="#CC0505"/><path fill-rule="evenodd" clip-rule="evenodd" d="M6.248 13.46v-.067c-.002-.04.038-.037.075-.037s.079-.005.08.034c.003.033.001.067.003.101.001.038.007.07-.078.07-.078 0-.086-.026-.08-.067v-.034z" fill="#CD0909"/><path fill-rule="evenodd" clip-rule="evenodd" d="M3.92 13.458c-.011.042.044.115-.1.102-.044-.004-.055-.015-.054-.042a1.165 1.165 0 000-.094c-.003-.041 0-.07.082-.07.078.002.074.031.071.067v.037z" fill="#CC0404"/><path fill-rule="evenodd" clip-rule="evenodd" d="M6.248 11.17c.012-.024-.023-.06.023-.083.056-.026.132.005.134.052.002.026 0 .051.001.076.002.04.006.073-.079.073-.083 0-.082-.03-.079-.07.002-.015 0-.03 0-.048z" fill="#CD0A0A"/><path fill-rule="evenodd" clip-rule="evenodd" d="M6.37 7.846c-.004-.003-.017-.001-.025 0-.09.011-.102-.022-.097-.074.005-.046.001-.091.001-.137 0-.025-.004-.05-.052-.043-.112.014-.103-.036-.101-.087.003-.04 0-.08 0-.12.002-.024-.002-.05-.049-.045-.106.01-.11-.032-.106-.087.004-.04.001-.08.001-.12 0-.02.001-.047-.038-.044-.156.015-.118-.062-.122-.12l-.006-.136h-.148c-.058.04-.047.09-.05.137-.002.033.004.07-.052.09-.085.027-.093.08-.097.136-.002.034.016.076-.036.094-.11.039-.112.105-.112.175 0 .034.006.074-.054.088-.102.024-.116.08-.119.144-.002.028.01.06-.025.09-.04-.039-.02-.077-.026-.112-.006-.037-.007-.08-.057-.1-.085-.032-.093-.08-.091-.136 0-.053-.015-.106-.093-.13-.07-.022-.08-.059-.08-.104 0-.051.003-.108-.075-.136-.063-.023-.073-.056-.073-.1 0-.047.009-.097-.05-.136h-.147a8.4 8.4 0 00-.002.206c0 .029-.005.054-.06.048-.102-.011-.1.033-.095.082.002.04-.001.08 0 .12 0 .03-.008.054-.06.05-.098-.01-.107.029-.1.08.004.038-.003.075.002.113.003.04-.009.066-.08.06-.06-.008-.08.011-.076.052.005.036-.001.074.002.111.004.054.01.107-.107.09-.021-.002-.045.002-.045.02 0 .072 0 .143.004.215 0 .018.026.022.046.019.112-.016.105.035.102.085-.003.04-.001.08-.002.12 0 .024 0 .051.049.045.106-.01.113.031.107.087-.005.037.001.074-.002.111-.003.04.011.062.074.055.076-.008.09.02.087.065-.004.05 0 .098 0 .146 0 .025.002.05.05.044.108-.014.11.03.105.084-.003.038.002.074-.002.111-.004.043.012.061.081.06.064 0 .075-.018.074-.056-.004-.052 0-.103-.001-.155-.001-.024.002-.05.05-.043.123.016.108-.04.105-.093v-.12c0-.026.012-.047.055-.042.11.013.109-.034.104-.086-.002-.04 0-.08 0-.12 0-.026.005-.05.05-.046.111.013.107-.034.103-.086-.002-.035.003-.068 0-.103-.004-.039 0-.063.076-.062.07 0 .081.02.078.06-.004.049 0 .097-.001.146 0 .028.01.049.053.044.108-.012.11.034.106.088-.003.04 0 .08 0 .12-.002.025.002.05.05.043.105-.011.112.032.106.087-.004.042 0 .085 0 .128 0 .02-.002.046.041.04.127-.015.114.042.111.097-.002.034.003.069 0 .102-.005.038.007.058.072.058.067 0 .087-.016.084-.06-.005-.049-.001-.097-.002-.146 0-.027 0-.056.055-.05.109.013.11-.032.106-.085-.005-.043 0-.086-.001-.128-.001-.028.014-.047.057-.041.103.012.102-.031.098-.081-.003-.043 0-.086-.002-.128 0-.028.01-.048.055-.043.1.011.105-.03.1-.08-.004-.034.003-.07-.003-.104-.006-.049.011-.076.093-.067.06.006.071-.024.063-.054-.019-.066.045-.14-.035-.2zm-1.519.232c0 .022-.033.024-.057.021-.103-.012-.103.033-.098.082.003.035-.002.07 0 .103.005.043-.003.075-.082.067-.063-.006-.076.018-.074.056.004.046-.002.092.002.137.004.041-.01.06-.079.06-.076 0-.076-.026-.075-.063.003-.04-.003-.08.001-.12.006-.047-.004-.08-.09-.071-.057.006-.068-.019-.065-.052.002-.031 0-.063 0-.095.002-.055.024-.12-.115-.105-.037.005-.044-.019-.044-.04v-.086c0-.022.003-.046 0-.069-.008-.042.013-.065.08-.058.069.008.084-.018.08-.06-.005-.039.001-.079-.001-.12-.005-.047 0-.086.095-.075.05.006.062-.015.06-.045-.003-.049.002-.097-.001-.146-.003-.042.008-.061.078-.061.077-.001.078.026.076.064-.002.04.003.08-.002.12-.006.047.006.078.09.069.06-.007.068.018.067.053-.002.042.002.085-.002.127-.004.05.005.086.097.075.023-.003.059-.006.06.018a1.82 1.82 0 010 .214zm1.17.022c-.069-.008-.084.017-.08.059.004.037-.003.074.002.111.005.052-.003.091-.101.082-.05-.005-.061.019-.06.048.002.046-.002.092.002.138.003.042-.003.067-.083.067-.077-.002-.075-.03-.072-.065.002-.034-.002-.068 0-.103.004-.052.007-.1-.102-.087-.05.006-.052-.02-.05-.044 0-.04-.003-.08 0-.12.004-.052.007-.1-.103-.086h-.011c-.088-.063-.023-.139-.042-.207-.01-.038.017-.053.07-.047.072.007.092-.017.086-.063-.005-.037.003-.075-.001-.11-.005-.052-.003-.095.098-.082.045.005.057-.013.055-.04-.002-.052.003-.103 0-.155-.003-.036.004-.058.07-.058.064 0 .09.012.085.058-.004.04.002.08-.002.12-.004.048.002.086.095.076.048-.006.067.011.066.044-.002.046.003.091-.002.137-.005.05.007.083.098.073.051-.007.061.016.058.046-.002.026 0 .051 0 .077 0 .026-.002.051.001.077.005.04-.017.06-.077.054zm.377 8.465c0-.018-.026-.023-.045-.02-.11.014-.11-.033-.105-.085.003-.04 0-.08 0-.121.001-.024 0-.05-.048-.045-.109.012-.109-.033-.105-.087.004-.04 0-.08.002-.12.002-.03-.01-.052-.06-.045-.094.011-.1-.028-.096-.076.003-.046 0-.092 0-.137.002-.028-.01-.048-.054-.042-.107.014-.11-.03-.106-.085.005-.04-.001-.08.002-.12.004-.045-.028-.051-.083-.051-.051 0-.076.01-.073.048.004.054.001.11.001.163 0 .024 0 .05-.05.044-.108-.015-.107.032-.103.085.004.042 0 .085 0 .128 0 .022-.004.045-.043.041-.14-.015-.112.052-.112.106v.103c0 .026-.011.048-.054.042-.111-.011-.109.037-.105.089.003.034-.002.068.001.102.005.042-.008.061-.078.062-.075 0-.078-.025-.076-.064.003-.048 0-.096 0-.145 0-.02.002-.045-.04-.041-.138.014-.112-.053-.112-.108 0-.033-.002-.068 0-.102 0-.027-.01-.048-.054-.043-.108.012-.111-.032-.106-.086.003-.043 0-.086 0-.13 0-.02-.002-.043-.043-.038-.126.015-.115-.042-.111-.098.001-.034-.003-.068 0-.102.004-.037-.009-.056-.073-.057-.07 0-.084.018-.081.06.003.053 0 .103 0 .155 0 .02 0 .045-.041.04-.124-.015-.118.04-.113.096.002.038 0 .075.001.112 0 .03-.01.053-.061.047-.102-.012-.105.03-.1.081.004.037-.003.075.002.112.005.043-.014.066-.082.059-.063-.006-.078.016-.074.055.005.037 0 .074.002.112.003.05-.001.074-.1.091-.12.022-.032.12-.052.183-.007.027-.022.072.056.064.091-.01.101.023.096.073-.005.046 0 .091-.002.137 0 .025.006.05.052.044.11-.014.107.034.103.086-.002.04.002.08 0 .12-.004.033.016.05.064.046.09-.01.1.027.096.077-.004.042 0 .085 0 .128 0 .023-.003.051.046.046.12-.014.11.038.109.093-.003.053 0 .108.002.162h.147c.058-.038.047-.088.05-.137.003-.03-.007-.067.042-.083.094-.032.105-.089.106-.151.002-.033-.01-.073.048-.09.111-.033.126-.098.126-.17 0-.028-.01-.065.03-.078.12-.043.118-.116.118-.192.001-.017-.006-.04.032-.047.029.04.013.08.02.12.008.041.021.083.083.096.083.02.088.06.088.109 0 .053-.009.114.072.146.064.025.077.06.077.106 0 .052-.002.108.075.136.062.023.073.056.073.098 0 .049-.009.1.049.138h.148l.007-.197c.001-.024-.01-.061.046-.057.128.014.116-.041.113-.098v-.112c-.001-.027.013-.046.056-.042.099.01.105-.029.1-.08-.004-.037.001-.075-.002-.112-.003-.04.004-.068.076-.06.06.007.081-.012.077-.053-.003-.037.002-.074-.001-.111-.005-.055-.009-.106.108-.09.02.002.045-.001.046-.02 0-.071 0-.142-.004-.213zm-1.621.234c-.067-.008-.087.015-.082.058.004.037-.001.075.001.111.006.054 0 .098-.105.086-.049-.005-.05.02-.05.044 0 .052-.004.103 0 .154.005.042-.019.054-.077.054-.06 0-.082-.013-.077-.054.005-.031.002-.063.001-.094 0-.053.028-.122-.112-.106-.04.004-.042-.02-.042-.041 0-.043-.005-.086 0-.129.006-.055-.002-.098-.106-.083h-.013c-.092-.058-.018-.132-.039-.197-.009-.029-.005-.063.058-.057.1.01.106-.03.1-.08-.004-.038.003-.075-.002-.112-.005-.043.015-.065.082-.06.062.006.078-.015.075-.055-.003-.044.002-.091-.002-.136-.003-.04.006-.062.078-.062.073 0 .08.023.077.062-.005.037.002.075-.002.111-.007.053.002.09.1.081.042-.003.057.015.056.043-.002.036.002.074 0 .11-.004.056-.015.114.112.099.038-.005.047.017.047.04v.085c0 .023-.003.046 0 .069.005.04-.007.067-.078.059zm1.255 0c-.084-.01-.098.02-.092.068.004.031 0 .063.002.094.002.054.011.107-.108.093-.047-.005-.053.018-.052.044 0 .052-.003.103 0 .154.004.042-.02.054-.078.054-.057 0-.082-.012-.077-.054.005-.034 0-.068.001-.102.003-.054.018-.113-.11-.098-.041.005-.042-.02-.042-.04 0-.043-.004-.086 0-.13.006-.053.003-.098-.104-.083h-.013c-.09-.059-.018-.132-.039-.197-.008-.029-.004-.063.06-.057.102.011.1-.033.096-.082-.003-.04.003-.08-.001-.12-.004-.036.015-.054.069-.05.076.008.09-.02.084-.064-.003-.042.004-.086 0-.128-.005-.043.01-.06.078-.06.074 0 .08.023.077.062-.003.04.002.08-.002.119-.005.048.007.08.09.072.055-.005.073.015.07.05-.002.041.003.081-.001.12-.004.05-.003.094.098.081.044-.005.06.012.058.041-.002.029 0 .058 0 .085 0 .026-.002.052 0 .077.003.034-.006.058-.064.05z" fill="#CB0000"/><path fill-rule="evenodd" clip-rule="evenodd" d="M5.16 7.194c0 .03-.002.063.002.093.005.042-.02.054-.078.054-.057-.001-.08-.01-.078-.053a1.495 1.495 0 000-.204c-.001-.038.02-.05.072-.048.047.002.09-.001.085.047-.006.037-.002.074-.002.11zm0 10.272c0 .028-.003.057.002.084.007.047-.022.057-.084.058-.065 0-.072-.02-.072-.057.004-.065.004-.13 0-.195-.003-.043.02-.054.077-.054.057.001.084.01.079.053-.004.036-.001.074-.001.11z" fill="#CC0303"/><path fill-rule="evenodd" clip-rule="evenodd" d="M6.315 12.803c-.057.006-.07-.016-.067-.05.003-.038 0-.075 0-.111 0-.021 0-.047-.042-.042-.142.016-.111-.053-.108-.106.001-.044 0-.08-.09-.07-.048.006-.064-.01-.061-.044.002-.04 0-.08 0-.12 0-.02.002-.044.044-.039.122.016.111-.04.104-.092-.005-.054-.004-.098.105-.085.05.006.048-.022.048-.045 0-.037.003-.074 0-.111-.002-.032.011-.052.061-.045.092.01.1-.025.097-.074-.005-.05-.002-.097-.002-.146 0-.063-.002-.126.001-.189.002-.037-.02-.047-.073-.05-.093-.005-.08.035-.086.076-.003.027.039.08-.05.075-.098-.006-.105.029-.101.081 0 .028.03.079-.057.072-.09-.007-.103.023-.098.074.004.04-.002.08.002.12.002.04-.004.064-.077.063-.066 0-.088-.014-.084-.059.005-.046 0-.091.002-.137.003-.04-.008-.068-.079-.06-.073.008-.08-.021-.076-.06.005-.053.016-.11-.106-.093-.04.006-.047-.015-.046-.037 0-.02-.005-.04 0-.06.019-.079-.016-.119-.142-.104-.03.003-.08.01-.087-.017-.017-.073-.052-.18.007-.215.092-.055.056-.109.063-.164a.98.98 0 00.001-.197c-.003-.045.01-.073.087-.065.065.007.075-.019.071-.056-.003-.03.003-.064-.001-.094-.005-.041.02-.053.078-.053.062 0 .078.015.075.054a1.462 1.462 0 000 .172c.005.05.004.091-.097.08-.058-.008-.062.022-.055.048.02.068-.058.18.044.196.127.02.107.061.108.114v.102c0 .025.005.05.05.045.11-.012.11.035.105.087-.003.034.002.068-.002.103-.003.04.006.064.078.063.066 0 .088-.015.084-.06-.005-.049-.001-.097-.001-.145 0-.025 0-.051.05-.046.121.013.107-.043.104-.095-.001-.037.002-.075 0-.111-.001-.029.003-.054.057-.047.092.01.101-.026.096-.075-.003-.037.003-.073-.001-.11-.005-.048.004-.08.09-.072.032.004.067.003.066-.032-.002-.062 0-.125-.002-.188 0-.019-.014-.035-.044-.032-.13.017-.11-.045-.11-.099.001-.037-.002-.074.001-.111 0-.028-.014-.045-.056-.04-.103.011-.102-.034-.098-.083.004-.043.001-.086.001-.128 0-.021.002-.046-.041-.041-.139.014-.113-.052-.113-.106 0-.035-.002-.07 0-.103 0-.03-.01-.054-.061-.047-.1.012-.106-.029-.1-.08.004-.038 0-.075.002-.112.002-.038-.003-.063-.077-.063-.072 0-.083.02-.079.061.004.049 0 .097.001.146.001.028 0 .055-.056.048-.103-.014-.1.03-.097.08.004.044-.001.086.001.13.001.031-.015.05-.064.044-.093-.012-.098.027-.094.076.004.042 0 .085.001.128.001.03-.01.053-.06.048-.102-.01-.103.033-.098.083.002.035-.002.069 0 .103.002.036.006.064-.073.065-.08 0-.084-.026-.082-.067.005-.046.001-.092.002-.137 0-.024.003-.05-.047-.045-.107.012-.112-.032-.107-.087.004-.039.001-.08.001-.119 0-.024.001-.053-.047-.046-.132.015-.113-.047-.112-.1v-.112c0-.024-.002-.05-.05-.043-.107.013-.114-.03-.106-.084a.603.603 0 000-.095c0-.038.018-.08-.08-.078-.09.002-.071.04-.072.075v.136c0 .026-.002.05-.05.044-.107-.013-.11.03-.106.085.004.043 0 .086.001.128 0 .028-.012.048-.055.042-.112-.013-.109.034-.104.087.002.037-.004.074 0 .111.004.04-.014.06-.076.055-.069-.007-.084.017-.079.06.005.037-.001.073.002.11.004.05.008.093-.097.081-.066-.006-.063.032-.055.058.02.064-.065.168.042.187.112.02.113.048.11.104-.003.037 0 .075-.002.112 0 .029.006.053.06.047.088-.01.102.023.096.073-.005.043 0 .086-.001.129-.001.029.005.054.058.05.096-.009.108.027.102.08-.005.038.002.075-.002.112-.004.041.01.06.08.061.074 0 .079-.023.077-.063-.004-.043.001-.085-.002-.129-.003-.04.004-.068.077-.06.073.007.08-.023.077-.062-.003-.037.003-.076-.002-.112-.006-.053.003-.088.1-.08.077.006.062-.04.054-.066-.02-.063.065-.162-.044-.179-.112-.018-.112-.048-.11-.104a1.357 1.357 0 000-.155c-.003-.039.015-.055.076-.055.057 0 .085.01.08.053-.002.034 0 .07 0 .103-.002.03.006.054.058.047.1-.01.106.03.101.081-.004.054 0 .109 0 .163 0 .048-.026.123.008.14.109.056.052.126.068.189.02.071-.026.098-.127.086-.087-.01-.12.016-.11.076.005.029 0 .057.002.086.002.03-.017.044-.058.04-.1-.013-.099.032-.099.081 0 .025.034.075-.046.069-.108-.009-.11.032-.105.086.004.04-.002.08.002.12.006.044-.024.051-.08.052-.06 0-.08-.014-.076-.053.003-.053 0-.103.001-.155 0-.03-.009-.053-.06-.048-.1.013-.104-.029-.102-.08.002-.026.028-.076-.047-.07-.125.01-.11-.043-.103-.094.004-.042-.012-.061-.081-.06-.064 0-.074.018-.073.056.001.114.002.229 0 .343-.002.042.01.066.08.059.061-.008.078.013.074.052-.005.038 0 .074-.002.112 0 .022.008.043.047.038.133-.017.11.049.107.099-.004.047-.004.088.093.077.042-.005.058.01.056.039v.129c.001.025-.014.039-.05.035-.116-.014-.103.042-.099.089.003.05.01.1-.101.087-.046-.006-.054.017-.054.042.002.035-.002.07.002.104.006.042-.012.064-.08.056-.063-.007-.075.014-.074.054.002.117.002.234 0 .352-.001.042.025.05.08.052.091.004.067-.039.074-.073.007-.03-.037-.086.06-.079.098.009.095-.03.095-.077 0-.033-.028-.083.066-.075.084.007.097-.022.092-.07-.004-.04.002-.08-.001-.12-.004-.042.002-.069.082-.068.078.002.075.03.073.066 0 .046.002.092 0 .137-.004.039.01.062.074.054.084-.01.079.027.08.067.001.027-.025.082.028.08.176-.008.126.076.124.135-.003.057.023.076.105.073.04-.003.09-.016.126.014.013.01.01.225-.004.227-.108.017-.061.076-.065.117-.006.08-.004.16 0 .24.002.043-.016.066-.082.058-.072-.007-.083.02-.079.062.004.028-.001.057.001.086.003.036-.01.056-.074.057-.068 0-.085-.017-.083-.06a1.54 1.54 0 000-.198c-.002-.037.016-.05.07-.05.032.002.083.016.086-.026a2.568 2.568 0 000-.197c-.001-.027-.03-.032-.061-.029-.092.011-.098-.027-.094-.076.003-.042 0-.085.002-.128 0-.029-.006-.054-.059-.048-.092.01-.1-.026-.096-.075.004-.037-.001-.074.002-.111.004-.043-.004-.069-.083-.068-.078 0-.074.03-.073.065l.001.138c0 .029-.006.054-.06.049-.097-.009-.107.03-.1.082.004.037-.003.074.001.111.004.04-.006.068-.078.06-.072-.008-.08.021-.077.06.004.036 0 .07 0 .104.004.053.017.109-.105.091-.02-.002-.045.001-.045.02 0 .071 0 .143.003.214 0 .018.026.022.045.02.112-.015.107.034.103.085-.003.043 0 .085-.002.129 0 .023.01.04.049.036.122-.015.108.042.106.095v.12c0 .023.009.043.048.038.13-.016.112.045.111.099v.111c0 .024 0 .051.05.045.123-.016.107.04.105.092-.002.034.002.069 0 .103-.005.042.009.06.078.061.079 0 .076-.028.076-.065-.003-.048 0-.097-.001-.146-.001-.025.001-.05.049-.043.124.016.108-.041.106-.093v-.12c0-.028.012-.048.055-.042.11.013.108-.035.104-.087-.003-.04 0-.08 0-.12 0-.025.003-.051.05-.045.108.012.109-.033.103-.086-.002-.034.003-.068 0-.102-.004-.04 0-.064.075-.064.07.001.082.02.08.061-.005.048 0 .097-.002.146-.001.027.01.047.054.043.11-.012.108.036.105.088-.004.04 0 .08-.001.12 0 .025.003.05.05.044.123-.015.11.041.106.094v.12c.001.02-.001.045.041.04.125-.015.116.04.112.096-.002.034.003.069 0 .104-.005.037.007.056.071.057.068 0 .088-.017.084-.06a1.403 1.403 0 010-.146c0-.022-.008-.053.042-.048.137.014.12-.048.117-.105-.002-.036 0-.074 0-.111-.002-.029.016-.046.057-.04.103.012.1-.032.098-.082-.004-.04.002-.08-.002-.12-.002-.034.009-.058.067-.051.09.01.09-.028.087-.072-.003-.04.003-.08-.002-.12-.004-.041.01-.066.08-.06.031.003.073.005.075-.028.004-.065 0-.132 0-.197 0-.03-.03-.031-.059-.028-.09.01-.1-.024-.096-.074.005-.046.002-.092.001-.138 0-.019.003-.046-.04-.042-.139.017-.113-.05-.112-.104v-.102c0-.026-.003-.051-.05-.046-.107.011-.11-.033-.105-.087.003-.034-.002-.068.001-.103.002-.039-.004-.063-.076-.063-.08-.002-.088.024-.085.067.004.045 0 .091.002.137.001.03-.01.052-.061.047-.094-.01-.1.028-.095.076.004.046 0 .091.001.137.002.029-.013.044-.055.04-.09-.011-.105.022-.099.072a.419.419 0 010 .103c-.006.052 0 .092.1.08.046-.006.055.012.054.04 0 .074-.002.149 0 .223.002.036-.025.043-.069.04-.041 0-.087.006-.084-.04.002-.03-.003-.063.001-.094.006-.048-.007-.078-.09-.069-.06.007-.068-.018-.068-.05a10.62 10.62 0 00.001-.285c0-.019.004-.052-.01-.055-.13-.041-.05-.119-.069-.178-.02-.07.02-.102.125-.089.098.012.123-.02.111-.082-.005-.025 0-.052 0-.077-.002-.026.006-.048.052-.042.115.014.103-.04.1-.088-.001-.034-.01-.073.07-.064.077.008.09-.02.085-.064-.003-.04 0-.08 0-.12-.002-.037-.012-.072.076-.073.094-.001.084.036.083.076-.002.046 0 .092 0 .137-.001.027.006.049.052.043.114-.014.104.036.104.086 0 .025-.024.07.041.064.119-.009.117.038.11.092-.006.04.005.063.077.064.071 0 .08-.024.079-.063a5.476 5.476 0 010-.326c.002-.047-.005-.08-.09-.07m-.62-.378c-.084-.009-.065.034-.067.066-.003.055.031.128-.116.111-.033-.005-.036.019-.036.037 0 .028-.005.056 0 .084.012.062-.014.094-.11.08-.102-.013-.156.017-.125.086.044.099-.079.163-.087.251-.004.024-.065.01-.101.014-.042.001-.033-.024-.047-.039-.08-.089-.075-.185-.077-.284-.002-.05-.074-.03-.108-.026-.105.008-.137-.02-.127-.09.008-.058.036-.13-.122-.12-.056.003-.026-.051-.03-.079-.005-.048.023-.098-.105-.095-.098.002-.02-.07-.045-.094-.003-.06-.03-.12.105-.108.07.005.04-.04.042-.064.007-.055-.03-.127.119-.111.04.004.037-.025.038-.044 0-.028.005-.058-.001-.086-.013-.062.029-.082.11-.072.102.012.157-.016.125-.085-.045-.098.08-.162.085-.25.001-.028.064-.012.098-.015.037-.002.036.018.05.036.075.09.082.185.08.285-.003.045.062.03.095.027.114-.01.153.018.14.097-.008.056-.032.122.118.113.06-.004.028.055.03.085.003.05-.008.1.104.086.038-.005.048.013.047.036 0 .034-.002.069.002.103.004.043-.005.073-.084.064" fill="#CB0000"/><path fill-rule="evenodd" clip-rule="evenodd" d="M5.548 15.342c.024-.098-.119-.157-.078-.247 0-.003-.01-.01-.015-.01-.08-.006-.061-.05-.056-.079.013-.066-.026-.08-.116-.08-.09 0-.14.01-.124.083.006.026.023.065-.054.069-.074.002-.11-.01-.098-.065.015-.063-.01-.089-.114-.088-.099 0-.132.021-.119.087.004.019.001.054-.01.055-.098.02-.06.076-.069.118-.002.014-.006.03-.017.04-.086.072-.087.143.001.214.02.015.02.032.015.048-.02.086.133.142.085.234-.001.002.01.01.014.01.062.003.125.01.183.002.06-.01.033-.054.03-.08-.012-.072.052-.076.12-.063.065.012.035.059.032.088-.01.075.063.058.12.057.056 0 .134.018.12-.056-.016-.085.121-.145.083-.234 0-.001.005-.005.009-.006.1-.014.047-.07.058-.097zm-.535-.007c-.039.046-.099.085-.1.143 0 .004-.051.008-.05-.006.001-.051-.036-.082-.084-.117-.017-.013-.027-.061.03-.072.05-.01.042-.034.044-.06.001-.02-.004-.042.041-.041.042.002.045.027.036.043-.032.058.107.054.083.11zm.291.14c.002.01-.058.012-.063-.013-.007-.04-.005-.073-.068-.098-.021-.008-.027-.062.01-.075.056-.018.053-.043.054-.075.002-.03.053-.045.061-.026.02.053.062.099.117.137-.036.06-.116.089-.111.15zm.244-6.143c.03-.104-.117-.167-.079-.258 0-.003-.01-.01-.017-.01-.07-.004-.057-.042-.052-.07.01-.064-.015-.09-.119-.088-.094 0-.138.015-.12.084.012.05-.013.074-.094.068-.11-.008-.056-.067-.056-.1 0-.063-.054-.053-.105-.048-.048.005-.134-.034-.132.046.001.033.026.078-.017.097-.113.052-.066.146-.131.214-.087.091.108.18.076.284 0 .004.011.01.017.01.08.007.06.05.054.08-.013.067.028.08.117.078.081-.002.136-.004.12-.077-.007-.03-.026-.074.068-.075.093-.002.08.036.084.075.003.025-.028.06.03.075.115.028.2-.01.206-.093.001-.017.002-.046.01-.048.096-.017.06-.069.067-.11.003-.017-.01-.041.017-.046.097-.015.045-.067.056-.087m-.633.124c0 .007-.055.011-.056-.009-.004-.043-.01-.079-.075-.102-.015-.005-.015-.057-.003-.062.063-.024.078-.057.076-.102 0-.024.054-.02.055-.016.005.058.06.098.112.144-.045.05-.108.089-.109.147zm.42-.083c-.015.006-.013.037-.015.056-.002.02-.013.031-.038.034-.013-.003-.022-.003-.027-.006-.042-.029.01-.08-.072-.106-.043-.015.018-.067.031-.1.062-.145.055-.115.131-.001.041.06.09.081-.01.123z" fill="#CB0000"/><path fill-rule="evenodd" clip-rule="evenodd" d="M4.311 9.31c.029-.084-.129-.141-.083-.232.002-.003-.007-.011-.013-.012-.093-.008-.065-.058-.06-.093.012-.075-.056-.063-.121-.065-.074-.003-.128-.001-.116.068.013.08-.117.138-.08.225 0 0-.005.005-.009.005-.093.012-.052.064-.062.1-.026.09.124.152.08.244.103.022.068.082.072.13.002.015 0 .033.025.035.062.002.126.009.183-.003.053-.01.016-.054.025-.083.007-.019.005-.054.015-.055.096-.013.06-.064.066-.102.003-.016.002-.046.01-.047.097-.018.062-.07.068-.116zm-.191.05c-.052.012-.044.035-.046.06 0 .02.003.043-.04.042-.042-.002-.046-.027-.037-.044.033-.057-.108-.052-.084-.109.043-.043.098-.085.1-.143.001-.004.052-.008.051.006 0 .05.036.083.084.117.017.013.027.061-.028.072zm.173 5.878c-.088-.016-.053-.061-.06-.097-.004-.019.013-.05-.016-.054-.095-.015-.066-.065-.061-.102.007-.074-.064-.057-.12-.057-.058 0-.132-.016-.117.057.017.085-.12.144-.081.233 0 .001-.004.005-.008.005-.1.015-.05.072-.065.112.003.027-.007.075.01.08.094.028.064.081.07.127 0 .011.003.031.008.032.1.013.07.067.065.107-.009.068.056.057.11.053.05-.004.133.029.127-.052-.003-.031-.028-.08.021-.093.061-.016.054-.04.057-.071.004-.036-.025-.081.062-.096.029-.003.026-.179-.002-.184zm-.145.121c-.066.026-.078.063-.08.11-.002.016-.059.014-.058.004.006-.06-.066-.09-.101-.136.028-.054.11-.088.101-.148a.086.086 0 01.031-.007c.028 0 .033.015.032.03-.002.035.002.063.064.078.033.008.027.063.011.07zm2.258-6.044c-.008-.03.023-.083-.018-.094-.087-.023-.054-.067-.062-.105-.003-.017-.004-.046-.012-.047-.093-.013-.068-.064-.063-.1.012-.082-.067-.057-.126-.062-.072-.005-.119.003-.107.066.014.081-.119.138-.085.224.001.003-.019.009-.029.014-.043.026-.07.179-.027.19.085.023.06.065.065.105.001.017.002.046.01.047.09.014.072.063.066.101-.016.08.065.058.124.062.07.005.12 0 .108-.065-.015-.081.12-.138.081-.225 0 0 .005-.006.01-.006.089-.014.059-.063.065-.105zm-.16.016c-.031.03-.093.068-.09.128 0 0-.051.007-.05-.007.003-.052-.04-.084-.083-.123-.017-.017-.023-.06.048-.07.07-.01-.027-.098.07-.094.074.004-.007.08.058.094.051.01.053.028.048.072zm.14 5.91c-.077-.016-.056-.055-.062-.089-.01-.072-.116-.127-.08-.208.001-.002-.024-.012-.039-.014-.132-.023-.18.001-.187.094 0 .016-.003.044-.013.047-.095.017-.058.07-.064.11-.003.016.006.041-.02.045-.097.016-.047.068-.062.103.011.034-.026.084.021.096.082.022.054.062.06.097.003.018-.002.047.007.049.092.02.075.072.07.117-.007.073.068.048.116.048.05 0 .123.022.117-.05-.004-.032-.028-.085.018-.094.074-.016.053-.048.057-.08.002-.034-.016-.072.061-.087.03-.005.03-.178 0-.184zm-.223.234s-.021.006-.032.007c-.026.001-.035-.01-.035-.026.002-.038.007-.074-.067-.084-.01-.002-.022-.053-.007-.063.047-.033.088-.064.081-.115-.001-.014.033-.01.053-.01-.01.063.073.099.105.155-.04.044-.113.077-.098.136z" fill="#CB0101"/><path fill-rule="evenodd" clip-rule="evenodd" d="M5.629 7.973c0-.025.003-.051 0-.076-.008-.041.017-.053.075-.052.052 0 .086.004.08.049-.005.042.001.085-.001.127-.002.037.024.08-.076.081-.097.001-.078-.04-.078-.078v-.05z" fill="#CC0404"/><path fill-rule="evenodd" clip-rule="evenodd" d="M4.388 7.968c0-.029.002-.058-.001-.085-.004-.048.046-.036.083-.038.04 0 .073-.002.071.038a1.03 1.03 0 000 .153c.004.042-.005.067-.083.065-.079 0-.071-.032-.07-.065v-.068z" fill="#CC0202"/><path fill-rule="evenodd" clip-rule="evenodd" d="M5.783 16.67c0 .024-.002.05 0 .076.007.04-.015.053-.074.053-.064 0-.087-.013-.081-.057.005-.045.002-.09 0-.136-.002-.038-.001-.063.074-.065.08 0 .086.028.081.069-.002.02 0 .04 0 .06z" fill="#CC0404"/><path fill-rule="evenodd" clip-rule="evenodd" d="M4.54 16.678v.086c.004.048-.048.033-.084.036-.04.002-.072 0-.069-.04.003-.05.002-.1 0-.152 0-.035-.004-.064.074-.065.08-.001.085.027.08.068-.002.022 0 .045 0 .067z" fill="#CC0202"/><path fill-rule="evenodd" clip-rule="evenodd" d="M4.768 12.553c-.018-.049.077-.08.116-.126.045-.054.055-.16.001-.21-.054-.048-.133-.094-.112-.17.01-.031.005-.056.066-.054.05.003.104-.004.091.052-.012.054.108.06.09.118.049-.007.116.04.143-.032.017-.043.09-.066.086-.124 0-.021.065-.01.1-.012.038-.002.041.016.05.037.029.084-.065.13-.118.187-.038.04-.039.167-.002.206.05.054.145.094.122.177-.01.035-.021.05-.075.048-.045-.002-.088.006-.09-.045-.002-.049-.098-.127-.142-.128-.115-.005-.126.072-.155.115-.025.038-.03.059-.097.06-.096 0-.058-.047-.074-.1z" fill="#CB0101"/><path fill-rule="evenodd" clip-rule="evenodd" d="M4.617 12.313c0-.03.003-.062-.001-.093-.006-.043.022-.053.079-.053.053 0 .086.006.083.051a1.508 1.508 0 000 .205c.002.043-.024.053-.08.053-.053-.001-.087-.007-.082-.052.004-.035 0-.073 0-.11z" fill="#CE0F0F"/><path fill-rule="evenodd" clip-rule="evenodd" d="M5.55 12.322c0 .032-.003.064.001.094.005.043-.012.061-.08.06-.063 0-.077-.017-.076-.055a1.71 1.71 0 000-.198c-.002-.04.015-.055.075-.055.07-.002.086.018.081.06-.004.03 0 .062 0 .094z" fill="#CC0303"/><path fill-rule="evenodd" clip-rule="evenodd" d="M5.008 11.912c0-.028.002-.056-.001-.084-.004-.04.032-.039.07-.037.04 0 .087-.01.084.037a1.036 1.036 0 00.001.154c.003.043-.008.066-.084.065-.082 0-.071-.033-.071-.067v-.068zm.152.82v.085c.005.048-.045.034-.082.037-.041.002-.074 0-.072-.038.004-.051.002-.102 0-.153 0-.035-.007-.065.072-.066.078 0 .088.024.083.066-.003.023 0 .046 0 .07z" fill="#CC0202"/></svg>