<svg width="197" height="196" fill="none" xmlns="http://www.w3.org/2000/svg"><path fill-rule="evenodd" clip-rule="evenodd" d="M67.35 188.196a23.566 23.566 0 10-33.946-.856l.004.004c.267.298.534.565.828.86a23.567 23.567 0 0033.113-.008zm-33.466.363l-.351.355a24.565 24.565 0 0034.951-34.523l-.085-.089a.497.497 0 00-.142-.332c-11.197-11.471-17.468-26.852-17.466-42.834.001-15.982 6.275-31.288 17.472-42.627 11.196-11.338 26.421-17.805 42.401-18.007 15.979-.202 31.436 5.877 43.046 16.929a.5.5 0 00.293.135c.142.146.285.289.429.433l.004.004.354-.353-.352.355A24.566 24.566 0 10188.28 32.4a.5.5 0 00-.096-.131C167.348 11.896 139.365.515 110.307.596 81.249.676 53.46 12.214 32.97 32.704 12.48 53.194.943 80.983.862 110.04c-.08 29.058 11.3 57.04 31.673 77.876l.023-.022.094.104.013.014c.286.319.571.605.861.895l.004.004.354-.353zm-5.192-6.296a24.801 24.801 0 01-2.556-11.882 24.568 24.568 0 017.626-16.94 24.585 24.585 0 0117.314-6.748 24.828 24.828 0 0112.66 3.703 62.32 62.32 0 01-13.945-39.26c.001-16.244 6.378-31.803 17.76-43.33 11.382-11.526 26.859-18.098 43.1-18.304a62.309 62.309 0 0139.956 13.875 24.81 24.81 0 01-3.669-13.17 24.566 24.566 0 017.02-17.023 24.565 24.565 0 0116.882-7.349 24.8 24.8 0 0111.655 2.56c-20.019-17.302-45.65-26.873-72.185-26.8-28.795.081-56.33 11.513-76.633 31.816C13.375 53.713 1.943 81.249 1.862 110.043c-.074 26.551 9.509 52.196 26.83 72.22zM195.258 50.816a23.561 23.561 0 01-23.559 23.27 23.565 23.565 0 01-16.557-6.791c-.294-.295-.562-.562-.828-.86l-.004-.004a23.567 23.567 0 011.256-33.09 23.566 23.566 0 0139.692 17.475z" fill="#0C131E" fill-opacity=".15"/></svg>