<svg width="227" height="227" fill="none" xmlns="http://www.w3.org/2000/svg"><path d="M100.474 220.017l.482-.134-.482.134zm119.41-119.41l.134-.482-.134.482zm-145.912 30.63l.058.496-.058-.496zm2.218 1.467l-.482.134.482-.134zm54.788-58.629l-.497-.057.497.057zm1.467 2.213l.134-.482-.134.482zm-.97-2.155c2.217-19.216-4.044-39.227-18.786-53.969l-.707.707c14.517 14.517 20.683 34.221 18.499 53.147l.994.115zm-18.786-53.969c-25.627-25.627-67.177-25.627-92.804 0l.707.707c25.236-25.236 66.153-25.236 91.39 0l.707-.707zm-92.804 0c-25.628 25.627-25.628 67.177 0 92.805l.707-.707c-25.237-25.237-25.237-66.154 0-91.39l-.707-.708zm0 92.805c14.787 14.787 34.875 21.041 54.145 18.764l-.117-.993c-18.98 2.243-38.76-3.917-53.321-18.478l-.707.707zm55.823 19.869l24.285 87.313.963-.268-24.284-87.313-.964.268zm24.285 87.313c1.743 6.269 9.598 8.334 14.199 3.733l-.707-.708c-4.06 4.061-10.99 2.239-12.529-3.293l-.963.268zm14.199 3.733l109.559-109.559-.707-.707-109.559 109.558.707.708zm109.559-109.559c4.601-4.602 2.537-12.456-3.733-14.2l-.268.964c5.532 1.538 7.354 8.469 3.294 12.529l.707.707zm-3.733-14.2l-87.439-24.319-.268.964 87.439 24.319.268-.964zM74.03 131.733c.764-.09 1.477.38 1.678 1.105l.964-.268c-.338-1.216-1.522-1.976-2.759-1.83l.117.993zm56.451-57.715c-.142 1.234.617 2.414 1.83 2.752l.268-.964a1.544 1.544 0 01-1.104-1.673l-.994-.115z" fill="#0C131E" fill-opacity=".15"/></svg>