<svg width="32" height="32" fill="none" xmlns="http://www.w3.org/2000/svg"><path d="M5.68 14.693v6.627c0 2.427 0 2.427 2.293 3.973l6.307 3.64c.946.547 2.493.547 3.44 0l6.306-3.64c2.294-1.546 2.294-1.546 2.294-3.973v-6.627c0-2.426 0-2.426-2.294-3.973L17.72 7.08c-.947-.547-2.494-.547-3.44 0l-6.307 3.64C5.68 12.267 5.68 12.267 5.68 14.693z" stroke="#D9A87D" stroke-width="2" stroke-linecap="round" stroke-linejoin="round"/><path d="M23.333 10.173V6.667c0-2.667-1.334-4-4-4h-6.667c-2.667 0-4 1.333-4 4v3.413m7.979 4.974l.58.851a.885.885 0 00.447.306l1.037.249c.641.153.814.67.397 1.148l-.681.774a.824.824 0 00-.173.498l.06 1.004c.041.622-.426.937-1.037.708l-.996-.373a.93.93 0 00-.56 0l-.996.373c-.61.23-1.078-.096-1.037-.708l.06-1.004a.804.804 0 00-.172-.498l-.681-.774c-.417-.479-.244-.995.396-1.148l1.038-.249a.858.858 0 00.447-.306l.58-.851c.366-.516.935-.516 1.291 0z" stroke="#D9A87D" stroke-width="2" stroke-linecap="round" stroke-linejoin="round"/></svg>