<svg width="210" height="88" fill="none" xmlns="http://www.w3.org/2000/svg"><g clip-path="url(#clip0_3_3635)"><path d="M145.571 56.038c10.082-5.353 12.496-12.111 9.399-14.013-4.57-2.574-17.15 2.034-15.701 14.69-.623.372-1.874 1.057-1.874 1.057l.822 2.55s1.763-1.06 2.216-1.377c1.477 1.201 2.243 1.862 4.514 1.922 4.857.112 9.03-5.325 9.03-5.325l-1.218-1.922c.026-.016-5.314 5.169-7.188 2.418zm1.338-7.759c1.445-2.574 3.776-4.58 4.939-3.78 1.164.801-1.163 4.87-6.587 9.21-.226-.39.199-2.832 1.648-5.43zM54.256 60.851a3.8 3.8 0 01-2.64-1.117c-2.415-2.55-.144-11.167.337-13.028a.27.27 0 00-.254-.345.296.296 0 00-.254.144C50.42 48.595 44.885 60.851 40 60.851h-.285c-4.742-.46-4.114-7.047-2.641-11.054h7.64c-.623 1.717-.822 2.802-.822 3.379.028.4.37.628.679.46.794-.432 2.1-2.15 3.236-4.124 2.045-3.635 4.714-9.076 9.304-22.845h8.359c-2.47 7.67-4.487 14.602-5.58 22.529a.464.464 0 00.243.48.454.454 0 00.528-.08c2.383-2.262 11.118-21.272 11.639-22.93h8.406s-8.263 23.046-7.58 26.91a.687.687 0 00.51.608.674.674 0 00.737-.292c.484-.6 1.167-1.489 1.647-2.034l1.192 1.202c-2.383 2.974-6.274 8.327-10.134 7.699a3.23 3.23 0 01-1.628-.885c-4.03-3.52 1.588-15.315 2.585-18.093.226-.6.425-1.173.568-1.517a.284.284 0 00-.132-.34.277.277 0 00-.272.005.296.296 0 00-.108.106c-.199.429-.711 1.546-.91 1.918-2.477 5.18-8.212 18.898-12.925 18.898zm78.938-28.287a9.055 9.055 0 00-6.108 2.23l.06 2.263s2.668-2.72 5.452-1.546c1.815.745 3.177 2.89 2.156 6.642-.055.229-.171.66-.226.89-.794-1.718-3.749-3.036-7.867.111-3.009 2.29-3.776 4.725-4.368 6.702-.853 2.891-.794 6.006-.143 7.872a5.532 5.532 0 001.238 1.94 5.477 5.477 0 001.915 1.263c6.814 2.606 12.183-8.008 13.827-15.659 1.048-4.836 1.843-12.568-5.936-12.708zm-3.666 23.246c-.766.517-2.072.745-2.271-1.633-.254-3.408 2.216-7.415 2.954-8.36 1.279-1.574 3.01-1.658 2.983.8-.028 2.867-1.764 7.932-3.666 9.193zm-20.557-25.224c-4.03-1.4-18.266 3.151-22.972 19.038-.567.172-3.32.861-3.32.861l-1.19 3.263 4.212-1.317s-.456 8.16 6.644 8.408c5.595-.204 8.517-8.504 6.73-14.145-.34.172-4.828 2.346-4.828 2.346s.937 5.529-1.048 6.806a.674.674 0 01-.97-.2c-.567-.8-.936-2.919-.309-5.725 10.249-5.382 17.262-14.814 17.69-18.093a1.109 1.109 0 00-.639-1.241zm-12.75 14.058a23.85 23.85 0 01-3.376 2.206s.536-1.261.937-1.978c1.104-1.858 6.386-9.045 10.817-10.362a.213.213 0 01.279.14.208.208 0 01.003.116c0 1.578-5.619 7.56-8.66 9.878zm21.129 11.739a.216.216 0 00.185.284.211.211 0 00.124-.028 19.63 19.63 0 001.589-1.173l.568 1.745c-.342.373-3.07 2.55-4.766 3.352-1.842.86-3.518-.285-3.776-1.662-.254-1.602.54-3.692.54-3.692s-2.922 3.38-5.904 5.01a4.097 4.097 0 01-1.962.632c-2.013-.06-2.641-2.002-2.411-3.067.255-1.257 2.983-9.705 3.32-11.078a.24.24 0 00-.076-.201.235.235 0 00-.206-.056c-.826.229-2.982 1.658-2.982 1.658V45.76s6.246-4.296 7.807-4.753c1.449-.4 2.7.429 2.331 2.09-.171 1.145-4.233 11.079-4.233 12.34a.202.202 0 00.011.1c.012.032.032.06.057.083a.212.212 0 00.19.045c1.163-.344 3.292-2.174 4.912-4.78 1.533-2.435 2.553-5.498 3.832-9.305h5.424c-.004.028-4.122 12.712-4.574 14.802zm56.645-11.912c.115 1.778-1.561 11.139-8.376 14.89-2.016 1.117-3.378 1.546-4.602 1.49-2.894-.088-4.256-2.462-4.57-3.235-3.319-8.304 6.389-16.015 6.389-16.015h5.623s-8.577 6.902-7.382 13.028c.937 3.72 4.368 1.918 6.274-2.29.369-.833 2.668-6.358 1.223-6.442-1.278-.088-2.982 2.634-2.982 2.634l-1.191-1.833c.937-1.202 3.549-4.352 6.476-5.354.476-.136 3.09-.68 3.118 3.127zm-94.25 11.856c.444 0 .878.132 1.247.38a2.28 2.28 0 01.34 3.48 2.237 2.237 0 01-2.445.492 2.247 2.247 0 01-1.007-.834 2.275 2.275 0 01-.378-1.256 2.263 2.263 0 01.652-1.605 2.225 2.225 0 011.591-.657z" fill="#E31235"/></g><defs><clipPath id="clip0_3_3635"><path fill="#fff" transform="translate(36 18)" d="M0 0h138v52H0z"/></clipPath></defs></svg>