<svg width="210" height="88" fill="none" xmlns="http://www.w3.org/2000/svg"><g clip-path="url(#clip0_3_977)"><path d="M81.57 38.86l3.576-2.55H73.18v15.325h11.966v-2.55h-8.552v-3.926h7.295v-2.553h-7.295V38.86h4.975zm-17.425 3.422H59.99V38.86h6.635l3.577-2.554H56.576v15.329h7.13c4 0 6.293-1.756 6.293-4.815 0-2.925-2.08-4.538-5.854-4.538zm-.593 6.802H59.99v-4.248h3.562c2.167 0 3.178.711 3.178 2.124 0 1.444-1.07 2.124-3.178 2.124zm31.29-12.774h-6.515v15.325h3.414v-4.342h3.1c4.159 0 6.743-2.115 6.743-5.5-.003-3.383-2.584-5.483-6.742-5.483zm-.074 8.433h-3.027V38.86h3.027c2.188 0 3.393 1.045 3.393 2.94 0 1.896-1.205 2.943-3.393 2.943zm-44.055 3.574a6.282 6.282 0 01-2.948.714c-3.079 0-5.313-2.128-5.313-5.059 0-2.93 2.234-5.062 5.314-5.062 1.165 0 2.209.319 3.107.94l2.449-1.746-.163-.137c-1.429-1.217-3.34-1.86-5.526-1.86-2.369 0-4.52.774-6.057 2.179-1.545 1.413-2.393 3.404-2.393 5.6 0 2.208.848 4.225 2.387 5.684 1.543 1.46 3.691 2.267 6.045 2.267 2.461 0 4.613-.83 6.07-2.345l-2.21-1.577-.762.402z" fill="#21A038"/><path d="M124.018 40.118l-5.083 8.136h-1.423l-5.197-8.028V51.62h-2.824V36.312h3.568l5.239 8.333 5.197-8.333h3.344v15.312h-2.824V40.117h.003zm20.939 11.505h-3.005l-1.512-3.63h-7.249l-1.491 3.63h-2.867l6.414-15.31h3.208l6.502 15.31zm-5.556-6.148l-2.596-6.28-2.597 6.28h5.193zm10.387 1.377v4.768h-2.824V36.312h5.264c4.991 0 7.114 1.73 7.114 5.184 0 3.565-2.483 5.36-7.114 5.36h-2.44v-.004zm0-8.025v5.51h2.643c2.621 0 3.976-.83 3.976-2.91 0-1.88-1.173-2.603-3.93-2.603h-2.689v.003zm15.27 12.796h-2.824v-15.31h2.824v6.43h2.373l5.083-6.43h3.432l-6.029 7.284 7.003 8.029h-3.617l-5.737-6.627h-2.508v6.624zm23.964-6.627h-7.274v4.112h8.359v2.515h-11.18v-15.31h10.934v2.514h-8.11v3.651h7.274v2.518h-.003zm15.971-6.17h-5.332v12.797h-2.824V38.827h-5.24v-2.515h13.396v2.515z" fill="#FF8000"/><path d="M29.182 36.051a12.95 12.95 0 011.618 2.584l-12.3 8.73-5.139-3.102V40.53l5.14 3.102 10.681-7.582z" fill="#21A038"/><path d="M8.119 44c0-.167.004-.334.013-.5l-3.115-.15c-.01.215-.017.432-.017.65 0 3.588 1.51 6.839 3.954 9.192l2.208-2.126c-1.878-1.811-3.043-4.31-3.043-7.067z" fill="url(#paint0_linear_3_977)"/><path d="M18.499 34.003c.174 0 .347.006.518.014l.156-3c-.224-.011-.45-.017-.674-.017-3.576-.007-7.009 1.363-9.546 3.808l2.208 2.126a10.554 10.554 0 017.338-2.931z" fill="url(#paint1_linear_3_977)"/><path d="M18.5 53.996c-.174 0-.347-.003-.519-.012l-.156 3c.224.01.448.016.674.016 3.728 0 7.103-1.455 9.546-3.808l-2.208-2.126c-1.95 1.88-4.589 2.933-7.338 2.93z" fill="url(#paint2_linear_3_977)"/><path d="M24.353 35.747l2.625-1.863A13.764 13.764 0 0018.5 31v3.004a10.595 10.595 0 015.853 1.743z" fill="url(#paint3_linear_3_977)"/><path d="M32 44c0-.796-.075-1.574-.217-2.33l-2.906 2.062c.002.089.005.177.005.267 0 2.934-1.321 5.578-3.42 7.409l2.095 2.23C30.285 51.261 32 47.822 32 44z" fill="#21A038"/><path d="M18.5 53.996c-3.048 0-5.793-1.272-7.694-3.293l-2.315 2.019a13.506 13.506 0 004.538 3.166A13.864 13.864 0 0018.5 57v-3.004h.001z" fill="url(#paint4_linear_3_977)"/><path d="M11.538 36.59l-2.095-2.231C6.713 36.737 5 40.176 5 43.999h3.119c0-2.936 1.32-5.58 3.42-7.41z" fill="url(#paint5_linear_3_977)"/></g><defs><linearGradient id="paint0_linear_3_977" x1="9.586" y1="52.816" x2="6.401" y2="43.257" gradientUnits="userSpaceOnUse"><stop offset=".144" stop-color="#F2E913"/><stop offset=".304" stop-color="#E7E518"/><stop offset=".582" stop-color="#CADB26"/><stop offset=".891" stop-color="#A3CD39"/></linearGradient><linearGradient id="paint1_linear_3_977" x1="9.844" y1="35.339" x2="18.534" y2="31.9" gradientUnits="userSpaceOnUse"><stop offset=".059" stop-color="#0FA8E0"/><stop offset=".538" stop-color="#0099F9"/><stop offset=".923" stop-color="#0291EB"/></linearGradient><linearGradient id="paint2_linear_3_977" x1="17.619" y1="55.187" x2="27.506" y2="52.867" gradientUnits="userSpaceOnUse"><stop offset=".123" stop-color="#A3CD39"/><stop offset=".285" stop-color="#86C339"/><stop offset=".869" stop-color="#21A038"/></linearGradient><linearGradient id="paint3_linear_3_977" x1="17.848" y1="32.006" x2="26.276" y2="34.706" gradientUnits="userSpaceOnUse"><stop offset=".057" stop-color="#0291EB"/><stop offset=".79" stop-color="#0C8ACB"/></linearGradient><linearGradient id="paint4_linear_3_977" x1="9.273" y1="52.356" x2="18.421" y2="55.905" gradientUnits="userSpaceOnUse"><stop offset=".132" stop-color="#F2E913"/><stop offset=".298" stop-color="#EBE716"/><stop offset=".531" stop-color="#D9E01F"/><stop offset=".802" stop-color="#BBD62D"/><stop offset=".983" stop-color="#A3CD39"/></linearGradient><linearGradient id="paint5_linear_3_977" x1="6.162" y1="44.363" x2="9.633" y2="34.987" gradientUnits="userSpaceOnUse"><stop offset=".07" stop-color="#A3CD39"/><stop offset=".26" stop-color="#81C55F"/><stop offset=".922" stop-color="#0FA8E0"/></linearGradient><clipPath id="clip0_3_977"><path fill="#fff" transform="translate(5 31)" d="M0 0h200v26H0z"/></clipPath></defs></svg>