<svg width="210" height="88" fill="none" xmlns="http://www.w3.org/2000/svg"><g clip-path="url(#clip0_3_7620)"><path d="M60.919 54.292V26.486h16.015v3.486H64.235v8.55H75.64v3.486H64.236v8.715h13.588v3.486H60.92v.083zm33.728 0l-5.5-7.387-5.5 7.387h-3.882l7.522-9.877-7.927-10.21h4.368l5.42 7.637 5.5-7.637h4.286l-7.522 10.21 7.117 9.877h-3.882zm9.22-2.988V65h-3.316V44.498c0-5.23 3.883-10.79 9.949-10.79 6.147 0 10.757 3.984 10.757 10.541 0 6.391-4.691 10.79-10.029 10.79-2.588 0-6.066-1.162-7.361-3.735zm13.912-7.055c0-4.482-2.831-7.138-7.845-6.89-2.427.084-6.147 1.91-5.824 8.301.081 2.075 2.184 5.976 6.794 5.976 3.963 0 6.875-2.324 6.875-7.387zm6.309 10.043V34.206h3.316v2.159c1.618-1.91 4.125-2.573 6.794-2.573v3.652c-.404-.083-4.367-.581-6.794 4.73v12.203h-3.316v-.084zm11-10.043c0-5.81 4.044-10.541 9.625-10.541 6.956 0 9.544 4.73 9.544 10.79v1.66h-15.529c.242 3.818 3.558 5.81 6.632 5.727 2.265-.083 3.801-.747 5.419-2.407l2.184 2.324c-2.022 1.992-4.61 3.32-7.765 3.32-5.904-.083-10.11-4.565-10.11-10.873zm9.382-7.138c-3.154 0-5.581 2.822-5.742 5.893h12.051c0-2.988-2.103-5.893-6.309-5.893zm11.486 14.359l2.426-2.24c-.081 0 1.213 1.327 1.375 1.41.566.498 1.132.83 1.86.996 2.103.581 5.905.415 6.228-2.573.162-1.66-1.051-2.573-2.426-3.154-1.78-.664-3.721-.913-5.5-1.743-2.022-.913-3.316-2.49-3.316-4.814 0-6.06 8.411-7.056 12.213-4.233.162.166 2.022 1.909 1.941 1.909l-2.426 1.992c-1.214-1.494-2.346-2.241-4.934-2.241-1.294 0-3.074.58-3.397 1.992-.486 1.992 1.698 2.739 3.154 3.154 1.941.498 4.044.83 5.743 1.909 2.345 1.494 2.912 4.731 2.022 7.221-.971 2.74-3.883 3.818-6.471 3.901-3.073.166-5.742-.83-7.926-3.07-.162 0-.566-.416-.566-.416zm17.066 0l2.426-2.24c-.08 0 1.214 1.327 1.375 1.41.567.498 1.133.83 1.861.996 2.103.581 5.904.415 6.228-2.573.161-1.66-1.052-2.573-2.427-3.154-1.779-.664-3.72-.913-5.5-1.743-2.022-.913-3.316-2.49-3.316-4.814 0-6.06 8.412-7.056 12.213-4.233.162.166 2.022 1.909 1.941 1.909l-2.426 1.992c-1.213-1.494-2.346-2.241-4.934-2.241-1.294 0-3.073.58-3.397 1.992-.485 1.992 1.699 2.739 3.154 3.154 1.942.498 4.045.83 5.743 1.909 2.346 1.494 2.912 4.731 2.022 7.221-.97 2.74-3.882 3.818-6.47 3.901-3.074.166-5.743-.83-7.927-3.07-.162 0-.566-.416-.566-.416zm15.772-17.264v-2.159h-.728v-.415h1.941v.415h-.728v2.159h-.485zm3.64 0v-1.993l-.728 1.992h-.162l-.728-1.992v1.992h-.404v-2.573h.647l.647 1.743.647-1.743H193v2.573h-.566z" fill="#E43225"/><path d="M38.434 54.292l-2.427-6.64H22.904l-2.426 6.64H17l10.515-27.806h3.801L41.75 54.292h-3.316zm-9.14-23.822L24.36 44.25h10.272l-5.338-13.78zm14.64 23.822V26.486h3.397v27.806h-3.397zm8.492 0V34.621h3.397v19.671h-3.397zm6.633-26.062v-.333c-2.588-.083-4.691-2.24-4.772-4.897H53.8c-.08 2.656-2.184 4.814-4.772 4.897v.332c2.588.083 4.691 2.241 4.772 4.898h.486c.08-2.657 2.184-4.815 4.772-4.898z" fill="#F7971D"/></g><defs><clipPath id="clip0_3_7620"><path fill="#fff" transform="translate(17 23)" d="M0 0h176v42H0z"/></clipPath></defs></svg>