<svg width="210" height="88" fill="none" xmlns="http://www.w3.org/2000/svg"><g clip-path="url(#clip0_3_7997)"><g clip-path="url(#clip1_3_7997)" fill-rule="evenodd" clip-rule="evenodd"><path d="M78.765 52.089c2.27 0 4.088-.637 5.515-1.912 1.392-1.147 2.305-2.613 2.802-4.397.48-1.721.384-3.188-.351-4.398-.734-1.211-2.197-1.848-4.467-1.848-2.271 0-4.088.637-5.498 1.848a8.757 8.757 0 00-2.802 4.398c-.498 1.785-.401 3.25.35 4.397.718 1.275 2.18 1.912 4.451 1.912zm.852-3.06c-.693 0-1.19-.254-1.39-.891-.22-.573-.195-1.339.089-2.358.266-.957.67-1.721 1.225-2.36.538-.572 1.176-.828 1.87-.828.695 0 1.191.255 1.41.829.2.638.176 1.402-.09 2.359-.284 1.02-.687 1.785-1.225 2.358-.556.636-1.194.892-1.889.892zm111.993-.604c-.631 0-1.002-.255-1.175-.765-.236-.51-.248-1.147-.017-1.976.232-.83.616-1.529 1.118-1.976.458-.51 1.015-.701 1.601-.764 1.325 0 1.752.956 1.3 2.804-.231.828-.598 1.466-1.056 1.976-.583.51-1.141.7-1.771.7zm-3.973-8.604l-4.422 15.87h4.54l1.457-5.227c.473 1.02 1.34 1.53 2.475 1.53 1.387 0 2.773-.446 4.193-1.466a8.301 8.301 0 001.811-1.976c.512-.7.922-1.721 1.304-2.868.462-1.657.429-3.123-.117-4.334-.545-1.211-1.693-1.849-3.458-1.849-.694 0-1.378.192-2.16.51-.783.319-1.448.893-2.021 1.594h-.064l.497-1.784h-4.035zm-3.742 7.008c.603-2.168.596-3.952-.229-5.29-.762-1.34-2.27-2.04-4.414-2.04-1.829 0-3.502.573-5.021 1.72-1.581 1.148-2.638 2.678-3.206 4.717-.533 1.912-.329 3.442.648 4.461.897 1.084 2.269 1.593 4.161 1.593 1.387 0 2.72-.255 4.078-.828s2.462-1.593 3.313-3.06h-4.352c-.215.32-.538.574-.907.765-.305.191-.702.255-1.08.255-.631 0-1.082-.19-1.399-.637-.318-.446-.364-.956-.17-1.657h8.578v.001zm-7.921-2.359c.374-1.338 1.263-2.04 2.668-2.103.549.064 1.001.255 1.21.637.272.383.382.893.221 1.466h-4.099zm-15.386 7.255l2.362-8.477h-3.911l.959-3.442h12.361l-.957 3.442h-3.912l-2.361 8.477h-4.541zm-2.143-7.394c.227-1.72-.111-2.996-1.096-3.76-1.003-.702-2.284-1.084-3.798-1.084-1.955 0-3.611.51-5.129 1.657-1.5 1.084-2.575 2.677-3.143 4.716-.551 1.976-.347 3.506.613 4.59.915 1.02 2.268 1.593 4.161 1.593 1.576 0 3.134-.383 4.482-1.147a7.24 7.24 0 001.877-1.53c.556-.637.958-1.402 1.333-2.294h-4.542a3.325 3.325 0 01-.842 1.21c-.358.383-.853.574-1.421.574-.693 0-1.127-.254-1.283-.828-.173-.51-.167-1.212.1-2.168.089-.318.258-.7.429-1.083.169-.383.339-.765.553-1.084.215-.319.539-.573.844-.765a2.005 2.005 0 011.098-.318c.504 0 .829.19.993.509.244.255.246.702.167 1.211h4.604zm-22.049 5.034c-1.01 0-1.425-.32-1.247-.956.106-.383.321-.702.627-.893a2.5 2.5 0 01.989-.382c.351-.127.81-.191 1.207-.255.477-.128.891-.255 1.368-.382-.169.828-.472 1.465-.947 2.04-.539.573-1.178.828-1.997.828zm6.614 2.294l.053-.191a.986.986 0 01-.292-.765 2.327 2.327 0 01.087-.765l1.545-5.545c.196-.702.373-1.338.425-1.976a2.25 2.25 0 00-.268-1.53c-.254-.446-.733-.765-1.482-1.02-.748-.254-1.786-.382-3.173-.382-2.144 0-3.891.383-5.077 1.02-1.205.701-1.93 1.72-2.286 2.995h4.478c.268-.51.546-.829.915-1.02.414-.127.684-.191.999-.191.315 0 .614.064.956.19.281.129.399.383.337.83-.205.51-.735.829-1.59.956-.397.064-.856.128-1.315.191a17.84 17.84 0 00-1.647.255c-.505 0-1.045.127-1.54.318-.54.128-1.116.383-1.565.637-.449.254-.871.638-1.248 1.084-.376.446-.662 1.02-.857 1.72-.32 1.148-.128 2.04.533 2.614.579.637 1.454.892 2.526.892.883 0 1.657-.063 2.359-.319.765-.254 1.52-.7 2.31-1.274l-.102 1.274h4.919v.002zm-39.149.066l2.362-8.477h-3.973l.959-3.442h12.424l-.959 3.442h-3.973l-2.362 8.477h-4.478zm-9.945-3.3c-.63 0-1-.255-1.174-.765-.237-.51-.249-1.147-.017-1.976.23-.828.615-1.529 1.118-1.976.458-.51 1.015-.701 1.6-.764 1.325 0 1.752.956 1.3 2.804-.23.828-.598 1.466-1.055 1.976-.583.51-1.141.7-1.772.7zm-3.971-8.604l-4.423 15.87h4.542l1.456-5.227c.472 1.02 1.34 1.53 2.475 1.53 1.387 0 2.773-.446 4.192-1.466A8.31 8.31 0 00100 48.552c.511-.7.921-1.721 1.304-2.868.462-1.657.429-3.123-.116-4.334-.546-1.211-1.694-1.849-3.46-1.849-.693 0-1.377.192-2.16.51-.782.319-1.447.893-2.02 1.594h-.064l.498-1.784h-4.036zM58.162 51.725h4.479L65 43.248h3.596l-2.362 8.477h4.541l3.321-11.92H61.483l-3.32 11.92zm.673-7.394c.227-1.72-.112-2.996-1.097-3.76-1.002-.702-2.283-1.084-3.798-1.084-1.955 0-3.61.51-5.128 1.657-1.5 1.084-2.575 2.677-3.143 4.716-.55 1.976-.346 3.506.613 4.59.914 1.02 2.268 1.593 4.16 1.593 1.576 0 3.134-.383 4.482-1.147a7.26 7.26 0 001.877-1.53c.556-.637.959-1.402 1.334-2.294h-4.542a3.318 3.318 0 01-.842 1.21c-.358.383-.853.574-1.42.574-.695 0-1.128-.254-1.284-.828-.173-.51-.167-1.212.1-2.168.089-.318.258-.7.428-1.083.17-.383.34-.765.554-1.084.215-.319.538-.573.844-.765a2.006 2.006 0 011.098-.318c.505 0 .83.19.994.509.243.255.245.702.166 1.211h4.604z" fill="#505E86"/><path d="M117.833 36.102l3.1 14.588 11.303-14.685-9.01 6.396-5.393-6.299z" fill="#CC2229"/><path d="M116.9 39.815l-3.359 11.878h5.814L116.9 39.815zm14.271 0l-8.978 11.878h5.62l3.358-11.878z" fill="#505E86"/><path d="M44.652 33.584l-10.98 12.583L9.273 33.689l23.064 4.915 12.315-5.02z" fill="#CC2229"/><path d="M11.468 58.382l12.868-14.746L52.93 58.26 25.9 52.5l-14.432 5.883zm20.147-29.37c-2.111.173-3.694 2.055-3.523 4.19.171 2.134 2.033 3.734 4.144 3.56 2.113-.172 3.695-2.054 3.524-4.188-.17-2.134-2.033-3.734-4.145-3.561z" fill="#505E86"/></g></g><defs><clipPath id="clip0_3_7997"><path fill="#fff" d="M0 0h210v88H0z"/></clipPath><clipPath id="clip1_3_7997"><path fill="#fff" transform="translate(-2 29)" d="M0 0h214v30H0z"/></clipPath></defs></svg>