<svg width="210" height="88" fill="none" xmlns="http://www.w3.org/2000/svg"><g clip-path="url(#clip0_1305_3581)"><path fill-rule="evenodd" clip-rule="evenodd" d="M182.325 49.565l-3.38-8.924h-3.258v12.174h2.753v-6.874s1.688 4.597 2.393 6.582l.111.324h2.762l.111-.324a986.747 986.747 0 012.393-6.582v6.874h2.754V40.641h-3.259s-3.304 8.728-3.38 8.924zm-75.326-8.949h-9.92V43.3h3.465v9.468h2.991V43.29h3.464v-2.675zm19.884 2.732c-.175 1.95-.382 4.3-.593 6.245a7.165 7.165 0 01-.388 1.646c-.33.912-.994 1.492-1.965 1.656a5.846 5.846 0 01-2.42-.112l.41-2.676c.129.023.238.045.347.063.728.122 1.081-.127 1.153-.864.245-2.485.477-4.972.715-7.458 0 0 .074-.816.115-1.232h9.481v12.17h-2.961V43.41c-.188 0-2.921.007-3.949-.005l.055-.057zm-72.673 9.47V35.596h7.795c1.982 0 3.554.492 4.713 1.477 1.16.985 1.739 2.366 1.739 4.144 0 1.777-.58 3.155-1.739 4.131-1.159.976-2.73 1.466-4.713 1.466h-4.557v6.004h-3.237zm3.238-14.316v5.405h4.462c1.103 0 1.93-.237 2.482-.709.551-.472.828-1.132.828-1.981 0-.849-.277-1.514-.828-1.994-.552-.48-1.38-.72-2.482-.72h-4.462zm22.902 3.483c1.32 1.138 1.979 2.714 1.979 4.732 0 2.018-.66 3.595-1.979 4.732s-2.883 1.706-4.69 1.706c-1.805 0-3.365-.569-4.675-1.706-1.313-1.137-1.968-2.714-1.968-4.732 0-2.018.655-3.594 1.968-4.732 1.31-1.137 2.87-1.705 4.676-1.705s3.37.568 4.689 1.705zM73.19 49.3c.688.65 1.511.974 2.47.974.96 0 1.787-.325 2.483-.974.695-.648 1.044-1.508 1.044-2.582 0-1.073-.349-1.93-1.044-2.57-.696-.64-1.523-.96-2.482-.96-.96 0-1.783.32-2.47.96-.688.64-1.032 1.497-1.032 2.57 0 1.074.344 1.934 1.032 2.582zm20.063-1.286l2.519 1.633c-1.168 2.339-3.071 3.508-5.709 3.508-1.838 0-3.366-.592-4.581-1.778-1.215-1.185-1.823-2.738-1.823-4.66 0-1.905.624-3.455 1.872-4.648 1.246-1.192 2.758-1.79 4.532-1.79 1.343 0 2.502.29 3.477.865a4.944 4.944 0 012.112 2.45l-2.543 1.682c-.64-1.393-1.663-2.09-3.07-2.09-.928 0-1.698.325-2.315.973-.615.65-.923 1.501-.923 2.558 0 1.073.303 1.934.912 2.583.608.648 1.383.972 2.326.972.783 0 1.423-.188 1.919-.564.495-.377.927-.94 1.295-1.694zm27.107-.552h-9.378c.095.929.447 1.67 1.055 2.222.607.552 1.368.828 2.28.828 1.486 0 2.605-.745 3.357-2.234L120 49.6c-1.151 2.37-3.062 3.555-5.733 3.555-1.743 0-3.221-.6-4.437-1.801-1.215-1.201-1.822-2.746-1.822-4.636 0-1.89.616-3.435 1.847-4.636 1.23-1.2 2.75-1.801 4.557-1.801 1.742 0 3.169.572 4.281 1.718 1.111 1.144 1.667 2.605 1.667 4.383v1.08zm-6.043-4.828c-.801 0-1.501.244-2.1.732a3.713 3.713 0 00-1.235 1.838h6.523c-.144-.801-.496-1.43-1.054-1.885-.561-.457-1.272-.685-2.134-.685zm33.376 4.828h-9.377c.095.929.446 1.67 1.056 2.222.606.552 1.366.828 2.278.828 1.486 0 2.606-.745 3.358-2.234l2.326 1.321c-1.152 2.37-3.063 3.555-5.733 3.555-1.742 0-3.221-.6-4.437-1.801-1.215-1.201-1.822-2.746-1.822-4.636 0-1.89.615-3.435 1.847-4.636 1.23-1.2 2.75-1.801 4.556-1.801 1.743 0 3.171.572 4.282 1.718 1.111 1.144 1.666 2.605 1.666 4.383v1.08zm-6.043-4.828c-.8 0-1.499.244-2.099.732a3.72 3.72 0 00-1.235 1.838h6.523c-.144-.801-.495-1.43-1.055-1.885-.56-.457-1.271-.685-2.134-.685zm30.454-.649c1.319 1.138 1.978 2.714 1.978 4.732 0 2.018-.659 3.595-1.978 4.732s-2.884 1.706-4.69 1.706c-1.806 0-3.365-.569-4.675-1.706-1.313-1.137-1.968-2.714-1.968-4.732 0-2.018.655-3.594 1.968-4.732 1.31-1.137 2.869-1.705 4.675-1.705 1.806 0 3.371.568 4.69 1.705zm-7.16 7.314c.688.65 1.511.974 2.47.974.959 0 1.787-.325 2.483-.974.695-.648 1.044-1.508 1.044-2.582 0-1.073-.349-1.93-1.044-2.57-.696-.64-1.524-.96-2.483-.96-.959 0-1.782.32-2.47.96-.687.64-1.032 1.497-1.032 2.57 0 1.074.345 1.934 1.032 2.582z" fill="#000"/><path fill-rule="evenodd" clip-rule="evenodd" d="M161.396 52.76h-3.648l-5.325-6.198h-.042v6.198h-2.936V40.624h2.936v5.723h.042l4.927-5.723h3.501l-5.179 5.787 5.724 6.349z" fill="#000"/><path d="M38.436 62.95l-9.658-9.478-6.36 6.242a1.87 1.87 0 000 2.681 1.95 1.95 0 001.365.555h14.653z" fill="#FF4F12"/><path fill-rule="evenodd" clip-rule="evenodd" d="M44.231 38.307l-13.536-13.27-7.667 7.536a6.573 6.573 0 00-1.977 4.688V60.12c0 1.564 1.292 2.831 2.886 2.831-1.104 0-1.999-.878-1.999-1.96 0-.521.212-1.02.587-1.389a9986.697 9986.697 0 0021.706-21.294z" fill="#7800FF"/></g><defs><clipPath id="clip0_1305_3581"><path fill="#fff" transform="translate(21 25)" d="M0 0h168v38H0z"/></clipPath></defs></svg>