<svg width="210" height="88" fill="none" xmlns="http://www.w3.org/2000/svg"><path d="M56.051 51.502c3.334-.427 6.028-3.147 6.453-6.518a7.646 7.646 0 00-.336-3.418 7.585 7.585 0 00-1.797-2.916 7.488 7.488 0 00-2.887-1.815 7.427 7.427 0 00-3.384-.34c-3.337.43-6.03 3.15-6.454 6.518a7.645 7.645 0 00.337 3.418 7.585 7.585 0 001.797 2.916c.812.82 1.8 1.442 2.887 1.815a7.427 7.427 0 003.384.34zm.455-21.613a14.035 14.035 0 018.49 4.09 14.293 14.293 0 014.05 8.575c.88 8.97-6.523 16.446-15.406 15.557a14.036 14.036 0 01-8.488-4.091 14.293 14.293 0 01-4.05-8.574c-.88-8.97 6.523-16.446 15.404-15.557zm20.074.561h20.556c.782 0 1.223.902.753 1.53L83.666 50.934H94.81c2.031 0 3.63 1.866 3.209 3.993-.308 1.56-1.758 2.624-3.332 2.624H72.363c-.773 0-1.212-.894-.747-1.515L85.85 37.067h-9.146c-1.574 0-3.023-1.066-3.332-2.623-.423-2.127 1.178-3.994 3.21-3.994zm89.209.075c2.121-.45 3.988 1.171 3.988 3.234v22.835c0 .797-.912 1.24-1.529.746l-17.732-14.209v11.116c0 2.062-1.866 3.684-3.988 3.233-1.521-.322-2.563-1.754-2.563-3.322V31.404c0-.798.912-1.241 1.528-.747l17.735 14.21v-11.02c0-1.568 1.045-2.997 2.563-3.322h-.002zm-46.172-.709c10.856 0 19.657 6.349 19.657 14.18 0 7.831-8.801 14.18-19.657 14.18S99.96 51.827 99.96 43.996c0-7.831 8.801-14.18 19.657-14.18zm0 6.618c-7.501 0-13.106 3.993-13.106 7.562 0 3.569 5.605 7.562 13.106 7.562 7.501 0 13.106-3.99 13.106-7.562s-5.605-7.563-13.106-7.563z" fill="#005BFF"/></svg>