<svg width="210" height="88" fill="none" xmlns="http://www.w3.org/2000/svg"><g clip-path="url(#clip0_3_7973)" fill="#754AAA"><path d="M55.748 50.952h5.046V37.18h6.669v-4.732H55.748v18.503zm-10.382-14.67c2.023 0 3.229.882 3.563 2.749h-7.49c.574-1.748 1.987-2.75 3.927-2.75zm-.052 10.546c-2.466 0-4.003-1.61-4.144-4.229h12.512s.078-.951.078-1.93c0-5.55-3.268-8.67-8.394-8.67-5.413 0-9.178 3.992-9.178 9.675 0 5.762 3.713 9.727 9.126 9.727 5.02 0 8.394-2.934 8.499-7.243h-5.021c-.288 1.692-1.517 2.67-3.478 2.67zM182.493 32.45v4.73h5.23v13.772h5.046V37.18H198v-4.732h-15.507zm-155.17 0l-3.472 11.335-3.379-11.336h-5.57L12 50.952h4.628l1.766-11.51 3.412 11.51h3.975l3.533-11.716 1.697 11.716h4.706l-2.902-18.503h-5.491zm47.592 14.643c-1.281 0-1.909-.635-1.909-1.56 0-.872.445-1.427 1.83-1.824l4.368-1.24v.341c0 2.38-1.857 4.283-4.289 4.283zM76.72 32c-5.386 0-8.446 2.67-8.315 7.216h5.23c.026-1.93.993-2.855 3.085-2.855 1.491 0 2.432.635 2.432 1.586 0 .608-.235.846-1.15 1.11l-4.21 1.163c-4.027 1.11-5.831 2.802-5.831 5.63 0 3.304 2.379 5.524 5.883 5.524 2.72 0 4.498-1.11 5.387-3.198v2.776h4.837V38.66c0-4.467-2.797-6.661-7.348-6.661zm87.599.45h-5.569l-3.924 6.872h-2.013v-6.873h-5.046v18.503h5.046v-7.084h1.983l4.215 7.084h5.701l-5.569-9.436 5.176-9.067zm-46.911 14.643c-1.256 0-1.883-.635-1.883-1.56 0-.872.445-1.4 1.83-1.797l4.368-1.241v.316c0 2.51-1.857 4.282-4.315 4.282zM119.238 32c-5.387 0-8.446 2.67-8.315 7.216h5.229c.027-1.93.994-2.855 3.086-2.855 1.491 0 2.432.635 2.432 1.586 0 .608-.235.846-1.15 1.11l-4.211 1.163c-4.027 1.11-5.83 2.802-5.83 5.63 0 3.304 2.379 5.524 5.883 5.524 2.719 0 4.497-1.083 5.386-3.198v2.776h4.838V38.66c0-4.467-2.798-6.661-7.348-6.661zm18.279 14.643c-2.249 0-3.609-1.586-3.609-4.943 0-3.33 1.386-4.969 3.661-4.969 2.144 0 3.425 1.612 3.425 4.97 0 3.488-1.228 4.942-3.477 4.942zM138.929 32c-2.416 0-4.227 1.242-4.943 3.224v-2.775h-5.046V56h5.046v-7.766c.749 1.963 2.548 3.14 4.943 3.14 4.184 0 6.981-3.277 6.981-9.674 0-6.396-2.797-9.7-6.981-9.7zm-37.995.45l-3.473 11.335-3.378-11.336h-5.57L85.61 50.952h4.629l1.765-11.51 3.412 11.51h3.975l3.533-11.716 1.697 11.716h4.707l-2.903-18.503h-5.491z"/><path d="M172.975 36.282c2.023 0 3.228.882 3.562 2.749h-7.49c.574-1.748 1.988-2.75 3.928-2.75zm-.053 10.546c-2.441 0-4.001-1.61-4.144-4.229h12.512s.078-.951.078-1.93c0-5.55-3.268-8.67-8.393-8.67-5.414 0-9.179 3.992-9.179 9.675 0 5.762 3.713 9.727 9.126 9.727 5.021 0 8.394-2.934 8.498-7.243h-5.02c-.287 1.692-1.517 2.67-3.478 2.67z"/></g><defs><clipPath id="clip0_3_7973"><path fill="#fff" transform="translate(12 32)" d="M0 0h186v24H0z"/></clipPath></defs></svg>