<svg width="210" height="88" fill="none" xmlns="http://www.w3.org/2000/svg"><g clip-path="url(#clip0_3_8023)" fill-rule="evenodd" clip-rule="evenodd" fill="#5472E2"><path d="M4 44c0 12.145 9.508 22 21.226 22 11.717 0 21.226-9.855 21.226-22s-9.509-22-21.226-22C13.508 22 4 31.855 4 44zm.75 0c0-11.736 9.192-21.264 20.515-21.264S45.781 32.264 45.781 44c0 11.695-9.193 21.223-20.516 21.223C13.942 65.263 4.75 55.736 4.75 44z"/><path d="M10.628 37.989c5.445-3.68 11.442-5.848 21.62-4.008.553-.327.869-.654 1.026-1.349-2.525-.94-5.287-1.268-8.837-1.227-3.196.082-8.956 1.309-12.033 3.19l.946-1.227c2.17-1.309 7.773-3.026 11.955-3.149 2.959-.04 4.497.123 8.009 1.104-.316-.613-1.026-.94-2.091-1.43-3.393-1.596-9.785-1.718-14.992.654.67-.45 1.301-.86 2.17-1.268 1.735-.818 4.537-1.595 8.048-1.554 2.801.04 6.155 1.063 8.206 3.149.355.409.553.858.631 1.226 1.618.86 2.565 1.636 3.078 2.577.197.49.315 1.022.197 1.594.67.41.986.777 1.341 1.227.237.368.434.818.474 1.227.079.532.118 1.104-.395 1.8.553.285.987 1.062 1.066 1.43.236 1.268-.513 2.495-1.579 3.476-1.183 1.104-3.827 2.372-5.957 2.945-4.261 1.104-8.009 1.594-11.007 2.167 1.341.327 3.156.777 6.154.777 6.352 0 11.954-3.108 11.954-3.108s-.118.409-.236.777c-4.024 2.535-10.455 3.598-13.177 3.476-2.802-.123-5.13-.573-7.418-1.309-.71.205-1.38.41-2.051.736 3.472 1.636 6.115 2.004 9.113 2.25 3.038.245 8.049-.532 12.31-2.127-.197.204-.276.532-.474.695-2.17 1.186-6.786 2.372-9.074 2.454-2.288.081-5.09 0-7.535-.45-2.091-.41-3.827-1.104-5.603-1.922-.315.245-.473.572-.552.94 6.825 3.762 13.375 3.844 20.831 1.432l-.67.695c-8.207 3.435-14.598 2.085-19.57-.368-.157-.082-.354-.164-.512-.246.473.818 4.26 3.68 8.482 4.049 2.92.245 6.47-.286 8.601-1.145l-1.262.654c-1.026.532-3.748 1.718-7.536 1.431-5.05-.368-7.89-2.658-9.193-3.885-.591-.572-.868-1.226-1.065-2.044-1.144-.614-1.854-1.268-2.446-2.208-.355-.573-.276-1.186-.197-1.718l.118-.49c-.552-.41-1.104-.86-1.341-1.309-.513-.94-.198-1.718.158-2.372-.316-.368-.592-.695-.71-1.063a3.69 3.69 0 01-.119-1.309c.079-.776.513-1.513 1.026-2.126 1.104-1.309 2.84-2.33 5.839-3.353 2.92-.981 4.064-1.145 6.273-1.677 2.564-.613 5.642-.818 8.206-1.758-7.14-1.309-14.598-.123-20.634 4.212l.434-1.145zm24.343-4.58c-.08.368-.474.777-.71 1.063.789.205 1.578.49 2.327.818-.118-.736-.907-1.431-1.617-1.881zM12.956 48.212c-.473-.286-.79-.45-1.144-.736-.197.45.197.981.592 1.227.157-.164.355-.328.552-.491zm24.106-9.692c.513.246.986.45 1.42.777.316-.654.118-1.063-.552-1.635-.237.327-.553.613-.868.858zm-1.539.982c-1.026.49-2.564 1.022-4.695 1.595-1.736.45-6.036 1.104-10.652 2.126-1.46.327-5.405 1.309-7.338 2.985.552.45.868.573 1.499.9.789-.532 1.893-1.022 3.511-1.472 2.84-.777 4.932-1.104 7.496-1.554 2.525-.41 7.26-1.431 9.903-2.413.868-.327 1.657-.736 2.249-1.227-.198-.163-1.894-1.022-1.973-.94zM15.64 50.91a8.89 8.89 0 011.38-.695c-.749-.328-1.499-.655-2.248-1.023a4.18 4.18 0 00-.908.696c.592.327 1.145.695 1.776 1.022zm-2.446.245c0 .49.276.94.907 1.472.079-.286.197-.45.395-.695-.474-.245-.868-.532-1.302-.777zm3.59-9.078c5.168-1.554 10.613-2.045 16.136-3.558-2.17-.613-3.314-.858-5.602-.572-3.314.409-6.944 1.145-10.06 2.085-1.224.368-7.655 2.25-5.8 4.907 0 .041 1.104-1.553 5.326-2.862zm19.41-5.48c-.828-.408-1.893-.776-3.037-1.103a6.678 6.678 0 01-1.933 1.104c1.38.245 2.446.654 3.63 1.022.236.122 1.183-.818 1.34-1.023zm2.565 5.153c-.158.123-.315.286-.513.409-1.183.94-3.037 1.677-5.602 2.413-5.326 1.472-9.193 1.717-13.611 2.821-.868.205-1.736.532-2.565.859.829.45 1.697.818 2.604 1.186 1.775-.532 2.643-.777 5.247-1.227a155 155 0 006.234-1.227c3.945-.818 9.745-2.74 8.206-5.234zM66.77 53.61h4.38l.512-3.313h2.999l.513 3.313h4.379l-3.709-19.26H70.4l-3.63 19.26zm6.43-13.454l.83 5.889h-1.618l.789-5.889zm10.535 1.677c.71 0 1.972-.45 1.972-1.881 0-1.677-1.499-1.8-1.893-1.8-.513 0-1.42.082-2.367.532l-.04-4.171c1.46-.368 2.525-.49 3.748-.49 3.511 0 5.129 2.575 5.129 5.07 0 2.453-1.38 3.925-2.683 4.498v.204c1.263.41 2.96 1.677 2.96 4.621 0 3.64-2.447 5.643-5.564 5.643-1.696 0-2.761-.245-4.063-.981l.079-4.008c1.222.532 2.051.573 2.88.573 1.38 0 1.933-1.063 1.933-1.84 0-1.063-.67-1.8-2.13-1.8H81.92v-4.17h1.815zm8.837-7.483h11.797v19.26h-4.34V38.97h-3.117v14.64h-4.34V34.35zm14.243 19.26h4.3v-6.34h1.46c4.261 0 5.602-3.966 5.602-6.502 0-2.494-1.499-6.42-5.602-6.42h-5.76v19.26zm4.3-15.008h1.026c.986 0 1.578.614 1.578 2.208 0 2.086-1.026 2.209-1.578 2.209h-1.026v-4.417zm15.032 15.253c5.129 0 6.825-4.948 6.825-9.896s-1.736-9.896-6.825-9.896c-5.129 0-6.826 4.948-6.826 9.896s1.736 9.896 6.826 9.896zm0-4.662c-1.5 0-2.289-1.84-2.289-5.234s.789-5.234 2.289-5.234c1.538 0 2.288 1.84 2.288 5.234.039 3.394-.75 5.234-2.288 5.234zm25.605 4.417h5.168c1.105 0 5.76-.491 5.8-6.298 0-4.907-3.63-5.766-5.957-5.766h-.75v-2.535h5.721V34.35h-9.943v19.26h-.039zm4.261-3.844V45.39h.631c.513 0 1.854.041 1.854 2.004 0 2.045-1.38 2.372-1.854 2.372h-.631zm22.212-15.416h4.222v6.95h3.037v-6.952h4.183v19.26h-4.183v-7.687h-3.037v7.688h-4.222V34.35zm14.282 0h4.221v6.95h.908l2.446-6.952h4.576l-3.314 9.16 3.788 10.1h-4.971l-2.407-7.728h-1.026v7.729h-4.221V34.35zm-134.062 0h8.838v4.825h-4.458V53.61h-4.38V34.35zm76.618 0h3.67l3.235 4.538 3.235-4.539h3.669v19.26h-4.3V41.874l-2.604 3.354-2.604-3.353V53.61h-4.301V34.35zm28.485 19.3h4.38l.513-3.312h2.998l.552 3.313h4.38l-3.709-19.26h-5.445l-3.669 19.26zm6.431-13.453l.829 5.889h-1.618l.789-5.889z"/></g><defs><clipPath id="clip0_3_8023"><path fill="#fff" transform="translate(4 22)" d="M0 0h202v44H0z"/></clipPath></defs></svg>