<svg width="240" height="193" fill="none" xmlns="http://www.w3.org/2000/svg"><path fill-rule="evenodd" clip-rule="evenodd" d="M64.88 18.8a126.867 126.867 0 00-46.437 173.303.5.5 0 11-.866.5A127.867 127.867 0 01239.049 64.736a.5.5 0 01-.866.5A126.869 126.869 0 0064.879 18.799zm20.047 34.716a87.437 87.437 0 00-32.004 119.442.5.5 0 01-.866.5A88.437 88.437 0 01205.235 85.02a.5.5 0 01-.866.5A87.438 87.438 0 0084.927 53.516zm-3.266 63.809a49.12 49.12 0 0189.988-11.847.5.5 0 00.866-.5 50.12 50.12 0 00-91.82 12.088 50.124 50.124 0 005.007 38.034.5.5 0 00.866-.5 49.123 49.123 0 01-4.907-37.275z" fill="#0C131E" fill-opacity=".15"/></svg>