<svg width="194" height="194" fill="none" xmlns="http://www.w3.org/2000/svg"><path fill-rule="evenodd" clip-rule="evenodd" d="M191.207 98.021a11.494 11.494 0 001.684-5.992V12.554c0-6.351-5.148-11.5-11.5-11.5h-79.475c-1.239 0-2.457.2-3.612.582C94.047 3.155 91 7.222 91 12v80c0 6.075 4.925 11 11 11h80a10.99 10.99 0 009.207-4.979zm.844.538A11.95 11.95 0 00194 92V12c0-6.627-5.373-12-12-12h-80a11.98 11.98 0 00-4.033.695 12.5 12.5 0 00-4.89 3.02L3.661 93.132A12.5 12.5 0 000 101.97v79.475c0 6.903 5.596 12.5 12.5 12.5h79.475a12.5 12.5 0 008.839-3.661l89.416-89.417a12.472 12.472 0 001.821-2.31zm-5.455 4.529l-86.489 86.489a11.5 11.5 0 01-8.132 3.369H12.5c-6.351 0-11.5-5.149-11.5-11.5v-79.475a11.5 11.5 0 013.368-8.132L90.992 7.215A11.96 11.96 0 0090 12v80c0 6.627 5.373 12 12 12h80c1.628 0 3.18-.324 4.596-.912z" fill="#0C131E" fill-opacity=".15"/></svg>