<svg width="245" height="244" fill="none" xmlns="http://www.w3.org/2000/svg"><path d="M145.004 233.545l-.492-.087.492.087zm13.957-78.728l-.492-.088.492.088zm84.896-139.948l-.492-.087.492.087zM77.561 47.432l18.475 18.476.708-.707-18.476-18.476-.707.707zM229.86.466L84.218 26.285l.174.985L230.034 1.45l-.174-.984zm-11.329 160.132L244.35 14.956l-.985-.174-25.819 145.642.985.174zm-39.622-11.818l18.475 18.475.707-.707-18.475-18.475-.707.707zm-33.412 84.853l13.956-78.729-.984-.175-13.957 78.729.985.175zM4.527 120.466L124.35 240.29l.707-.707L5.234 119.759l-.708.707zm85.385-35.103L11.183 99.319l.175.985 78.729-13.957-.175-.984zM5.234 119.759c-6.576-6.576-3.033-17.832 6.124-19.455l-.175-.985c-9.953 1.765-13.804 14-6.657 21.147l.708-.707zm139.278 113.699c-1.623 9.157-12.879 12.7-19.455 6.125l-.707.707c7.147 7.147 19.382 3.296 21.147-6.657l-.985-.175zm35.104-85.385c-7.148-7.148-19.383-3.297-21.147 6.656l.984.175c1.624-9.157 12.88-12.7 19.456-6.124l.707-.707zm37.93 12.351c-1.623 9.157-12.879 12.7-19.455 6.124l-.707.707c7.148 7.148 19.383 3.296 21.147-6.657l-.985-.174zM230.034 1.451c7.869-1.395 14.726 5.462 13.331 13.33l.985.175c1.516-8.552-5.938-16.006-14.49-14.49l.174.985zM96.036 65.908c6.576 6.575 3.033 17.832-6.124 19.455l.175.984c9.953-1.764 13.804-13.999 6.657-21.146l-.707.707zM78.268 46.725c-6.576-6.576-3.033-17.832 6.124-19.455l-.174-.985c-9.954 1.764-13.805 14-6.657 21.147l.707-.707z" fill="#0C131E" fill-opacity=".15"/></svg>