<svg width="243" height="243" fill="none" xmlns="http://www.w3.org/2000/svg"><path d="M68.226 186.648l-.141-.48.14.48zm131.599-35.262l.118.486-.118-.486zm-13.522 23.42l.48-.14-.48.14zm-35.262-131.6l-.486.119.486-.118zM56.383 68.57l-.48.141.48-.14zM42.862 91.99l.118.486-.118-.486zm14-23.56a61.183 61.183 0 01-.388-1.386l-.966.26c.126.468.257.937.395 1.407l.96-.281zm-.388-1.386c-7.624-28.454 7.238-57.077 33.078-64l-.259-.967c-26.456 7.09-41.53 36.324-33.785 65.226l.966-.258zm33.078-64c25.841-6.925 53.023 10.432 60.647 38.887l.966-.259C143.421 12.77 115.749-5.012 89.293 2.077l.26.966zM150.2 41.93c.124.46.242.925.356 1.394l.972-.236a61.32 61.32 0 00-.362-1.417l-.966.259zm24.403 15.277c.463-.136.925-.265 1.386-.389l-.259-.966c-.468.126-.938.258-1.408.395l.281.96zm1.386-.389c28.455-7.624 57.077 7.238 64.001 33.078l.966-.259c-7.089-26.456-36.323-41.53-65.226-33.785l.259.966zm64.001 33.078c6.924 25.841-10.432 53.023-38.887 60.647l.259.966c28.902-7.744 46.683-35.416 39.594-61.872l-.966.26zm-38.887 60.647c-.461.124-.926.242-1.395.356l.236.972c.477-.116.949-.236 1.418-.362l-.259-.966zm-15.278 24.403c.135.462.265.924.388 1.384l.966-.259a58.063 58.063 0 00-.395-1.406l-.959.281zm.388 1.384c7.625 28.455-7.237 57.078-33.078 64.002l.259.965c26.456-7.088 41.529-36.323 33.785-65.226l-.966.259zm-33.078 64.002c-25.84 6.923-53.023-10.433-60.647-38.888l-.966.259c7.744 28.902 35.416 46.683 61.872 39.594l-.259-.965zm-60.647-38.888a61.165 61.165 0 01-.356-1.394l-.972.236c.116.476.236.949.362 1.417l.966-.259zM66.96 187.523c.468-.126.937-.257 1.406-.395l-.281-.96c-.462.136-.924.265-1.384.389l.259.966zM1.734 153.737c7.088 26.456 36.323 41.53 65.226 33.786l-.26-.966c-28.454 7.624-57.077-7.238-64-33.078l-.966.258zm39.594-61.871C12.426 99.61-5.355 127.28 1.734 153.737l.965-.258c-6.923-25.841 10.433-53.023 38.888-60.648l-.259-.966zm1.416-.362a62.27 62.27 0 00-1.416.361l.26.967c.46-.124.924-.242 1.392-.356l-.236-.972zM92.13 200.051c-1.203-4.955-4.793-9.133-9.267-11.715-4.473-2.583-9.886-3.603-14.78-2.168l.282.96c4.582-1.344 9.713-.401 13.998 2.074 4.286 2.474 7.669 6.446 8.795 11.085l.972-.236zM199.707 150.9c-4.955 1.204-9.133 4.794-11.716 9.267-2.583 4.474-3.603 9.887-2.167 14.78l.959-.281c-1.344-4.582-.4-9.713 2.074-13.999 2.475-4.285 6.447-7.668 11.086-8.795l-.236-.972zM150.555 43.325c1.204 4.955 4.794 9.133 9.267 11.716 4.474 2.582 9.887 3.603 14.78 2.167l-.281-.96c-4.581 1.344-9.713.401-13.999-2.073-4.285-2.475-7.668-6.447-8.795-11.086l-.972.236zM55.903 68.71c1.344 4.581.4 9.713-2.073 13.998-2.475 4.285-6.447 7.668-11.086 8.795l.236.972c4.955-1.204 9.133-4.794 11.716-9.267 2.582-4.473 3.602-9.886 2.167-14.78l-.96.282z" fill="#0C131E" fill-opacity=".15"/></svg>