<svg width="16" height="16" fill="none" xmlns="http://www.w3.org/2000/svg"><path d="M12 6.044c.006.323-.133.58-.356.804-.91.9-1.818 1.802-2.725 2.702-.373.369-.741.738-1.117 1.107-.462.455-1.094.458-1.552.007-.645-.633-1.29-1.269-1.928-1.911-.425-.429-.429-1.078-.013-1.493.405-.415 1.067-.415 1.505 0 .137.129.27.26.4.395.232.241.248.544.04.804-.134.168-.14.297-.024.409.12.112.272.095.422-.056a3830.77 3830.77 0 013.516-3.483c.46-.454 1.164-.435 1.576.037a.988.988 0 01.256.678z" fill="#0C131E"/></svg>