<svg width="16" height="16" fill="none" xmlns="http://www.w3.org/2000/svg"><path d="M14 5.566c.01.485-.2.87-.534 1.206-1.366 1.35-2.727 2.704-4.088 4.053-.558.553-1.112 1.107-1.675 1.66-.693.682-1.64.687-2.328.01A314.98 314.98 0 012.483 9.63c-.638-.643-.643-1.616-.02-2.239.608-.623 1.6-.623 2.259 0 .204.193.403.39.598.593.349.36.374.816.06 1.206-.2.252-.21.445-.035.613.18.168.409.143.633-.084 1.76-1.745 3.515-3.484 5.275-5.224.688-.682 1.745-.652 2.363.054.259.292.384.633.384 1.018z" fill="#FFC750"/></svg>