<svg width="24" height="24" fill="none" xmlns="http://www.w3.org/2000/svg"><path d="M3 6h18.491v11.333H3V6z" fill="#D22F27"/><path d="M8.666 11.592a.522.522 0 100-1.044.522.522 0 000 1.044zm0-2.982a.522.522 0 100-1.044.522.522 0 000 1.044zm1.194 2.087a.522.522 0 100-1.043.522.522 0 000 1.043zm0-1.491a.522.522 0 100-1.044.522.522 0 000 1.044z" fill="#F1B31C"/><path d="M5.544 10.606L6.28 8.22l.737 2.386-1.93-1.474h2.386l-1.93 1.474z" fill="#F1B31C" stroke="#F1B31C" stroke-linecap="round" stroke-linejoin="round"/></svg>