<svg width="16" height="16" fill="none" xmlns="http://www.w3.org/2000/svg"><g clip-path="url(#clip0_9_1449)"><path d="M7.848 15.618a7.47 7.47 0 100-14.94 7.47 7.47 0 000 14.94z" fill="#F4191C"/><mask id="a" style="mask-type:luminance" maskUnits="userSpaceOnUse" x="0" y="0" width="16" height="16"><path d="M7.848 15.618a7.47 7.47 0 100-14.94 7.47 7.47 0 000 14.94z" fill="#fff"/></mask><g mask="url(#a)" fill="#F4191C"><path d="M1.566.674v9.17h3.346l2.937-5.096h7.47V.674H1.566z"/><path d="M1.566.674v9.17h3.346l2.937-5.096h7.47V.674H1.566z"/></g><mask id="b" style="mask-type:luminance" maskUnits="userSpaceOnUse" x="0" y="0" width="16" height="16"><path d="M7.848 15.618a7.47 7.47 0 100-14.94 7.47 7.47 0 000 14.94z" fill="#fff"/></mask><g mask="url(#b)"><path d="M4.99 9.816L1.608 4.015l-.046.087 3.355 5.756.073-.042z" fill="#3E2723" fill-opacity=".15"/></g><mask id="c" style="mask-type:luminance" maskUnits="userSpaceOnUse" x="0" y="0" width="16" height="16"><path d="M7.848 15.618a7.47 7.47 0 100-14.94 7.47 7.47 0 000 14.94z" fill="#fff"/></mask><g mask="url(#c)"><path d="M.379 15.618H7.49l3.3-3.3V9.845H4.91L.379 2.077v13.54z" fill="#0F9D58"/><path d="M.379 15.618H7.49l3.3-3.3V9.845H4.91L.379 2.077v13.54z" fill="#00A340"/></g><mask id="d" style="mask-type:luminance" maskUnits="userSpaceOnUse" x="0" y="0" width="16" height="16"><path d="M7.848 15.618a7.47 7.47 0 100-14.94 7.47 7.47 0 000 14.94z" fill="#fff"/></mask><g mask="url(#d)"><path d="M10.722 9.958l-.073-.04-3.258 5.7h.1l3.236-5.66h-.005z" fill="#263238" fill-opacity=".15"/></g><mask id="e" style="mask-type:luminance" maskUnits="userSpaceOnUse" x="0" y="2" width="11" height="14"><path d="M.379 15.618H7.49l3.3-3.3V9.844H4.91L.379 2.076v13.542z" fill="#fff"/></mask><g mask="url(#e)"><path d="M7.85 4.749l2.942 5.095-3.3 5.774h7.827V4.748H7.85z" fill="#FFCD40"/><path d="M7.85 4.749l2.942 5.095-3.3 5.774h7.827V4.748H7.85z" fill="url(#paint0_linear_9_1449)"/></g><mask id="f" style="mask-type:luminance" maskUnits="userSpaceOnUse" x="0" y="0" width="16" height="16"><path d="M7.848 15.618a7.47 7.47 0 100-14.94 7.47 7.47 0 000 14.94z" fill="#fff"/></mask><g mask="url(#f)" fill="#FFBD02"><path d="M7.859 4.419l3.033 5.251-3.4 5.948h8.065v-11.2H7.86z"/><path d="M7.859 4.419l3.033 5.251-3.4 5.948h8.065v-11.2H7.86z"/></g><mask id="g" style="mask-type:luminance" maskUnits="userSpaceOnUse" x="0" y="0" width="16" height="16"><path d="M7.848 15.618a7.47 7.47 0 100-14.94 7.47 7.47 0 000 14.94z" fill="#fff"/></mask><g mask="url(#g)"><path d="M7.847 11.879a3.73 3.73 0 100-7.46 3.73 3.73 0 000 7.46z" fill="#F1F1F1"/><path d="M7.846 11.127a2.979 2.979 0 100-5.957 2.979 2.979 0 000 5.957z" fill="#4285F4"/></g><mask id="h" style="mask-type:luminance" maskUnits="userSpaceOnUse" x="0" y="0" width="16" height="16"><path d="M7.848 15.618a7.47 7.47 0 100-14.94 7.47 7.47 0 000 14.94z" fill="#fff"/></mask><g mask="url(#h)"><path d="M10.786 9.844a3.386 3.386 0 01-5.875 0h-.005L.38 2.077v.087l4.53 7.763h.005a3.386 3.386 0 005.874 0h.005v-.088l-.01.005z" fill="#fff" fill-opacity=".1"/></g></g><defs><linearGradient id="paint0_linear_9_1449" x1="10.045" y1="4.226" x2="11.292" y2="9.687" gradientUnits="userSpaceOnUse"><stop stop-color="#EA6100"/><stop offset=".66" stop-color="#EA6100"/></linearGradient><clipPath id="clip0_9_1449"><path fill="#fff" d="M0 0h16v16H0z"/></clipPath></defs></svg>