<svg width="48" height="48" fill="none" xmlns="http://www.w3.org/2000/svg"><g clip-path="url(#clip0_1388_15477)"><path fill="#FFC750" d="M0 0h48v48H0z"/><path fill="#FFC750" d="M0 0h48v48H0z"/><path d="M31.144 6.228c7.555 4.304 10.928 14.307 7.537 23.018-3.015 7.747-10.41 11.996-17.693 10.768A15.31 15.31 0 0028.518 42C37.621 42 45 33.941 45 23.999c0-8.967-6-16.4-13.856-17.771z" fill="#0C131E"/><path d="M27.394 25.592c-3.25-1.193-5.47-2.854-5.47-6.073 0-2.921 1.885-5.21 5.136-5.908v-3.154h2.979v2.922c2.037.1 3.404.562 4.407 1.095l-.882 3.752c-.79-.365-2.188-1.13-4.375-1.13-1.976 0-2.614.93-2.614 1.858 0 1.095 1.064 1.793 3.647 2.856 3.615 1.393 5.073 3.22 5.073 6.206 0 2.954-1.914 5.475-5.408 6.14v3.384H26.91v-3.154c-2.036-.1-4.011-.695-5.165-1.425l.91-3.882c1.276.76 3.069 1.458 5.045 1.458 1.733 0 2.916-.73 2.916-2.058 0-1.261-.97-2.056-3.22-2.887zm11.287 3.654c3.391-8.711.018-18.714-7.537-23.018A15.182 15.182 0 0028.518 6c-4.52 0-8.613 1.988-11.589 5.207h2.05c.986 0 1.787.873 1.787 1.951 0 1.079-.801 1.951-1.788 1.951H8.447c-.987 0-1.788.876-1.788 1.954 0 1.078.8 1.95 1.788 1.95h6.87c.987 0 1.788.874 1.788 1.952 0 1.078-.801 1.95-1.788 1.95H4.786c-.987 0-1.786.876-1.786 1.954 0 1.078.799 1.951 1.786 1.951h12.413c.987 0 1.788.876 1.788 1.954 0 1.078-.801 1.95-1.788 1.95H9.56c-.986 0-1.788.873-1.788 1.951 0 1.079.802 1.954 1.788 1.954h5.66c1.509 2.249 3.482 4.1 5.77 5.385 7.282 1.228 14.677-3.021 17.692-10.768z" fill="#0C131E"/></g><defs><clipPath id="clip0_1388_15477"><path fill="#fff" d="M0 0h48v48H0z"/></clipPath></defs></svg>