<svg width="33" height="33" fill="none" xmlns="http://www.w3.org/2000/svg"><path d="M9.552 11.183c-.14 1.52-.238 4.21.64 5.355 0 0-.413-2.955 3.29-6.663 1.491-1.492 1.836-3.522 1.315-5.045-.296-.862-.836-1.575-1.305-2.072-.274-.293-.064-.775.335-.758 2.41.11 6.316.795 7.975 5.055.729 1.87.783 3.803.436 5.768-.22 1.255-1.003 4.045.782 4.387 1.273.245 1.89-.79 2.166-1.535a.43.43 0 01.728-.14c2.15 2.503 2.334 5.45 1.89 7.988-.861 4.905-5.718 8.474-10.543 8.474-6.028 0-10.826-3.527-12.07-9.912-.501-2.577-.247-7.677 3.64-11.277.288-.27.76-.03.72.375z" fill="url(#paint0_radial_1304_3404)"/><path d="M19.463 20.355c-2.222-2.925-1.227-6.262-.682-7.592.074-.175-.122-.34-.276-.233-.956.665-2.913 2.23-3.825 4.433-1.235 2.977-1.147 4.435-.416 6.215.44 1.072-.07 1.3-.327 1.34-.25.04-.48-.13-.663-.308a4.043 4.043 0 01-1.085-1.9c-.04-.155-.237-.197-.328-.07-.684.968-1.038 2.52-1.056 3.618C10.752 29.25 13.492 32 16.806 32c4.178 0 7.22-4.725 4.82-8.675-.696-1.15-1.351-1.902-2.163-2.97z" fill="url(#paint1_radial_1304_3404)"/><defs><radialGradient id="paint0_radial_1304_3404" cx="0" cy="0" r="1" gradientUnits="userSpaceOnUse" gradientTransform="matrix(-17.25373 -.07679 .12888 -28.95671 16.067 32.078)"><stop offset=".314" stop-color="#FF9800"/><stop offset=".662" stop-color="#FF6D00"/><stop offset=".972" stop-color="#F44336"/></radialGradient><radialGradient id="paint1_radial_1304_3404" cx="0" cy="0" r="1" gradientUnits="userSpaceOnUse" gradientTransform="matrix(-.1824 18.4628 -13.58554 -.13421 17.036 14.515)"><stop offset=".214" stop-color="#FFF176"/><stop offset=".328" stop-color="#FFF27D"/><stop offset=".487" stop-color="#FFF48F"/><stop offset=".672" stop-color="#FFF7AD"/><stop offset=".793" stop-color="#FFF9C4"/><stop offset=".822" stop-color="#FFF8BD" stop-opacity=".804"/><stop offset=".863" stop-color="#FFF6AB" stop-opacity=".529"/><stop offset=".91" stop-color="#FFF38D" stop-opacity=".209"/><stop offset=".941" stop-color="#FFF176" stop-opacity="0"/></radialGradient></defs></svg>