<svg width="1856" height="475" fill="none" xmlns="http://www.w3.org/2000/svg"><path clip-rule="evenodd" d="M395.22-2.892L-21.83 400.197c-17.87 17.272-46.36 16.787-63.631-1.084-17.272-17.87-16.787-46.358 1.083-63.63l427.94-413.614c29.987-28.983 77.858-27.938 106.551 2.327l272.99 287.945L1142.83 39.053c27.62-11.39 59.37-5.3 80.82 15.506l412.83 400.513 194.29-325.96c12.72-21.348 40.34-28.34 61.69-15.615 21.35 12.724 28.34 40.345 15.61 61.694l-203.99 342.256c-24.79 41.588-81.9 49.143-116.65 15.431l-419.39-406.869L747.895 299.27c-28.679 11.826-61.678 4.777-83.021-17.735L395.22-2.892z" stroke="#fff" stroke-opacity=".1" stroke-linecap="round"/></svg>