<svg width="257" height="569" fill="none" xmlns="http://www.w3.org/2000/svg"><path clip-rule="evenodd" d="M224.971-18.474L8.638-206.955c-9.27-8.076-10.237-22.137-2.161-31.407s22.138-10.237 31.407-2.161L259.867-47.121c15.554 13.552 17.067 37.19 3.365 52.614L132.874 152.237 235.96 351.779a37.102 37.102 0 01-4.219 40.489L51.824 612.705l168.884 81.95c11.061 5.368 15.676 18.685 10.309 29.746-5.367 11.061-18.685 15.677-29.746 10.31L23.944 648.663c-21.548-10.456-27.69-38.284-12.546-56.839L194.17 367.888 90.98 168.146a37.101 37.101 0 015.226-41.669L224.97-18.474z" stroke="#fff" stroke-opacity=".1" stroke-linecap="round"/></svg>