<svg width="158" height="48" fill="none" xmlns="http://www.w3.org/2000/svg"><rect width="158" height="48" rx="12" fill="#0C131E"/><path d="M56.162 12.973c0 .912-.282 1.642-.836 2.186-.638.646-1.468.971-2.486.971-.972 0-1.803-.33-2.484-.981-.682-.661-1.023-1.472-1.023-2.442 0-.97.34-1.782 1.023-2.437.681-.656 1.512-.987 2.484-.987.484 0 .946.097 1.387.277.439.182.796.428 1.055.73l-.588.577c-.452-.518-1.067-.773-1.854-.773-.71 0-1.324.24-1.846.725-.517.486-.776 1.115-.776 1.888 0 .772.26 1.407.776 1.893a2.646 2.646 0 001.846.725c.753 0 1.387-.246 1.886-.73.33-.321.517-.764.566-1.329H52.84v-.789h3.271c.04.17.05.336.05.496zm5.188-2.735h-3.072v2.074h2.77v.79h-2.77v2.074h3.073v.804h-3.942V9.434h3.942v.804zm3.663 5.742h-.87v-5.742h-1.885v-.804h4.64v.804h-1.885v5.742zm5.244 0V9.434h.868v6.546h-.868zm4.718 0h-.863v-5.742H72.22v-.804h4.646v.804h-1.891v5.742zm10.676-.842c-.665.662-1.49.992-2.474.992-.99 0-1.814-.33-2.48-.992-.664-.661-.995-1.472-.995-2.431 0-.96.33-1.77.995-2.431.666-.662 1.49-.993 2.48-.993.978 0 1.803.33 2.469.998.67.666 1 1.471 1 2.426 0 .96-.33 1.77-.995 2.43zm-4.31-.549c.5.49 1.11.736 1.836.736.72 0 1.336-.246 1.831-.736.5-.49.753-1.12.753-1.882 0-.763-.253-1.393-.753-1.883-.495-.49-1.11-.735-1.831-.735-.726 0-1.336.245-1.837.735-.5.49-.753 1.12-.753 1.883 0 .763.254 1.392.753 1.882zm6.526 1.391V9.434h1.055l3.282 5.091h.038l-.038-1.258V9.434h.869v6.546h-.907l-3.437-5.343h-.038l.038 1.264v4.08h-.862z" fill="#fff" stroke="#fff" stroke-width=".16" stroke-miterlimit="10"/><path d="M79.488 25.541c-2.645 0-4.805 1.952-4.805 4.645 0 2.672 2.16 4.644 4.805 4.644 2.65 0 4.81-1.972 4.81-4.644 0-2.693-2.16-4.645-4.81-4.645zm0 7.46c-1.451 0-2.7-1.162-2.7-2.815 0-1.675 1.249-2.816 2.7-2.816 1.45 0 2.705 1.141 2.705 2.816 0 1.653-1.254 2.815-2.705 2.815zm-10.484-7.46c-2.65 0-4.805 1.952-4.805 4.645 0 2.672 2.155 4.644 4.805 4.644 2.649 0 4.805-1.972 4.805-4.644 0-2.693-2.156-4.645-4.805-4.645zm0 7.46c-1.452 0-2.705-1.162-2.705-2.815 0-1.675 1.253-2.816 2.705-2.816 1.451 0 2.7 1.141 2.7 2.816 0 1.653-1.249 2.815-2.7 2.815zM56.53 26.965v1.974h4.86c-.143 1.102-.523 1.913-1.105 2.478-.71.683-1.814 1.44-3.755 1.44-2.99 0-5.333-2.34-5.333-5.241 0-2.9 2.342-5.242 5.333-5.242 1.617 0 2.794.613 3.662 1.408l1.434-1.391c-1.215-1.125-2.83-1.99-5.096-1.99-4.101 0-7.548 3.237-7.548 7.215 0 3.977 3.447 7.214 7.548 7.214 2.216 0 3.881-.704 5.19-2.026 1.342-1.3 1.76-3.13 1.76-4.607 0-.458-.04-.88-.11-1.232h-6.84zm51.013 1.53c-.396-1.039-1.616-2.954-4.101-2.954-2.463 0-4.514 1.882-4.514 4.645 0 2.602 2.029 4.644 4.75 4.644 2.2 0 3.469-1.3 3.991-2.058l-1.632-1.056c-.545.773-1.287 1.285-2.359 1.285-1.065 0-1.83-.474-2.319-1.407l6.405-2.57-.221-.529zm-6.531 1.546c-.055-1.79 1.435-2.708 2.501-2.708.836 0 1.546.406 1.782.986l-4.283 1.723zm-5.206 4.506h2.106v-13.65h-2.106v13.65zm-3.448-7.971h-.07c-.473-.544-1.375-1.035-2.518-1.035-2.398 0-4.59 2.042-4.59 4.66 0 2.603 2.192 4.629 4.59 4.629 1.143 0 2.045-.496 2.518-1.055h.07v.666c0 1.776-.978 2.73-2.556 2.73-1.286 0-2.084-.901-2.413-1.659l-1.831.742A4.567 4.567 0 0089.8 39c2.469 0 4.552-1.409 4.552-4.836v-8.34h-1.996v.752zM89.95 33c-1.45 0-2.665-1.178-2.665-2.8 0-1.636 1.214-2.83 2.665-2.83 1.43 0 2.557 1.194 2.557 2.83 0 1.622-1.127 2.8-2.557 2.8zm27.45-12.104h-5.035v13.65h2.099v-5.172h2.936c2.332 0 4.619-1.636 4.619-4.24 0-2.601-2.292-4.238-4.619-4.238zm.055 6.58h-2.991v-4.68h2.991c1.568 0 2.463 1.262 2.463 2.339 0 1.056-.895 2.34-2.463 2.34zm12.981-1.962c-1.518 0-3.095.65-3.744 2.09l1.863.758c.401-.758 1.139-1.004 1.919-1.004 1.089 0 2.194.635 2.211 1.756v.143c-.38-.213-1.194-.528-2.194-.528-2.007 0-4.052 1.071-4.052 3.071 0 1.83 1.643 3.007 3.491 3.007 1.413 0 2.193-.618 2.683-1.338h.072v1.056h2.028v-5.237c0-2.42-1.864-3.774-4.277-3.774zm-.254 7.48c-.687 0-1.644-.33-1.644-1.156 0-1.056 1.194-1.462 2.227-1.462.925 0 1.358.198 1.92.459-.165 1.264-1.287 2.16-2.503 2.16zm11.92-7.18l-2.414 5.916h-.072l-2.495-5.917h-2.265l3.75 8.27-2.14 4.6h2.195l5.777-12.87h-2.336zm-18.929 8.732h2.106v-13.65h-2.106v13.65z" fill="#fff"/><path d="M14.522 10.019c-.33.336-.522.858-.522 1.536v24.15c0 .676.191 1.199.522 1.535l.082.073 13.953-13.527v-.32L14.604 9.94l-.082.079z" fill="url(#paint0_linear_1211_18344)"/><path d="M33.203 28.298l-4.646-4.511v-.32l4.651-4.511.104.059 5.509 3.04c1.572.862 1.572 2.282 0 3.15l-5.509 3.034-.11.059z" fill="url(#paint1_linear_1211_18344)"/><path d="M33.312 28.24l-4.755-4.613L14.522 37.24c.522.532 1.374.597 2.342.064l16.448-9.065z" fill="url(#paint2_linear_1211_18344)"/><path d="M33.312 19.014L16.864 9.949c-.968-.527-1.82-.463-2.342.07l14.035 13.607 4.755-4.612z" fill="url(#paint3_linear_1211_18344)"/><defs><linearGradient id="paint0_linear_1211_18344" x1="27.318" y1="35.956" x2="9" y2="17.069" gradientUnits="userSpaceOnUse"><stop stop-color="#00A0FF"/><stop offset=".007" stop-color="#00A1FF"/><stop offset=".26" stop-color="#00BEFF"/><stop offset=".512" stop-color="#00D2FF"/><stop offset=".76" stop-color="#00DFFF"/><stop offset="1" stop-color="#00E3FF"/></linearGradient><linearGradient id="paint1_linear_1211_18344" x1="40.868" y1="23.625" x2="13.624" y2="23.625" gradientUnits="userSpaceOnUse"><stop stop-color="#FFE000"/><stop offset=".409" stop-color="#FFBD00"/><stop offset=".775" stop-color="orange"/><stop offset="1" stop-color="#FF9C00"/></linearGradient><linearGradient id="paint2_linear_1211_18344" x1="30.726" y1="21.12" x2="5.886" y2="-4.493" gradientUnits="userSpaceOnUse"><stop stop-color="#FF3A44"/><stop offset="1" stop-color="#C31162"/></linearGradient><linearGradient id="paint3_linear_1211_18344" x1="10.989" y1="45.274" x2="22.081" y2="33.837" gradientUnits="userSpaceOnUse"><stop stop-color="#32A071"/><stop offset=".069" stop-color="#2DA771"/><stop offset=".476" stop-color="#15CF74"/><stop offset=".801" stop-color="#06E775"/><stop offset="1" stop-color="#00F076"/></linearGradient></defs></svg>