<svg width="24" height="24" fill="none" xmlns="http://www.w3.org/2000/svg"><path d="M19 12.156c0-.576-.048-.996-.15-1.431h-6.707v2.597h3.936c-.08.646-.508 1.618-1.46 2.271l-.014.087 2.12 1.61.148.015c1.35-1.222 2.127-3.018 2.127-5.15z" fill="#4285F4"/><path d="M12.143 19c1.928 0 3.547-.622 4.73-1.695l-2.254-1.712c-.603.413-1.413.7-2.476.7a4.292 4.292 0 01-4.064-2.909l-.084.008-2.204 1.672-.03.078A7.154 7.154 0 0012.144 19z" fill="#34A853"/><path d="M8.08 13.384A4.232 4.232 0 017.84 12c0-.482.088-.949.23-1.384l-.004-.093-2.232-1.7-.073.035A6.892 6.892 0 005 12c0 1.128.278 2.193.762 3.142l2.317-1.758z" fill="#FBBC05"/><path d="M12.143 7.707c1.341 0 2.246.567 2.762 1.042L16.92 6.82C15.683 5.692 14.07 5 12.143 5a7.154 7.154 0 00-6.381 3.858l2.31 1.758a4.31 4.31 0 014.07-2.91z" fill="#EB4335"/></svg>