<svg width="16" height="16" fill="none" xmlns="http://www.w3.org/2000/svg"><g clip-path="url(#clip0_9_1392)"><path d="M7.914 7.667l-6.18 6.431v.003c.19.698.84 1.212 1.613 1.212.308 0 .598-.082.847-.226l.021-.012 6.956-3.937-3.257-3.471z" fill="#EA4335"/><path d="M14.17 6.572l-.005-.003-3.003-1.707-3.385 2.952 3.397 3.327 2.985-1.687c.524-.279.88-.819.88-1.444 0-.619-.35-1.159-.869-1.438z" fill="#FBBC04"/><path d="M1.736 1.892a1.531 1.531 0 00-.056.423v11.364c.006.164.02.287.056.42L8.129 7.83 1.736 1.892z" fill="#4285F4"/><path d="M7.958 7.995l3.198-3.133L4.21.912a1.687 1.687 0 00-.862-.234c-.774 0-1.423.516-1.613 1.214v.003l6.224 6.1z" fill="#34A853"/></g><defs><clipPath id="clip0_9_1392"><path fill="#fff" d="M0 0h16v16H0z"/></clipPath></defs></svg>