<svg width="485" height="200" fill="none" xmlns="http://www.w3.org/2000/svg"><path clip-rule="evenodd" d="M52.31 128.859l25.858-51.102c5.366-10.606 1.118-23.555-9.489-28.922-10.607-5.367-23.556-1.119-28.923 9.488L5 127.01c-15.12 29.882 15.324 62.347 46.117 49.178L421.11 17.958l-75.8 162.828c-13.81 29.667 16.059 60.818 46.282 48.268L739.584 84.552l-73.14 114.323c-6.406 10.013-3.482 23.324 6.532 29.73 10.014 6.406 23.325 3.481 29.731-6.532L788.17 88.488c18.928-29.585-11.54-65.93-43.978-52.46L392.127 182.22l75.922-163.094c13.889-29.834-16.37-61.061-46.629-48.121L52.31 128.859z" stroke="#fff" stroke-opacity=".2" stroke-linecap="round"/></svg>