<svg width="242" height="242" fill="none" xmlns="http://www.w3.org/2000/svg"><path d="M141.283 5.066c6.55-6.86 18.095-3.767 20.338 5.45l17.751 72.942a12.001 12.001 0 003.373 5.842l54.308 51.852c6.861 6.551 3.767 18.097-5.45 20.339l-72.957 17.752a11.997 11.997 0 00-5.843 3.373l-51.848 54.312c-6.551 6.862-18.098 3.768-20.34-5.45l-17.746-72.959a11.995 11.995 0 00-3.373-5.843L5.188 100.824c-6.861-6.55-3.768-18.097 5.45-20.34l72.957-17.75a12 12 0 005.842-3.373l51.845-54.295z" stroke="#0C131E" stroke-opacity=".15" stroke-linecap="round"/></svg>