<svg width="120" height="144" fill="none" xmlns="http://www.w3.org/2000/svg"><path d="M111.926 58.168C102.813 24.34 88.35-1.166 79.586 1.146c-4.808 1.271-6.902 10.826-6.243 24.812C66.867 13.513 60.314 6.308 55.467 7.58c-4.808 1.271-6.902 10.826-6.243 24.812-6.476-12.444-13.029-19.65-17.876-18.378-4.73 1.233-6.825 10.788-6.165 24.736-6.437-12.407-13.03-19.65-17.838-18.38-8.724 2.312-8.414 31.633.698 65.46 9.113 33.829 23.577 59.335 32.34 57.023 4.808-1.271 6.902-10.826 6.243-24.812 6.476 12.445 13.029 19.65 17.876 18.378 4.808-1.271 6.902-10.826 6.243-24.812 6.476 12.444 13.029 19.649 17.876 18.378 4.808-1.272 6.902-10.827 6.243-24.813 6.476 12.445 13.029 19.65 17.876 18.379 8.647-2.274 8.298-31.556-.814-65.384z" stroke="#0C131E" stroke-opacity=".15" stroke-linecap="round"/></svg>