<svg width="228" height="276" fill="none" xmlns="http://www.w3.org/2000/svg"><path d="M213.451 111.31C195.998 46.036 168.297-3.18 151.512 1.28c-9.209 2.454-13.219 20.892-11.957 47.878-12.402-24.013-24.953-37.915-34.237-35.462-9.209 2.454-13.22 20.891-11.957 47.878C80.96 37.561 68.408 23.658 59.124 26.112c-9.06 2.379-13.07 20.816-11.808 47.729-12.329-23.939-24.954-37.916-34.163-35.462-16.71 4.46-16.116 61.036 1.337 126.311 17.453 65.274 45.154 114.49 61.938 110.029 9.21-2.453 13.22-20.891 11.957-47.878 12.403 24.014 24.954 37.916 34.238 35.463 9.209-2.454 13.219-20.891 11.957-47.878 12.402 24.013 24.953 37.916 34.237 35.462 9.209-2.453 13.219-20.891 11.957-47.878 12.402 24.014 24.953 37.916 34.237 35.463 16.561-4.387 15.893-60.888-1.56-126.163z" stroke="#0C131E" stroke-opacity=".15" stroke-linecap="round"/></svg>