<svg width="285" height="283" fill="none" xmlns="http://www.w3.org/2000/svg"><path fill-rule="evenodd" clip-rule="evenodd" d="M0 117.586L171.8 0l-.562 1.434c-11.914 30.414-6.015 71.895 18.508 107.729s61.054 56.351 93.714 56.256l1.54-.004L113.2 283l.562-1.434c11.912-30.412 6.015-71.895-18.508-107.729S34.2 117.486 1.54 117.581l-1.54.005zm3.055-.943c32.645.532 68.7 21.176 92.981 56.658 24.282 35.483 30.472 76.567 19.149 107.192l166.76-114.136c-32.645-.532-68.699-21.176-92.981-56.658-24.282-35.483-30.474-76.566-19.149-107.192L3.055 116.643z" fill="#0C131E" fill-opacity=".15"/></svg>