<svg width="167" height="167" fill="none" xmlns="http://www.w3.org/2000/svg"><path d="M73.01 6.817c4.553-8.322 16.505-8.322 21.057 0l21.714 39.699a12.002 12.002 0 004.77 4.77l39.708 21.716c8.323 4.552 8.323 16.505 0 21.057l-39.707 21.717a11.995 11.995 0 00-4.771 4.771l-21.714 39.709c-4.551 8.323-16.505 8.323-21.057 0l-21.713-39.709a11.997 11.997 0 00-4.771-4.771L6.818 94.059c-8.322-4.552-8.322-16.505 0-21.056l39.709-21.718a12.001 12.001 0 004.77-4.77L73.01 6.818z" stroke="#0C131E" stroke-opacity=".15" stroke-linecap="round"/></svg>