<svg width="24" height="24" fill="none" xmlns="http://www.w3.org/2000/svg"><path d="M3 5h18v14H3V5z" fill="#00ABC2"/><path d="M12.706 12.717a1.767 1.767 0 100-3.534 1.767 1.767 0 000 3.534zm-.001-3.774c.105-.001.144-.067.144-.146 0-.105-.144-.605-.144-.605s-.145.5-.145.605c0 .08.04.146.145.146zm2.007 2.007c.002.105.067.144.146.144.105 0 .605-.144.605-.144s-.5-.144-.605-.144c-.079 0-.146.039-.146.144zm-2.007 2.007c-.105.001-.144.067-.144.145 0 .105.144.606.144.606s.145-.5.145-.606c0-.078-.04-.145-.145-.145zm-2.007-2.007c-.001-.105-.067-.144-.146-.144-.105 0-.605.144-.605.144s.5.144.605.144c.08 0 .146-.039.146-.144zm2.787-1.864c.108.046.17.005.198-.065.036-.095.062-.608.062-.608s-.32.382-.356.477c-.028.07-.01.148.096.196zm1.064 2.618c-.033.088.017.148.092.181.1.044.62.134.62.134s-.428-.33-.528-.373c-.074-.033-.15-.029-.184.058zm-2.626 1.11c-.108-.046-.17-.005-.198.066-.036.094-.062.607-.062.607s.32-.382.357-.476c.027-.071.01-.149-.097-.197zm-1.063-2.618c.032-.088-.018-.148-.092-.18-.1-.045-.62-.135-.62-.135s.427.33.527.373c.074.033.15.029.184-.058zm3.264-.665c.075.073.15.055.205 0 .074-.075.326-.53.326-.53s-.456.25-.53.325c-.056.056-.075.13-.001.205zm-.001 2.838c-.073.075-.055.15 0 .205.075.074.53.326.53.326s-.25-.456-.325-.53c-.056-.056-.13-.075-.205-.001zm-2.837.001c-.075-.074-.15-.056-.205 0-.074.074-.326.53-.326.53s.456-.252.53-.326c.056-.056.075-.13.001-.205zm-.001-2.84c.074-.074.055-.148 0-.204-.075-.074-.53-.326-.53-.326s.25.456.325.53c.056.056.131.075.205 0zm3.265.666c.035.086.11.091.184.058.1-.044.527-.373.527-.373s-.52.09-.62.134c-.074.033-.125.094-.091.18zm-1.062 2.618c-.107.05-.124.126-.097.197.036.094.356.477.356.477s-.025-.514-.062-.608c-.027-.071-.09-.113-.197-.066zm-2.628-1.11c-.035-.086-.11-.091-.184-.058-.1.044-.527.373-.527.373s.52-.09.62-.134c.074-.033.125-.094.091-.18zm1.064-2.618c.107-.05.125-.126.097-.196-.036-.095-.356-.477-.356-.477s.026.513.062.608c.027.07.09.112.197.065zm1.192-.117c.117.029.17-.022.182-.096.015-.1-.073-.614-.073-.614s-.233.431-.248.53c-.012.075.022.15.14.18zm1.546 2.352c-.013.088.048.137.127.157.106.027.628.034.628.034s-.484-.247-.59-.273c-.079-.02-.152-.005-.165.082zm-2.37 1.61c-.117-.029-.17.022-.182.096-.015.1.073.614.073.614s.233-.431.249-.53c.011-.075-.023-.15-.14-.18zm-1.547-2.352c.012-.088-.049-.137-.128-.157-.106-.027-.627-.034-.627-.034s.483.247.59.273c.078.02.15.005.165-.082zm3.089-1.31c.098.067.169.04.21-.022.054-.084.18-.575.18-.575s-.394.304-.448.387c-.041.063-.04.141.058.21z" fill="#FFEC2D"/><path d="M14.361 12.052c-.05.077-.012.145.056.191.09.063.59.256.59.256s-.36-.403-.451-.466c-.068-.047-.144-.058-.195.019zm-2.787.579c-.098-.067-.168-.04-.21.022-.054.084-.18.575-.18.575s.394-.304.449-.387c.04-.063.039-.141-.059-.21zm-.527-2.783c.05-.077.012-.145-.056-.191-.09-.063-.59-.256-.59-.256s.361.403.451.466c.068.047.144.058.195-.019zm3.326-.013c.06.088.136.085.201.041.088-.057.425-.454.425-.454s-.496.153-.584.21c-.065.044-.1.114-.042.203zm-.553 2.783c-.088.059-.084.135-.04.2.057.088.455.428.455.428s-.156-.497-.214-.585c-.044-.066-.114-.1-.201-.043zm-2.785-.553c-.06-.088-.136-.085-.201-.041-.088.057-.425.455-.425.455s.496-.154.584-.212c.065-.043.1-.113.042-.202zm.555-2.783c.088-.058.085-.135.04-.2-.057-.088-.454-.427-.454-.427s.155.496.213.584c.044.066.114.1.202.043zm3.082 1.275c.02.105.092.132.17.118.104-.02.57-.258.57-.258s-.519-.051-.622-.031c-.078.014-.137.066-.118.171zm-1.572 2.36c-.106.02-.134.092-.12.17.02.104.257.57.257.57s.054-.52.034-.623c-.014-.078-.066-.136-.172-.117zm-2.36-1.574c-.02-.105-.092-.133-.17-.118-.104.02-.57.258-.57.258s.519.05.622.031c.078-.014.137-.066.118-.171zm1.571-2.36c.105-.02.133-.092.119-.17-.02-.103-.257-.57-.257-.57s-.053.52-.034.623c.014.078.066.136.172.117z" fill="#FFEC2D"/><path d="M12.644 14.034c-.046.083-.074.179-.131.254-.179-.162-.436-.158-.662-.167-.186-.01-.388-.027-.533-.16-.15-.125-.275-.285-.443-.386a1.09 1.09 0 01-.435-.2c-.265-.217-.417-.539-.677-.762-.049-.047-.108-.085-.163-.126-.052.013-.029.126-.093.068-.035-.026-.123-.027-.131.008.079.105.159.223.17.357-.055.005-.15-.012-.177.008.072.108.163.203.268.28-.05.007-.148.003-.168.023.098.094.22.16.352.193.026.037-.04.108.017.14.033.012.143.036.067.074-.053.034-.033.117.034.114.042.022.136.026.144.066-.038.037-.153.081-.055.118a.683.683 0 00.303.088c-.052.045-.118.07-.172.112.243.143.512.236.78.328.105.034.214.066.324.088a2.645 2.645 0 01-.921-.243 8.184 8.184 0 00-.457-.187c.067-.035.146-.044.217-.075-.147-.028-.306-.039-.434-.118.019-.036.092-.038.134-.056.08-.018.126-.04.017-.047-.11-.03-.236-.017-.334-.083.006-.04.109-.026.15-.043.052-.01.11-.017.152-.053-.171-.07-.394-.02-.528-.17-.03-.058.096-.012.131-.021.092 0 .19.029.278-.008-.249-.11-.515-.21-.704-.412-.021-.033-.084-.122-.033-.133.147.02.253.18.412.155.021-.028-.092-.074-.12-.114a3.012 3.012 0 01-.615-.67c-.01-.088.125-.1.16-.034.176.17.335.368.554.483.079.038-.045-.044-.06-.075a3.92 3.92 0 01-.537-.76c-.026-.05-.067-.14.009-.166.075-.038.15.013.189.079.148.187.259.41.444.566-.158-.305-.327-.63-.331-.981.004-.068.008-.17.1-.17.08-.011.067.088.093.136.076.26.109.54.262.769-.032-.192-.084-.39-.05-.586.008-.065.08-.084.128-.044.038.092.046.209.08.308.204.68.635 1.269 1.22 1.67.48.328 1.039.52 1.619.555.052.005.105.007.156.01m1.79 1.195c-.094.058-.168-.045-.247-.075-.057.031-.063.134-.115.184-.063.072-.142-.021-.135-.092-.076.064-.114.21-.236.189-.06-.047-.103-.147-.148-.033-.035.055-.13.134-.182.05-.016-.074-.052-.16-.092-.043-.029.084-.118.144-.202.107-.047-.038.037-.18-.022-.17-.09.06-.142.206-.267.194-.048-.053.03-.146-.023-.206-.062.08-.132.198-.24.206-.053-.042.002-.164-.032-.181-.11.065-.228.185-.367.148.053-.21.282-.282.472-.298.33-.04.676.034.994-.085.05-.032.174-.075.13-.147-.039-.058.102-.036.115-.103-.008-.084.066-.072.136-.078.32-.015.637.052.956.064.024.155-.148.264-.289.216-.065.011-.164-.152-.144-.034-.013.063-.005.145-.062.187zm-2.722-.318c.074.067.126-.013.196-.043.227-.09.44-.21.634-.359.12-.1.225-.23.388-.262.318-.096.655-.084.973-.173.242-.331.653-.45.998-.64.078-.024.108-.089.132-.158.13-.209.31-.393.523-.519.1-.059.219-.08.334-.06a.557.557 0 01-.18.348c.077-.002.144-.05.22-.047.027.139-.123.21-.203.298.045.01.215.023.122.068-.118.081-.253.137-.362.233.1.019.113.04.01.077-.056.036-.162.05-.173.123.076.047-.034.092-.077.107-.082.02-.168.056-.06.119-.04.061-.13.074-.202.068.023.07.054.15-.036.181-.204.16-.447.262-.704.294a1.52 1.52 0 00.928-.21c.037-.043.227-.09.12-.126-.049-.021-.157-.045-.164-.083.15-.092.337-.059.497-.113.004-.052-.122-.038-.17-.05-.11-.009-.104-.037.003-.048.137-.037.292-.043.407-.131-.093-.045-.211-.007-.31-.042.168-.074.368-.082.52-.193.07-.078-.09-.053-.135-.051-.093.017-.137-.03-.03-.067.182-.136.412-.222.54-.416.03-.044.071-.175-.026-.129-.126.043-.237.185-.383.142.286-.222.556-.473.752-.779.01-.089-.129-.098-.164-.028-.184.175-.35.384-.584.496.221-.222.414-.47.572-.74.036-.08.129-.175.079-.263-.083-.068-.185-.005-.227.075-.143.186-.25.403-.433.555.159-.306.325-.633.328-.985 0-.073-.013-.18-.113-.166-.079.013-.06.131-.092.19-.07.242-.105.503-.25.713.034-.196.09-.4.047-.597-.021-.09-.164-.051-.145.036-.17.865-.752 1.621-1.51 2.058a3.25 3.25 0 01-1.13.381c-.105.022-.22.01-.322.046-.247.188-.395.504-.706.602-.14.07-.322.084-.421.213a.113.113 0 00-.01.055zm.679-.135a.556.556 0 00-.14.022c-.061.01-.12.03-.18.04l-.026.005-.04.004a.146.146 0 010 .067.08.08 0 01-.019.026.073.073 0 01-.029.024.092.092 0 01-.034.009c-.011 0-.023 0-.035-.005a.094.094 0 01-.033-.02l-.037.006h-.034l-.037-.013a.205.205 0 01-.034-.017c-.044.027-.094.052-.122.097a.145.145 0 00-.02.07.186.186 0 00.018.092c.005.008.009-.03.023-.036a.222.222 0 01.088-.043c.027-.013.023 0 .012.021-.003.012-.017.053.003.032a.853.853 0 01.283-.054c.14-.015.278-.019.418-.02l.393.008c.063.003.126.016.188.005.014-.004.038-.004.047-.013-.029-.016-.061-.017-.092-.02h-.25c-.07-.008-.142-.009-.208-.035-.018-.007-.034-.024-.05-.005a.316.316 0 01-.078.017.312.312 0 01-.134-.024c.03-.042.067-.079.1-.118l-.08-.017c.048-.033.091-.07.139-.105z" fill="#FFEC2D"/><path d="M11.912 14.93a.031.031 0 100-.062.031.031 0 000 .063z" fill="#FFEC2D"/><path d="M11.91 14.908a.014.014 0 100-.027.014.014 0 000 .027z" fill="#FFEC2D" stroke="#FFEC2D" stroke-width=".192"/><path d="M4.825 6.396s-.126-.108-.169-.054c-.068.085.213.512.213.661 0 .247-.166.314-.368.348-.136.024-.358-.009-.358-.009.042-.056.07-.074.139-.077a.29.29 0 01-.157-.267c0-.211.086-.3.086-.538 0-.13-.107-.3-.107-.3.191.02.286.196.232.338a.092.092 0 00.083-.025c.013.04-.008.085-.039.125.024.013.042.005.08-.003-.003.04-.027.084-.087.125.173-.045.278.075.278.2 0 .096-.066.165-.131.165a.132.132 0 01-.07-.023c-.013.027-.005.062.007.088-.048-.013-.08-.042-.057-.1a.117.117 0 01-.085-.04c.02-.026.05-.04.085-.04-.026-.055.004-.085.047-.11 0 0-.027.11.042.11.032 0 .06-.009.06-.056 0-.04-.035-.097-.117-.093-.082.004-.149.056-.149.188 0 .12.099.18.227.183.116.006.204-.057.204-.177 0-.16-.23-.522-.23-.664 0-.106.095-.167.19-.167.12 0 .222.121.222.121l-.07.09z" fill="#FFEC2D"/><path d="M4.85 9.271c0 .267-.238.403-.426.403-.252 0-.387-.15-.387-.349a.59.59 0 01.072-.289l.58-1.203a.354.354 0 00.027-.16c0-.108-.105-.196-.214-.197-.1-.004-.21.092-.21.2 0 .133.07.192.14.192.087 0 .12-.035.12-.097 0-.042-.019-.06-.049-.06-.075 0-.052.1-.052.1a.068.068 0 01-.052-.092.134.134 0 01-.072-.044.135.135 0 01.072-.04c-.017-.057.007-.084.057-.098a.1.1 0 00-.007.063c.079-.023.201.014.201.15 0 .137-.094.25-.272.223.042.02.063.06.069.107-.033-.014-.069-.014-.069-.014.021.036.05.066.049.14-.033-.016-.064-.044-.105-.027.066.132-.016.31-.223.352a.427.427 0 00.113-.28c0-.308-.086-.36-.086-.574a.315.315 0 01.138-.252v.004a.184.184 0 01-.122-.088c.146-.04.3-.04.446.004a.328.328 0 01.237.157.473.473 0 010 .38c-.083.17-.469.992-.59 1.249a.402.402 0 00-.04.176c0 .157.144.212.225.212.099 0 .2-.074.2-.168 0-.059-.033-.095-.079-.095-.111 0-.105.094-.083.154-.07-.031-.109-.086-.098-.144a.184.184 0 01-.11-.063.141.141 0 01.11-.062c-.022-.09.04-.128.098-.15-.018.066-.031.144.083.144.083 0 .147.013.185.068l.01-.354c.005-.107-.142-.105-.237-.073.036-.122.108-.189.276-.171a.131.131 0 01-.084-.13c0-.099.081-.21.134-.242L4.85 9.27v.001z" fill="#FFEC2D"/><path d="M4.85 10.07c0-.267-.238-.404-.426-.404-.252 0-.387.151-.387.35a.59.59 0 00.072.288l.58 1.204c.021.05.03.105.027.16 0 .107-.105.196-.214.197-.1.004-.21-.092-.21-.201 0-.133.07-.192.14-.192.087 0 .12.036.12.098 0 .041-.019.06-.049.06-.075 0-.052-.1-.052-.1a.067.067 0 00-.048.034.068.068 0 00-.004.058.134.134 0 00-.072.043.14.14 0 00.072.04c-.017.057.007.085.057.098a.1.1 0 01-.007-.063c.079.024.201-.013.201-.15 0-.136-.094-.25-.272-.223.042-.02.063-.06.069-.106-.033.013-.069.013-.069.013.021-.035.05-.065.049-.139-.033.016-.064.043-.105.026.066-.131-.016-.31-.223-.351a.426.426 0 01.113.28c0 .308-.086.359-.086.574a.315.315 0 00.138.252v-.004a.185.185 0 00-.122.088c.146.04.3.039.446-.004a.328.328 0 00.237-.158.472.472 0 000-.379c-.083-.17-.469-.992-.59-1.25a.402.402 0 01-.04-.175c0-.158.144-.213.225-.213.099 0 .2.075.2.168 0 .06-.033.096-.079.096-.111 0-.105-.094-.083-.155-.07.032-.109.087-.098.145a.184.184 0 00-.11.063.14.14 0 00.11.061c-.022.09.04.129.098.15-.018-.066-.031-.143.083-.143.083 0 .147-.013.185-.069l.01.355c.005.106-.142.105-.237.072.036.122.108.19.276.172a.131.131 0 00-.084.129c0 .1.081.21.134.242l.026-1.036v-.002zm-.027-3.674s.126-.108.17-.054c.068.085-.213.512-.213.661 0 .247.165.314.367.348.137.024.359-.009.359-.009-.042-.056-.07-.074-.14-.077a.29.29 0 00.158-.267c0-.211-.087-.3-.087-.538 0-.13.108-.3.108-.3-.192.02-.286.196-.232.338a.092.092 0 01-.083-.025c-.013.04.008.085.038.125-.024.013-.042.005-.079-.003.003.04.026.084.087.125-.173-.045-.278.075-.278.2 0 .096.065.165.13.165.022 0 .053-.01.07-.023.014.027.006.062-.006.088.047-.013.079-.042.056-.1a.117.117 0 00.086-.04.102.102 0 00-.086-.04c.027-.055-.004-.085-.047-.11 0 0 .028.11-.042.11-.031 0-.06-.009-.06-.056 0-.04.035-.097.118-.093.081.004.148.056.148.188 0 .12-.098.18-.227.183-.115.006-.203-.057-.203-.177 0-.16.23-.522.23-.664 0-.106-.095-.167-.19-.167-.12 0-.223.121-.223.121l.071.09z" fill="#FFEC2D"/><path d="M4.798 9.271c0 .267.238.403.426.403.252 0 .387-.15.387-.349a.59.59 0 00-.072-.289l-.58-1.203a.354.354 0 01-.026-.16c0-.108.105-.196.214-.197.1-.004.21.092.21.2 0 .133-.07.192-.14.192-.087 0-.121-.035-.121-.097 0-.042.02-.06.05-.06.074 0 .052.1.052.1a.068.068 0 00.051-.092.134.134 0 00.072-.044.135.135 0 00-.072-.039c.017-.058-.006-.085-.056-.098a.1.1 0 01.006.063c-.079-.024-.2.013-.2.15 0 .136.094.25.271.222-.042.02-.063.06-.068.107.033-.014.068-.014.068-.014-.02.036-.05.066-.048.14.032-.016.064-.044.105-.027-.066.132.015.31.223.352a.427.427 0 01-.113-.28c0-.308.085-.36.085-.574a.315.315 0 00-.138-.252v.004a.184.184 0 00.122-.088.814.814 0 00-.446.004.328.328 0 00-.236.157.472.472 0 000 .38c.083.17.468.992.59 1.249a.42.42 0 01.04.176c0 .157-.145.212-.226.212-.098 0-.2-.074-.2-.168 0-.059.033-.095.08-.095.11 0 .104.094.082.154.07-.031.109-.086.098-.144a.184.184 0 00.11-.063.14.14 0 00-.11-.062c.023-.09-.039-.128-.098-.15.018.066.032.144-.083.144-.082 0-.147.013-.185.068l-.009-.354c-.005-.107.142-.105.236-.072-.035-.123-.107-.19-.275-.172a.131.131 0 00.084-.129.34.34 0 00-.134-.243L4.798 9.27v.001z" fill="#FFEC2D"/><path d="M4.798 10.07c0-.267.238-.404.426-.404.252 0 .387.151.387.35a.59.59 0 01-.072.288l-.58 1.204a.354.354 0 00-.026.16c0 .108.105.196.214.197.1.004.21-.092.21-.201 0-.133-.07-.192-.14-.192-.087 0-.121.036-.121.098 0 .041.02.06.05.06.074 0 .052-.1.052-.1a.069.069 0 01.056.063c0 .01-.001.02-.005.029a.134.134 0 01.072.043.135.135 0 01-.072.04c.017.057-.006.085-.056.098a.1.1 0 00.006-.063c-.079.024-.2-.013-.2-.15 0-.136.094-.25.271-.223-.042-.02-.063-.06-.068-.106a.21.21 0 00.068.013c-.02-.035-.05-.065-.048-.139.032.016.064.043.105.026-.066-.13.015-.31.223-.351a.428.428 0 00-.113.28c0 .308.085.359.085.574a.315.315 0 01-.138.252v-.004a.184.184 0 01.122.088.813.813 0 01-.446-.004.328.328 0 01-.236-.157.472.472 0 010-.38c.083-.17.468-.992.59-1.25a.402.402 0 00.04-.175c0-.158-.145-.213-.226-.213-.098 0-.2.075-.2.168 0 .06.033.096.08.096.11 0 .104-.094.082-.155.07.032.109.087.098.145.044.007.083.03.11.063a.138.138 0 01-.11.061c.023.09-.039.129-.098.15.018-.066.032-.143-.083-.143-.082 0-.147-.013-.185-.068l-.009.354c-.005.106.142.105.236.072-.035.122-.107.19-.275.172a.132.132 0 01.084.129c0 .1-.082.21-.134.242l-.026-1.036v-.002zm.027 7.534s-.126.108-.169.054c-.068-.085.213-.512.213-.661 0-.247-.166-.314-.368-.348-.136-.024-.358.01-.358.01.042.056.07.073.139.076a.29.29 0 00-.157.267c0 .211.086.3.086.538 0 .13-.107.3-.107.3.191-.02.286-.196.232-.338a.092.092 0 01.083.025c.013-.04-.008-.085-.039-.125.024-.013.042-.005.08.003-.003-.04-.027-.084-.087-.125.173.045.278-.075.278-.2 0-.096-.066-.165-.131-.165a.133.133 0 00-.07.023c-.013-.027-.005-.062.007-.088-.048.013-.08.042-.057.1a.117.117 0 00-.085.04c.02.026.05.04.085.04-.026.055.004.085.047.11 0 0-.027-.11.042-.11.032 0 .06.009.06.056 0 .04-.035.097-.117.093-.082-.004-.149-.056-.149-.188 0-.12.099-.18.227-.183.116-.006.204.057.204.177 0 .16-.23.522-.23.664 0 .106.095.167.19.167.12 0 .222-.121.222-.121l-.07-.09z" fill="#FFEC2D"/><path d="M4.85 14.729c0-.267-.238-.403-.426-.403-.252 0-.387.15-.387.349a.59.59 0 00.072.289l.58 1.203c.021.05.03.106.027.16 0 .108-.105.196-.214.197-.1.004-.21-.092-.21-.2 0-.133.07-.192.14-.192.087 0 .12.035.12.097 0 .042-.019.06-.049.06-.075 0-.052-.1-.052-.1a.069.069 0 00-.056.063c0 .01 0 .02.004.03a.134.134 0 00-.072.043.14.14 0 00.072.04c-.017.057.007.084.057.098a.1.1 0 01-.007-.064c.079.024.201-.013.201-.15 0-.136-.094-.25-.272-.222.042-.02.063-.06.069-.107-.033.014-.069.014-.069.014.021-.036.05-.066.049-.14-.033.016-.064.044-.105.027.066-.131-.016-.31-.223-.352a.43.43 0 01.113.28c0 .308-.086.36-.086.574a.315.315 0 00.138.252v-.003a.183.183 0 00-.122.087c.146.04.3.04.446-.003a.328.328 0 00.237-.158.473.473 0 000-.38c-.083-.17-.469-.992-.59-1.249a.403.403 0 01-.04-.176c0-.157.144-.212.225-.212.099 0 .2.075.2.168 0 .059-.033.096-.079.096-.111 0-.105-.095-.083-.155-.07.031-.109.086-.098.144a.183.183 0 00-.11.063.14.14 0 00.11.062c-.022.09.04.128.098.15-.018-.066-.031-.144.083-.144.083 0 .147-.013.185-.068l.01.354c.005.107-.142.105-.237.072.036.123.108.19.276.172a.131.131 0 00-.084.13c0 .099.081.21.134.242l.026-1.037v-.001z" fill="#FFEC2D"/><path d="M4.85 13.93c0 .267-.238.404-.426.404-.252 0-.387-.151-.387-.35a.59.59 0 01.072-.288l.58-1.204a.355.355 0 00.027-.16c0-.107-.105-.195-.214-.197-.1-.004-.21.092-.21.201 0 .133.07.192.14.192.087 0 .12-.036.12-.097 0-.042-.019-.06-.049-.06-.075 0-.052.099-.052.099a.07.07 0 01-.048-.034.069.069 0 01-.004-.058.134.134 0 01-.072-.043.135.135 0 01.072-.04c-.017-.057.007-.085.057-.098a.1.1 0 00-.007.063c.079-.024.201.013.201.15 0 .136-.094.25-.272.223.042.02.063.06.069.106-.033-.013-.069-.013-.069-.013.021.035.05.065.049.139-.033-.016-.064-.043-.105-.026.066.131-.016.31-.223.351a.427.427 0 00.113-.279c0-.309-.086-.36-.086-.575a.315.315 0 01.138-.252v.004A.183.183 0 014.142 12c.146-.04.3-.039.446.004a.328.328 0 01.237.158.473.473 0 010 .379c-.083.17-.469.992-.59 1.25a.403.403 0 00-.04.175c0 .158.144.213.225.213.099 0 .2-.075.2-.168 0-.06-.033-.096-.079-.096-.111 0-.105.095-.083.155-.07-.032-.109-.087-.098-.145a.184.184 0 01-.11-.063.138.138 0 01.11-.061c-.022-.09.04-.129.098-.15-.018.066-.031.143.083.143.083 0 .147.013.185.069l.01-.355c.005-.106-.142-.105-.237-.072.036-.122.108-.189.276-.172a.131.131 0 01-.084-.129c0-.1.081-.21.134-.242l.026 1.037zm-.027 3.674s.126.108.17.054c.068-.085-.213-.512-.213-.661 0-.247.165-.314.367-.348.137-.024.359.01.359.01-.042.056-.07.073-.14.076a.29.29 0 01.158.267c0 .211-.087.3-.087.538 0 .13.108.3.108.3-.192-.02-.286-.196-.232-.338a.092.092 0 00-.083.025c-.013-.04.008-.085.038-.125-.024-.013-.042-.005-.079.003.003-.04.026-.084.087-.125-.173.045-.278-.075-.278-.2 0-.096.065-.165.13-.165.022 0 .053.01.07.023.014-.027.006-.062-.006-.088.047.013.079.042.056.1a.117.117 0 01.086.04.102.102 0 01-.086.04c.027.055-.004.085-.047.11 0 0 .028-.11-.042-.11-.031 0-.06.009-.06.056 0 .04.035.097.118.093.081-.004.148-.056.148-.188 0-.12-.098-.18-.227-.183-.115-.006-.203.057-.203.177 0 .16.23.522.23.664 0 .106-.095.167-.19.167-.12 0-.223-.121-.223-.121l.071-.09z" fill="#FFEC2D"/><path d="M4.798 14.729c0-.267.238-.403.426-.403.252 0 .387.15.387.349a.59.59 0 01-.072.289l-.58 1.203a.354.354 0 00-.026.16c0 .108.105.196.214.197.1.004.21-.092.21-.2 0-.133-.07-.192-.14-.192-.087 0-.121.035-.121.097 0 .042.02.06.05.06.074 0 .052-.1.052-.1a.069.069 0 01.056.063c0 .01-.001.02-.005.03a.134.134 0 01.072.043.136.136 0 01-.072.04c.017.057-.006.084-.056.098a.1.1 0 00.006-.064c-.079.024-.2-.013-.2-.15 0-.136.094-.25.271-.222-.042-.02-.063-.06-.068-.107.033.014.068.014.068.014-.02-.036-.05-.066-.048-.14.032.016.064.044.105.027-.066-.131.015-.31.223-.352a.427.427 0 00-.113.28c0 .308.085.36.085.574a.315.315 0 01-.138.252v-.003a.183.183 0 01.122.087.814.814 0 01-.446-.003.328.328 0 01-.236-.158.473.473 0 010-.38c.083-.17.468-.992.59-1.249a.403.403 0 00.04-.176c0-.157-.145-.212-.226-.212-.098 0-.2.075-.2.168 0 .059.033.096.08.096.11 0 .104-.095.082-.155.07.031.109.086.098.144.044.007.083.03.11.063a.14.14 0 01-.11.062c.023.09-.039.128-.098.15.018-.066.032-.144-.083-.144-.082 0-.147-.013-.185-.068l-.009.354c-.005.107.142.105.236.072-.035.123-.107.19-.275.172a.131.131 0 01.084.13.34.34 0 01-.134.242l-.026-1.037v-.001z" fill="#FFEC2D"/><path d="M4.798 13.93c0 .267.238.404.426.404.252 0 .387-.151.387-.35a.59.59 0 00-.072-.288l-.58-1.204a.355.355 0 01-.026-.16c0-.107.105-.195.214-.197.1-.004.21.092.21.201 0 .133-.07.192-.14.192-.087 0-.121-.036-.121-.097 0-.042.02-.06.05-.06.074 0 .052.099.052.099a.07.07 0 00.047-.034.069.069 0 00.004-.058.134.134 0 00.072-.043.135.135 0 00-.072-.04c.017-.057-.006-.085-.056-.098a.1.1 0 01.006.063c-.079-.024-.2.013-.2.15 0 .136.094.25.271.223-.042.02-.063.06-.068.106.033-.013.068-.013.068-.013-.02.035-.05.065-.048.139.032-.016.064-.043.105-.026-.066.131.015.31.223.351a.427.427 0 01-.113-.279c0-.309.085-.36.085-.575a.315.315 0 00-.138-.252v.004A.183.183 0 005.506 12a.813.813 0 00-.446.004.328.328 0 00-.236.158.473.473 0 000 .379c.083.17.468.992.59 1.25.025.054.04.112.04.175 0 .158-.145.213-.226.213-.098 0-.2-.075-.2-.168 0-.06.033-.096.08-.096.11 0 .104.095.082.155.07-.032.109-.087.098-.145a.184.184 0 00.11-.063.138.138 0 00-.11-.061c.023-.09-.039-.129-.098-.15.018.066.032.143-.083.143-.082 0-.147.013-.185.069l-.009-.355c-.005-.106.142-.105.236-.072-.035-.122-.107-.189-.275-.172a.131.131 0 00.084-.129.34.34 0 00-.134-.242l-.026 1.037z" fill="#FFEC2D"/></svg>