<svg width="169" height="33" fill="none" xmlns="http://www.w3.org/2000/svg"><g clip-path="url(#clip0_1230_272)"><g clip-path="url(#clip1_1230_272)"><mask id="a" style="mask-type:luminance" maskUnits="userSpaceOnUse" x="0" y="15" width="9" height="5"><path d="M0 15.346h8.85v4.072H0v-4.072z" fill="#fff"/></mask><g mask="url(#a)"><path d="M8.391 17.284c0-.98-.718-1.775-1.607-1.775H1.607C.72 15.51 0 16.305 0 17.284c0 .98.72 1.772 1.607 1.772h5.177c.889 0 1.607-.793 1.607-1.772z" fill="#0C131E"/></g><path d="M12.02 22.71H9.08c-.867 0-1.57.793-1.57 1.773 0 .98.703 1.775 1.57 1.775h2.94c.867 0 1.571-.796 1.571-1.775 0-.98-.704-1.773-1.57-1.773z" fill="#0C131E"/><mask id="b" style="mask-type:luminance" maskUnits="userSpaceOnUse" x="27" y="0" width="22" height="33"><path d="M27.291.222h21.71v32.631H27.29V.222z" fill="#fff"/></mask><g mask="url(#b)"><path d="M36.542.349c6.792 3.91 9.824 12.997 6.776 20.911-2.71 7.037-9.358 10.898-15.905 9.782a13.651 13.651 0 006.769 1.804c8.183 0 14.816-7.32 14.816-16.353 0-8.146-5.394-14.899-12.456-16.144z" fill="#0C131E"/></g><mask id="c" style="mask-type:luminance" maskUnits="userSpaceOnUse" x="10" y="0" width="35" height="32"><path d="M10.957.133h33.721v31.5h-33.72V.133z" fill="#fff"/></mask><g mask="url(#c)"><path d="M33.171 17.94c-2.922-1.083-4.917-2.592-4.917-5.516 0-2.654 1.694-4.734 4.617-5.367V4.19h2.677v2.654c1.832.091 3.06.511 3.962.995l-.792 3.409c-.71-.332-1.968-1.027-3.933-1.027-1.776 0-2.35.845-2.35 1.688 0 .995.956 1.63 3.278 2.595 3.25 1.266 4.56 2.924 4.56 5.637 0 2.684-1.72 4.974-4.86 5.579v3.074h-2.678V25.93c-1.83-.091-3.606-.632-4.643-1.295l.819-3.527c1.146.69 2.758 1.325 4.534 1.325 1.558 0 2.622-.664 2.622-1.87 0-1.145-.873-1.868-2.896-2.622zm10.147 3.32c3.048-7.914.016-17-6.776-20.911a13.509 13.509 0 00-2.36-.207c-4.063 0-7.743 1.807-10.419 4.73h1.842c.887 0 1.608.794 1.608 1.773 0 .98-.72 1.773-1.608 1.773h-9.467c-.887 0-1.607.795-1.607 1.774 0 .98.72 1.773 1.607 1.773h6.176c.887 0 1.608.793 1.608 1.772 0 .98-.72 1.772-1.608 1.772h-9.467c-.887 0-1.605.796-1.605 1.775 0 .98.718 1.772 1.605 1.772h11.159c.887 0 1.608.796 1.608 1.775 0 .98-.72 1.772-1.608 1.772h-6.868c-.887 0-1.607.793-1.607 1.773 0 .979.72 1.774 1.607 1.774h5.088c1.356 2.043 3.13 3.724 5.186 4.892 6.547 1.116 13.195-2.745 15.906-9.782z" fill="#0C131E"/></g></g><path d="M61.401 25v-5.238h-.027l-5.157-9.963h4.239l2.889 6.777 2.889-6.777h4.239l-5.319 9.963V25h-3.753zm16.547.378c-2.52 0-4.446-.711-5.778-2.133-1.332-1.44-1.998-3.375-1.998-5.805 0-1.602.288-2.988.864-4.158a6.187 6.187 0 012.592-2.754c1.152-.666 2.592-.999 4.32-.999 2.52 0 4.437.72 5.751 2.16 1.314 1.422 1.971 3.339 1.971 5.751 0 1.566-.297 2.952-.89 4.158a6.344 6.344 0 01-2.593 2.781c-1.134.666-2.547.999-4.239.999zm-.054-3.645c.918 0 1.674-.189 2.268-.567a3.553 3.553 0 001.35-1.566 5.11 5.11 0 00.46-2.16c0-.792-.154-1.521-.46-2.187a3.525 3.525 0 00-1.35-1.593c-.594-.396-1.35-.594-2.268-.594-1.314 0-2.322.414-3.024 1.242-.684.828-1.026 1.872-1.026 3.132 0 .756.144 1.467.432 2.133.306.648.756 1.17 1.35 1.566.594.396 1.35.594 2.268.594zm17.52 3.645c-2.267 0-3.986-.594-5.156-1.782-1.152-1.206-1.728-2.898-1.728-5.076V9.799h4.05v8.694c0 .756.099 1.359.297 1.809.198.432.44.756.729.972.306.216.62.36.945.432.324.054.612.081.864.081a4.52 4.52 0 001.269-.189c.45-.126.828-.423 1.134-.891.306-.468.459-1.206.459-2.214V9.799h4.05v8.721c0 2.214-.576 3.915-1.728 5.103-1.134 1.17-2.862 1.755-5.184 1.755zm16.667-.108c-1.44 0-2.754-.288-3.942-.864a6.673 6.673 0 01-2.835-2.592c-.702-1.152-1.044-2.583-1.026-4.293.018-1.674.369-3.105 1.053-4.293.702-1.206 1.647-2.124 2.835-2.754 1.188-.63 2.52-.945 3.996-.945 1.53 0 2.817.279 3.861.837 1.044.54 1.854 1.26 2.43 2.16a7.033 7.033 0 011.134 2.862h-3.888c-.09-.684-.351-1.188-.783-1.512a3.097 3.097 0 00-1.404-.621 6.52 6.52 0 00-1.35-.162c-1.404 0-2.448.369-3.132 1.107-.684.72-1.026 1.728-1.026 3.024 0 1.422.333 2.529.999 3.321.666.792 1.71 1.188 3.132 1.188.414 0 .882-.054 1.404-.162.522-.126.99-.369 1.404-.729.432-.36.693-.9.783-1.62h3.915a8.06 8.06 0 01-1.161 2.997c-.594.918-1.422 1.656-2.484 2.214-1.044.558-2.349.837-3.915.837zm9.002-.27l4.374-15.201h6.183L136.176 25h-4.023l-.999-3.807h-5.049L125.133 25h-4.05zm7.533-13.635l-1.782 6.966h3.591l-1.809-6.966zm15.817 13.905c-.864 0-1.71-.099-2.538-.297a7.128 7.128 0 01-2.241-.945 5.317 5.317 0 01-1.62-1.728c-.396-.702-.594-1.548-.594-2.538h3.78c0 .108.036.279.108.513.09.216.252.45.486.702.252.252.603.468 1.053.648.468.162 1.089.243 1.863.243.342 0 .693-.027 1.053-.081.36-.054.666-.162.918-.324.252-.18.378-.45.378-.81 0-.378-.18-.675-.54-.891-.342-.216-.801-.387-1.377-.513a42.74 42.74 0 00-1.863-.432 20.555 20.555 0 01-1.998-.54 7.817 7.817 0 01-1.836-.864 4.037 4.037 0 01-1.269-1.431c-.288-.594-.405-1.332-.351-2.214.09-1.332.72-2.367 1.89-3.105 1.17-.756 2.799-1.134 4.887-1.134a8.22 8.22 0 013.132.594c.99.396 1.791.999 2.403 1.809.63.81.945 1.836.945 3.078h-3.645c0-.558-.189-.972-.567-1.242-.36-.288-.801-.477-1.323-.567a7.891 7.891 0 00-1.377-.135c-.666 0-1.224.081-1.674.243-.432.162-.648.477-.648.945 0 .414.18.738.54.972.36.216.828.396 1.404.54.576.126 1.206.261 1.89.405a20.49 20.49 0 012.079.486 6.587 6.587 0 011.836.837c.558.342.99.801 1.296 1.377.324.576.45 1.314.378 2.214-.09 1.314-.756 2.34-1.998 3.078-1.224.738-2.844 1.107-4.86 1.107zm13.553-.27h-3.78V9.799h3.78v6.129h5.805V9.799h3.78V25h-3.78v-6.21h-5.805V25z" fill="#0C131E"/></g><defs><clipPath id="clip0_1230_272"><path fill="#fff" d="M0 0h169v33H0z"/></clipPath><clipPath id="clip1_1230_272"><path fill="#fff" d="M0 0h49v33H0z"/></clipPath></defs></svg>