<svg width="250" height="250" fill="none" xmlns="http://www.w3.org/2000/svg"><g clip-path="url(#clip0_1282_2623)"><path d="M89.346 100.154a1 1 0 00-.641 1.895l.64-1.895zm48.068 17.317l-.321.947c.383.129.806.016 1.072-.287l-.751-.66zm34.472-37.71a1 1 0 10-1.502-1.32l1.502 1.32zM25.321 161.138a1 1 0 00.518 1.932l-.518-1.932zm38.47-8.237a1 1 0 00-.517-1.932l.518 1.932zm-64.05-14.244a1 1 0 00.518 1.932l-.518-1.932zm56.717-13.126a1 1 0 00-.517-1.932l.517 1.932zm-8.557-28.078a1 1 0 001.932-.517l-1.932.517zm-.257-4.82l-.965.259.965-.259zm13.358-23.136l-.259-.966.259.966zm118.602-31.78l.259.967-.259-.966zm23.136 13.358l.966-.259-.966.26zm24.446 91.233l-.966.259.966-.259zm-13.358 23.136l.259.966-.259-.966zM95.226 197.223l-.259-.966.259.966zM72.09 183.866l-.966.258.966-.258zm-.256-4.821a1 1 0 00-1.932.518l1.932-.518zm16.871-76.996l48.388 16.369.641-1.894-48.388-16.37-.641 1.895zm49.46 16.082l33.721-38.37-1.502-1.32-33.721 38.37 1.502 1.32zM25.839 163.07l37.953-10.169-.518-1.932-37.953 10.169.518 1.932zM.26 140.589l56.2-15.058-.519-1.932-56.199 15.058.518 1.932zm49.574-43.653l-1.223-4.562-1.931.518 1.222 4.562 1.932-.518zm-1.223-4.562A17.89 17.89 0 0150.398 78.8l-1.733-1a19.89 19.89 0 00-1.986 15.093l1.931-.518zM50.398 78.8a17.89 17.89 0 0110.863-8.336l-.518-1.932A19.89 19.89 0 0048.665 77.8l1.733 1zm10.863-8.336l118.602-31.78-.518-1.931-118.602 31.78.518 1.931zm118.602-31.78a17.889 17.889 0 0113.575 1.788l1-1.732a19.89 19.89 0 00-15.093-1.987l.518 1.932zm13.575 1.788a17.888 17.888 0 018.336 10.863l1.932-.518a19.892 19.892 0 00-9.268-12.077l-1 1.732zm8.336 10.863l24.446 91.233 1.932-.518-24.446-91.233-1.932.518zm24.446 91.233a17.887 17.887 0 01-1.788 13.575l1.732 1a19.89 19.89 0 001.988-15.093l-1.932.518zm-1.788 13.575a17.89 17.89 0 01-10.863 8.336l.518 1.932a19.89 19.89 0 0012.077-9.268l-1.732-1zm-10.863 8.336L94.967 196.257l.518 1.932 118.602-31.779-.518-1.932zM94.967 196.257a17.892 17.892 0 01-13.575-1.787l-1 1.732a19.89 19.89 0 0015.093 1.987l-.518-1.932zm-13.575-1.787a17.892 17.892 0 01-8.336-10.863l-1.932.517a19.89 19.89 0 009.268 12.078l1-1.732zm-8.336-10.863l-1.222-4.562-1.932.518 1.222 4.561 1.932-.517z" fill="#FFC750"/></g><defs><clipPath id="clip0_1282_2623"><path fill="#fff" d="M0 0h250v250H0z"/></clipPath></defs></svg>