<svg width="1660" height="554" fill="none" xmlns="http://www.w3.org/2000/svg"><path clip-rule="evenodd" d="M107.961 337.481l54.058-106.841c11.221-22.176 2.34-49.249-19.836-60.469-22.176-11.22-49.249-2.339-60.47 19.837L9.054 333.615c-31.61 62.474 32.037 130.35 96.413 102.818l773.523-330.82-158.47 340.434c-28.873 62.025 33.573 127.154 96.757 100.916l727.533-302.117-152.91 239.02c-13.4 20.935-7.28 48.764 13.65 62.157 20.94 13.393 48.77 7.279 62.16-13.657l178.67-279.29c39.57-61.856-24.12-137.844-91.94-109.683L818.396 449.047 977.124 108.06c29.036-62.377-34.226-127.665-97.486-100.61L107.961 337.482z" stroke="#0C131E" stroke-opacity=".15" stroke-linecap="round"/></svg>