<svg width="455" height="567" fill="none" xmlns="http://www.w3.org/2000/svg"><path d="M-209.303 168.151l.087.493-.087-.493zm388.019 388.02l-.492-.088.492.088zm70.961-292.16l-.354.353.354-.353zm-20.301 6.39l.492.087-.492-.087zm144.247 90.864l-.493-.088.493.088zm-20.301 6.39l.353-.353-.353.353zm100.911-461.11l.492.088-.492-.088zM82.857 97.19l.353-.353-.353.353zm-6.391 20.301l-.087-.492.087.492zM-20.787-6.454l-.354.354.354-.354zm-.354.354L82.503 97.544l.707-.707L-20.434-6.807l-.707.707zm461.376-101.757l-454.719 80.61.175.985 454.719-80.611-.175-.984zm-66.12 469.209l80.61-454.72-.984-.174-80.611 454.719.985.175zm-124.792-96.988l103.645 103.645.707-.707L250.03 263.657l-.707.707zm-70.115 291.894l50.66-285.77-.985-.174-50.659 285.769.984.175zm-395.256-367.452l374.109 374.109.707-.707-374.108-374.109-.708.707zm292.427-71.807l-285.77 50.66.175.985 285.77-50.66-.175-.985zm-291.719 71.1c-6.576-6.576-3.033-17.832 6.124-19.455l-.175-.985c-9.953 1.764-13.804 13.999-6.657 21.147l.708-.707zm393.564 367.984c-1.624 9.157-12.88 12.7-19.456 6.125l-.707.707c7.148 7.147 19.383 3.296 21.147-6.657l-.984-.175zm71.806-292.426c-7.147-7.148-19.382-3.296-21.147 6.657l.985.174c1.623-9.156 12.879-12.7 19.455-6.124l.707-.707zm123.1 97.52c-1.623 9.157-12.879 12.701-19.455 6.125l-.707.707c7.148 7.148 19.382 3.296 21.147-6.657l-.985-.175zm67.28-468.05c7.868-1.394 14.726 5.463 13.331 13.331l.984.175c1.517-8.553-5.937-16.006-14.49-14.49l.175.984zM82.503 97.544c6.576 6.576 3.033 17.832-6.124 19.455l.174.985c9.954-1.765 13.805-13.999 6.657-21.147l-.707.707zM-20.434-6.807c-6.576-6.576-3.032-17.832 6.125-19.455l-.175-.985c-9.953 1.765-13.804 14-6.657 21.147l.707-.707z" fill="#0C131E" fill-opacity=".15"/></svg>