<svg width="483" height="590" fill="none" xmlns="http://www.w3.org/2000/svg"><path fill-rule="evenodd" clip-rule="evenodd" d="M68.811 252.15A500.89 500.89 0 00252.15 936.379a.5.5 0 01-.5.866A501.892 501.892 0 01372.696 17.806a501.89 501.89 0 01380.844 50.14.5.5 0 11-.5.865 500.89 500.89 0 00-380.085-50.039A500.887 500.887 0 0068.811 252.15zm136.675 78.898a345.673 345.673 0 00126.525 472.198.5.5 0 11-.5.866 346.674 346.674 0 01346.672-600.455.5.5 0 11-.5.866 345.672 345.672 0 00-472.197 126.525zm114.31 225.081A194.838 194.838 0 01457.568 317.5a194.838 194.838 0 01147.848 19.464.5.5 0 10.5-.866 195.837 195.837 0 00-267.521 71.683 195.838 195.838 0 0071.682 267.521.5.5 0 00.5-.866 194.834 194.834 0 01-90.781-118.307z" fill="#0C131E" fill-opacity=".15"/></svg>