<svg width="24" height="24" fill="none" xmlns="http://www.w3.org/2000/svg"><path d="M16.849 12.593c-.233-.456-.89-.84-1.763-.192-1.19.912-3.086.912-3.086.912s-1.896 0-3.086-.912c-.873-.648-1.53-.264-1.763.192-.416.8.05 1.192 1.106 1.84.907.56 2.146.768 2.945.848l-.666.64c-.948.905-1.863 1.777-2.487 2.385-.374.368-.374.952 0 1.296l.117.128c.374.36.99.36 1.364 0L12 17.346c.957.904 1.863 1.776 2.495 2.384.374.36.982.36 1.364 0l.108-.128c.383-.344.383-.928 0-1.296L13.49 15.92l-.657-.648c.79-.072 2.012-.288 2.91-.84 1.057-.648 1.523-1.04 1.107-1.84zM12 6.056c1.148 0 2.08.896 2.08 1.993 0 1.104-.932 1.992-2.08 1.992-1.148 0-2.08-.888-2.08-1.992 0-1.097.932-1.993 2.08-1.993zm0 6.041c2.329 0 4.208-1.808 4.208-4.048a3.972 3.972 0 00-1.232-2.863A4.294 4.294 0 0012 4a4.294 4.294 0 00-2.976 1.186 3.972 3.972 0 00-1.232 2.863c0 2.24 1.88 4.048 4.208 4.048z" fill="#EE8208"/></svg>