<svg width="89" height="48" fill="none" xmlns="http://www.w3.org/2000/svg"><path d="M21.44 29.53h2.39V18.971h3.16v-3.628h-5.55V29.53zm-4.92-11.247c.96 0 1.53.676 1.689 2.107H14.66c.272-1.34.942-2.107 1.86-2.107zm-.024 8.085c-1.168 0-1.897-1.234-1.963-3.242h5.928s.037-.73.037-1.48c0-4.255-1.549-6.646-3.977-6.646-2.565 0-4.35 3.06-4.35 7.417 0 4.417 1.76 7.457 4.325 7.457 2.379 0 3.977-2.25 4.027-5.553h-2.379c-.136 1.297-.719 2.047-1.648 2.047zm64.998-11.024v3.628h2.478v10.557h2.391V18.972h2.479v-3.628h-7.348zm-73.522 0l-1.646 8.691-1.6-8.69h-2.64L.711 29.528h2.193l.837-8.824 1.616 8.824h1.884l1.674-8.982.804 8.982h2.23l-1.376-14.185H7.972zM30.52 26.57c-.607 0-.904-.486-.904-1.195 0-.669.21-1.094.867-1.398l2.07-.951v.262c0 1.824-.88 3.283-2.033 3.283zM31.375 15c-2.552 0-4.002 2.047-3.94 5.532h2.478c.013-1.48.471-2.188 1.462-2.188.707 0 1.153.486 1.153 1.215 0 .466-.112.649-.545.851l-1.995.892c-1.909.851-2.763 2.148-2.763 4.316 0 2.533 1.127 4.235 2.787 4.235 1.289 0 2.132-.85 2.553-2.452v2.128h2.292v-9.422c0-3.425-1.326-5.107-3.482-5.107zm41.509.344h-2.64l-1.858 5.269h-.954v-5.269h-2.391V29.53h2.391V24.1h.94l1.997 5.43h2.7l-2.638-7.234 2.453-6.95zM50.656 26.57c-.594 0-.892-.486-.892-1.195 0-.669.211-1.074.867-1.378l2.07-.951v.242c0 1.925-.88 3.283-2.045 3.283zM51.524 15c-2.553 0-4.002 2.047-3.94 5.532h2.477c.013-1.48.471-2.188 1.463-2.188.706 0 1.152.486 1.152 1.215 0 .466-.112.649-.545.851l-1.995.892c-1.908.851-2.763 2.148-2.763 4.316 0 2.533 1.127 4.235 2.788 4.235 1.288 0 2.13-.83 2.552-2.452v2.128h2.292v-9.422c0-3.425-1.326-5.107-3.481-5.107zm8.659 11.226c-1.065 0-1.71-1.216-1.71-3.79 0-2.552.657-3.809 1.735-3.809 1.016 0 1.623 1.236 1.623 3.81 0 2.675-.582 3.789-1.648 3.789zM60.853 15c-1.145 0-2.004.953-2.343 2.471v-2.127h-2.39V33.4h2.39v-5.954c.355 1.506 1.207 2.408 2.342 2.408 1.983 0 3.308-2.512 3.308-7.416S62.835 15 60.852 15zm-18.003.344l-1.645 8.691-1.6-8.69h-2.64L35.59 29.528h2.193l.837-8.824 1.616 8.824h1.883l1.675-8.982.804 8.982h2.23l-1.376-14.185H42.85z" fill="#754AAA"/><path d="M76.986 18.283c.958 0 1.53.676 1.688 2.107h-3.549c.272-1.34.942-2.107 1.86-2.107zm-.025 8.085c-1.157 0-1.896-1.234-1.963-3.242h5.928s.037-.73.037-1.48c0-4.255-1.549-6.646-3.977-6.646-2.565 0-4.35 3.06-4.35 7.417 0 4.417 1.76 7.457 4.325 7.457 2.379 0 3.977-2.25 4.027-5.553h-2.38c-.135 1.297-.718 2.047-1.647 2.047z" fill="#754AAA"/></svg>