<svg width="154" height="48" fill="none" xmlns="http://www.w3.org/2000/svg"><path d="M43.243 29.319h3.508v-8.952h4.636v-3.075h-8.144V29.32zm-7.215-9.536c1.406 0 2.244.574 2.476 1.787h-5.206c.398-1.136 1.381-1.787 2.73-1.787zm-.037 6.855c-1.714 0-2.782-1.046-2.88-2.748h8.697s.055-.619.055-1.255c0-3.608-2.273-5.635-5.835-5.635-3.763 0-6.38 2.594-6.38 6.288 0 3.746 2.58 6.323 6.343 6.323 3.49 0 5.835-1.907 5.908-4.708h-3.49c-.2 1.1-1.054 1.736-2.418 1.736zm95.359-9.346v3.075h3.635v8.952h3.508v-8.952h3.636v-3.075H131.35zm-107.865 0l-2.414 7.368-2.349-7.368h-3.871L12.833 29.32h3.217l1.228-7.482 2.372 7.482h2.763l2.456-7.616 1.179 7.616h3.272l-2.018-12.027h-3.817zm33.084 9.518c-.891 0-1.327-.412-1.327-1.013 0-.567.309-.928 1.272-1.186l3.036-.806v.222c0 1.546-1.29 2.783-2.981 2.783zM57.823 17c-3.745 0-5.871 1.735-5.78 4.69h3.635c.018-1.254.69-1.855 2.145-1.855 1.036 0 1.69.412 1.69 1.03 0 .396-.163.55-.8.722l-2.926.756c-2.8.722-4.054 1.821-4.054 3.66 0 2.147 1.655 3.59 4.09 3.59 1.89 0 3.127-.721 3.745-2.078v1.804h3.363v-7.99c0-2.903-1.945-4.329-5.108-4.329zm60.893.292h-3.872l-2.727 4.467h-1.399v-4.467h-3.508V29.32h3.508v-4.605h1.378l2.93 4.605h3.963l-3.871-6.134 3.598-5.893zm-32.61 9.518c-.873 0-1.309-.412-1.309-1.013 0-.567.31-.911 1.272-1.169l3.036-.806v.205c0 1.632-1.29 2.783-3 2.783zM87.378 17c-3.744 0-5.87 1.735-5.78 4.69h3.635c.019-1.254.691-1.855 2.145-1.855 1.037 0 1.69.412 1.69 1.03 0 .396-.163.55-.799.722l-2.927.756c-2.799.722-4.053 1.821-4.053 3.66 0 2.147 1.654 3.59 4.09 3.59 1.89 0 3.126-.704 3.744-2.078v1.804h3.363v-7.99c0-2.903-1.945-4.329-5.108-4.329zm12.706 9.518c-1.563 0-2.508-1.03-2.508-3.213 0-2.164.963-3.23 2.545-3.23 1.49 0 2.381 1.048 2.381 3.23 0 2.268-.855 3.213-2.418 3.213zm.982-9.518c-1.68 0-2.939.808-3.436 2.096v-1.804h-3.508V32.6h3.508v-5.048c.52 1.276 1.771 2.041 3.436 2.041 2.908 0 4.853-2.13 4.853-6.288 0-4.157-1.945-6.305-4.853-6.305zm-26.412.292L72.24 24.66l-2.349-7.368H66.02L64.002 29.32h3.217l1.228-7.482 2.371 7.482h2.763l2.457-7.616 1.18 7.616h3.271l-2.018-12.027h-3.817z" fill="#754AAA"/><path d="M124.732 19.783c1.406 0 2.244.574 2.476 1.787h-5.206c.399-1.136 1.381-1.787 2.73-1.787zm-.036 6.855c-1.697 0-2.782-1.046-2.881-2.748h8.697s.055-.619.055-1.255c0-3.608-2.272-5.635-5.835-5.635-3.763 0-6.38 2.594-6.38 6.288 0 3.746 2.581 6.323 6.344 6.323 3.49 0 5.834-1.907 5.907-4.708h-3.49c-.2 1.1-1.054 1.736-2.417 1.736z" fill="#754AAA"/></svg>