<svg width="89" height="48" fill="none" xmlns="http://www.w3.org/2000/svg"><path d="M34.692 22.325l1.574-1.079H31v6.484h5.266v-1.079h-3.763v-1.66h3.21v-1.08h-3.21v-1.586h2.189zm-7.667 1.448h-1.828v-1.448h2.92l1.573-1.08h-5.996v6.485h3.137c1.76 0 2.77-.743 2.77-2.037 0-1.237-.916-1.92-2.576-1.92zm-.261 2.878h-1.567v-1.797h1.567c.953 0 1.398.3 1.398.898 0 .611-.47.9-1.398.9zm13.768-5.405h-2.867v6.484h1.502v-1.837h1.365c1.83 0 2.967-.895 2.967-2.326-.002-1.432-1.138-2.32-2.967-2.32zm-.032 3.568h-1.333v-2.489H40.5c.963 0 1.493.442 1.493 1.244s-.53 1.245-1.492 1.245zm-19.386 1.512a2.853 2.853 0 01-1.297.302c-1.354 0-2.337-.9-2.337-2.14 0-1.24.983-2.141 2.338-2.141.512 0 .972.134 1.367.397l1.077-.738-.071-.058c-.629-.515-1.47-.787-2.432-.787-1.042 0-1.989.327-2.665.921a3.106 3.106 0 00-1.053 2.37 3.21 3.21 0 001.05 2.404c.68.618 1.625.96 2.66.96 1.083 0 2.03-.351 2.671-.992l-.972-.668-.336.17z" fill="#21A038"/><path d="M53.37 22.858L51.133 26.3h-.626l-2.287-3.397v4.82h-1.242v-6.476h1.57l2.305 3.526 2.287-3.526h1.471v6.478h-1.243v-4.867h.002zm9.214 4.867H61.26l-.665-1.536h-3.19l-.656 1.536H55.49l2.822-6.478h1.411l2.861 6.478zm-2.445-2.6l-1.143-2.657-1.142 2.656h2.285zm4.57.582v2.017h-1.242v-6.477h2.316c2.196 0 3.13.732 3.13 2.194 0 1.508-1.093 2.267-3.13 2.267h-1.074v-.001zm0-1.064h1.163c1.153 0 1.75-.351 1.75-1.231 0-.796-.517-1.102-1.73-1.102H64.71v2.333zm6.72 3.082h-1.243v-6.478h1.242v2.721h1.044l2.237-2.72h1.51l-2.653 3.082 3.082 3.396h-1.592l-2.524-2.803h-1.104v2.802zm7.343-2.804v1.74h3.678v1.064h-4.92v-6.478h4.812v1.064h-3.569v1.545h3.201v1.065h-3.202zM89 22.311h-2.346v5.414h-1.243v-5.414h-2.305v-1.064H89v1.064z" fill="#FF8000"/><path d="M11.64 21.137c.283.337.521.704.712 1.093L6.94 25.924 4.68 24.61v-1.579l2.26 1.313 4.7-3.208z" fill="#21A038"/><path d="M2.372 24.5c0-.07.002-.141.006-.211l-1.37-.064A5.41 5.41 0 001 24.5c0 1.518.665 2.893 1.74 3.889l.971-.9c-.826-.766-1.339-1.823-1.339-2.99z" fill="url(#paint0_linear_1323_35608)"/><path d="M6.94 20.27c.076 0 .152.003.228.006l.068-1.27A6.678 6.678 0 006.94 19c-1.574-.003-3.084.576-4.2 1.61l.97.9a4.744 4.744 0 013.23-1.24z" fill="url(#paint1_linear_1323_35608)"/><path d="M6.94 28.73c-.076 0-.152-.002-.228-.006l-.069 1.27c.099.003.198.006.297.006 1.64 0 3.125-.615 4.2-1.61l-.971-.9a4.748 4.748 0 01-3.229 1.24z" fill="url(#paint2_linear_1323_35608)"/><path d="M9.515 21.008l1.156-.788A6.216 6.216 0 006.94 19v1.27a4.798 4.798 0 012.575.738z" fill="url(#paint3_linear_1323_35608)"/><path d="M12.88 24.5c0-.337-.033-.666-.095-.986l-1.279.873.002.112c0 1.242-.58 2.36-1.505 3.135l.922.944c1.2-1.006 1.955-2.46 1.955-4.078z" fill="#21A038"/><path d="M6.94 28.73c-1.341 0-2.549-.539-3.385-1.394l-1.019.854a5.952 5.952 0 001.997 1.34A6.31 6.31 0 006.94 30v-1.27z" fill="url(#paint4_linear_1323_35608)"/><path d="M3.877 21.365l-.922-.944C1.755 21.427 1 22.882 1 24.5h1.372c0-1.242.581-2.36 1.505-3.135z" fill="url(#paint5_linear_1323_35608)"/><defs><linearGradient id="paint0_linear_1323_35608" x1="66.486" y1="29.58" x2="66.177" y2="17.718" gradientUnits="userSpaceOnUse"><stop offset=".144" stop-color="#F2E913"/><stop offset=".304" stop-color="#E7E518"/><stop offset=".582" stop-color="#CADB26"/><stop offset=".891" stop-color="#A3CD39"/></linearGradient><linearGradient id="paint1_linear_1323_35608" x1="8.671" y1="27.043" x2="28.438" y2="-9.288" gradientUnits="userSpaceOnUse"><stop offset=".059" stop-color="#0FA8E0"/><stop offset=".538" stop-color="#0099F9"/><stop offset=".923" stop-color="#0291EB"/></linearGradient><linearGradient id="paint2_linear_1323_35608" x1="-.772" y1="26.64" x2="40.27" y2="-18.103" gradientUnits="userSpaceOnUse"><stop offset=".123" stop-color="#A3CD39"/><stop offset=".285" stop-color="#86C339"/><stop offset=".869" stop-color="#21A038"/></linearGradient><linearGradient id="paint3_linear_1323_35608" x1="-5.769" y1="21.331" x2="25.758" y2="66.574" gradientUnits="userSpaceOnUse"><stop offset=".057" stop-color="#0291EB"/><stop offset=".79" stop-color="#0C8ACB"/></linearGradient><linearGradient id="paint4_linear_1323_35608" x1="7.873" y1="21.887" x2="27.104" y2="59.432" gradientUnits="userSpaceOnUse"><stop offset=".132" stop-color="#F2E913"/><stop offset=".298" stop-color="#EBE716"/><stop offset=".531" stop-color="#D9E01F"/><stop offset=".802" stop-color="#BBD62D"/><stop offset=".983" stop-color="#A3CD39"/></linearGradient><linearGradient id="paint5_linear_1323_35608" x1="1.511" y1="24.654" x2="2.936" y2="20.651" gradientUnits="userSpaceOnUse"><stop offset=".07" stop-color="#A3CD39"/><stop offset=".26" stop-color="#81C55F"/><stop offset=".922" stop-color="#0FA8E0"/></linearGradient></defs></svg>