<svg width="89" height="48" fill="none" xmlns="http://www.w3.org/2000/svg"><path d="M68.137 31.098c5.626-2.934 6.973-6.638 5.245-7.68-2.55-1.411-9.57 1.114-8.76 8.05-.349.205-1.047.58-1.047.58l.459 1.398s.984-.582 1.236-.755c.825.658 1.252 1.02 2.52 1.053 2.71.062 5.038-2.918 5.038-2.918l-.68-1.053c.015-.01-2.965 2.832-4.01 1.325zm.747-4.253c.806-1.41 2.107-2.51 2.756-2.071.65.439-.649 2.668-3.676 5.047-.126-.213.111-1.552.92-2.976zm-51.698 6.89a2.14 2.14 0 01-1.473-.612c-1.347-1.398-.08-6.12.188-7.14a.145.145 0 00-.023-.13.148.148 0 00-.119-.059.168.168 0 00-.141.08c-.572 1.145-3.66 7.862-6.386 7.862h-.16c-2.645-.253-2.295-3.863-1.473-6.06h4.263c-.348.942-.459 1.537-.459 1.853.016.22.207.344.38.252.443-.237 1.171-1.178 1.805-2.26 1.141-1.992 2.63-4.975 5.191-12.521h4.664c-1.378 4.204-2.503 8.003-3.113 12.348a.25.25 0 00.135.263.257.257 0 00.295-.044c1.33-1.24 6.204-11.659 6.494-12.567h4.69s-4.61 12.63-4.229 14.748a.373.373 0 00.285.334.382.382 0 00.41-.16c.271-.33.652-.817.92-1.115l.665.658c-1.33 1.63-3.5 4.565-5.654 4.22-.344-.07-.66-.24-.909-.485-2.249-1.929.887-8.393 1.443-9.916.126-.33.237-.643.316-.832a.153.153 0 00-.144-.204.165.165 0 00-.141.079c-.111.235-.397.847-.508 1.051-1.382 2.84-4.582 10.358-7.212 10.358zm44.045-15.503a5.106 5.106 0 00-3.407 1.223l.033 1.24s1.489-1.49 3.042-.848c1.012.409 1.772 1.585 1.203 3.64-.031.126-.095.363-.126.488-.444-.942-2.092-1.663-4.39.061-1.679 1.256-2.107 2.59-2.437 3.674-.476 1.584-.443 3.291-.08 4.314a3.044 3.044 0 001.76 1.755c3.802 1.429 6.797-4.388 7.714-8.582.585-2.65 1.029-6.888-3.312-6.965zm-2.045 12.74c-.428.284-1.157.409-1.267-.895-.142-1.867 1.236-4.064 1.648-4.581.714-.863 1.68-.909 1.664.439-.015 1.57-.984 4.347-2.045 5.038zm-11.47-13.824c-2.25-.768-10.192 1.727-12.818 10.434-.317.095-1.852.472-1.852.472l-.665 1.789 2.351-.722s-.255 4.472 3.707 4.608c3.122-.112 4.752-4.66 3.755-7.753-.19.095-2.694 1.286-2.694 1.286s.523 3.03-.585 3.73a.381.381 0 01-.54-.11c-.317-.438-.523-1.599-.173-3.137 5.718-2.95 9.631-8.12 9.87-9.916a.6.6 0 00-.356-.68zM40.6 24.853c-.592.454-1.222.859-1.883 1.209 0 0 .299-.692.523-1.084.616-1.018 3.563-4.957 6.035-5.68a.121.121 0 01.122.024.119.119 0 01.036.117c0 .865-3.136 4.143-4.833 5.414zm11.79 6.434a.117.117 0 00.037.129.12.12 0 00.136.011c.306-.2.601-.414.886-.643l.317.957c-.19.204-1.713 1.398-2.66 1.837-1.027.471-1.962-.156-2.106-.911-.142-.878.301-2.023.301-2.023s-1.63 1.852-3.295 2.745a2.307 2.307 0 01-1.094.346c-1.123-.032-1.473-1.097-1.345-1.68.142-.69 1.664-5.32 1.852-6.072a.129.129 0 00-.096-.14.133.133 0 00-.061 0c-.46.124-1.664.908-1.664.908v-1.286s3.485-2.355 4.356-2.605c.809-.22 1.507.235 1.3 1.146-.095.627-2.361 6.072-2.361 6.763a.113.113 0 00.038.1.117.117 0 00.106.025c.649-.189 1.837-1.192 2.74-2.62.856-1.335 1.425-3.013 2.139-5.1h3.026c-.002.015-2.3 6.967-2.552 8.113zm31.606-6.529c.064.975-.87 6.105-4.673 8.161-1.125.612-1.885.847-2.568.817-1.615-.049-2.375-1.35-2.55-1.773-1.852-4.552 3.565-8.778 3.565-8.778h3.137s-4.785 3.783-4.119 7.14c.523 2.039 2.438 1.052 3.501-1.255.206-.456 1.489-3.484.682-3.53-.713-.049-1.664 1.443-1.664 1.443l-.664-1.005c.523-.658 1.98-2.385 3.614-2.934.265-.074 1.723-.372 1.739 1.714zm-52.588 6.498c.247 0 .49.073.695.209a1.23 1.23 0 01.19 1.908 1.255 1.255 0 01-1.364.268 1.25 1.25 0 01-.562-.456 1.231 1.231 0 01-.118-1.165 1.23 1.23 0 01.678-.672c.152-.062.316-.093.48-.092z" fill="#E31235"/></svg>