<svg width="89" height="48" fill="none" xmlns="http://www.w3.org/2000/svg"><path d="M16.633 28.232c1.916-.241 3.464-1.776 3.709-3.677a4.237 4.237 0 00-.193-1.928 4.266 4.266 0 00-1.033-1.645 4.345 4.345 0 00-3.605-1.215c-1.918.243-3.466 1.777-3.709 3.677a4.235 4.235 0 00.193 1.927 4.26 4.26 0 001.033 1.645 4.315 4.315 0 001.66 1.024c.625.21 1.29.276 1.945.192zm.261-12.191a8.129 8.129 0 014.88 2.307 8 8 0 012.328 4.837c.505 5.059-3.75 9.276-8.855 8.774a8.129 8.129 0 01-4.879-2.307 8 8 0 01-2.327-4.836c-.506-5.06 3.749-9.276 8.853-8.775zm11.539.317h11.815c.449 0 .703.508.432.863l-8.175 10.69h6.405a1.874 1.874 0 011.845 2.252c-.177.88-1.01 1.48-1.915 1.48H26.01a.533.533 0 01-.43-.855l8.18-10.698h-5.257c-.905 0-1.738-.602-1.915-1.48a1.873 1.873 0 011.845-2.252zm51.275.042A1.88 1.88 0 0182 18.224v12.88c0 .45-.524.7-.879.42L70.93 23.51v6.27c0 1.163-1.073 2.078-2.292 1.823-.874-.181-1.473-.989-1.473-1.873V16.895c0-.45.524-.7.878-.42l10.194 8.014v-6.215c0-.885.6-1.69 1.473-1.874h-.001zM53.169 16c6.24 0 11.299 3.58 11.299 7.998 0 4.417-5.059 7.998-11.299 7.998-6.24 0-11.298-3.581-11.298-7.998S46.929 16 53.169 16zm0 3.732c-4.311 0-7.533 2.253-7.533 4.266s3.222 4.265 7.533 4.265 7.533-2.25 7.533-4.265c0-2.015-3.222-4.266-7.533-4.266z" fill="#005BFF"/></svg>