<svg width="176" height="42" fill="none" xmlns="http://www.w3.org/2000/svg"><g clip-path="url(#clip0_12_5759)"><path d="M43.919 31.292V3.486h16.015v3.486H47.235v8.55H58.64v3.486H47.236v8.715h13.588v3.486H43.92v.083zm33.728 0l-5.5-7.387-5.5 7.387h-3.882l7.522-9.877-7.927-10.21h4.368l5.42 7.637 5.5-7.637h4.286l-7.522 10.21 7.117 9.877h-3.882zm9.221-2.988V42h-3.316V21.498c0-5.23 3.882-10.79 9.948-10.79 6.147 0 10.758 3.983 10.758 10.54 0 6.392-4.691 10.791-10.03 10.791-2.588 0-6.066-1.162-7.36-3.735zm13.912-7.055c0-4.482-2.831-7.138-7.846-6.89-2.426.084-6.147 1.91-5.823 8.3.08 2.076 2.183 5.977 6.794 5.977 3.963 0 6.875-2.324 6.875-7.387zm6.308 10.043V11.205h3.316v2.159c1.618-1.91 4.125-2.574 6.794-2.574v3.653c-.404-.083-4.367-.582-6.794 4.73v12.202h-3.316v-.083zm11-10.043c0-5.81 4.044-10.542 9.625-10.542 6.956 0 9.544 4.732 9.544 10.79v1.66h-15.529c.242 3.82 3.558 5.811 6.632 5.728 2.265-.083 3.801-.747 5.419-2.407l2.184 2.324c-2.022 1.992-4.61 3.32-7.765 3.32-5.904-.083-10.11-4.565-10.11-10.873zm9.382-7.138c-3.154 0-5.581 2.822-5.742 5.893h12.051c0-2.988-2.103-5.894-6.309-5.894zm11.486 14.359l2.427-2.24c-.081 0 1.213 1.327 1.375 1.41.566.498 1.132.83 1.86.996 2.103.581 5.904.415 6.228-2.573.162-1.66-1.052-2.573-2.427-3.154-1.779-.664-3.72-.913-5.5-1.743-2.022-.913-3.316-2.49-3.316-4.814 0-6.06 8.412-7.056 12.213-4.234.162.166 2.022 1.91 1.942 1.91l-2.427 1.992c-1.213-1.495-2.346-2.242-4.934-2.242-1.294 0-3.073.582-3.397 1.993-.485 1.992 1.699 2.739 3.155 3.154 1.941.498 4.044.83 5.742 1.909 2.346 1.494 2.912 4.731 2.022 7.221-.97 2.74-3.882 3.818-6.47 3.901-3.074.166-5.743-.83-7.927-3.07-.162 0-.566-.416-.566-.416zm17.065 0l2.427-2.24c-.081 0 1.213 1.327 1.375 1.41.566.498 1.132.83 1.86.996 2.103.581 5.905.415 6.228-2.573.162-1.66-1.051-2.573-2.426-3.154-1.78-.664-3.721-.913-5.5-1.743-2.022-.913-3.316-2.49-3.316-4.814 0-6.06 8.411-7.056 12.213-4.234.162.166 2.022 1.91 1.941 1.91l-2.427 1.992c-1.213-1.495-2.345-2.242-4.933-2.242-1.294 0-3.074.582-3.397 1.993-.486 1.992 1.698 2.739 3.154 3.154 1.941.498 4.044.83 5.743 1.909 2.345 1.494 2.911 4.731 2.022 7.221-.971 2.74-3.883 3.818-6.471 3.901-3.073.166-5.743-.83-7.926-3.07-.162 0-.567-.416-.567-.416zm15.773-17.265V9.047h-.728v-.415h1.942v.415h-.728v2.158h-.486zm3.64 0V9.213l-.728 1.992h-.162l-.727-1.992v1.992h-.405V8.632h.647l.647 1.743.647-1.743H176v2.573h-.566z" fill="#E43225"/><path d="M21.434 31.292l-2.427-6.64H5.904l-2.426 6.64H0L10.515 3.486h3.801L24.75 31.292h-3.316zM12.294 7.47L7.36 21.25h10.272L12.294 7.47zm14.64 23.822V3.486h3.397v27.806h-3.397zm8.493 0V11.62h3.397v19.672h-3.397zM42.059 5.23v-.333C39.47 4.814 37.368 2.656 37.287 0H36.8c-.08 2.656-2.184 4.814-4.772 4.897v.332c2.588.083 4.691 2.241 4.772 4.897h.486c.08-2.656 2.184-4.814 4.772-4.897z" fill="#F7971D"/></g><defs><clipPath id="clip0_12_5759"><path fill="#fff" d="M0 0h176v42H0z"/></clipPath></defs></svg>