<svg width="48" height="48" fill="none" xmlns="http://www.w3.org/2000/svg"><path d="M29 11V4.2c0-1.12 0-1.68-.218-2.108a2 2 0 00-.874-.874C27.48 1 26.92 1 25.8 1h-3.6c-1.12 0-1.68 0-2.108.218a2 2 0 00-.874.874C19 2.52 19 3.08 19 4.2v3.6c0 1.12 0 1.68.218 2.108a2 2 0 00.874.874C20.52 11 21.08 11 22.2 11H29zm0 0v4a6 6 0 01-6 6M11 11V4.2c0-1.12 0-1.68-.218-2.108a2 2 0 00-.874-.874C9.48 1 8.92 1 7.8 1H4.2c-1.12 0-1.68 0-2.108.218a2 2 0 00-.874.874C1 2.52 1 3.08 1 4.2v3.6c0 1.12 0 1.68.218 2.108a2 2 0 00.874.874C2.52 11 3.08 11 4.2 11H11zm0 0v4a6 6 0 01-6 6" stroke="#FFC750" stroke-width="2" stroke-linecap="round" stroke-linejoin="round"/></svg>