<svg width="121" height="25" fill="none" xmlns="http://www.w3.org/2000/svg"><path d="M14.21 6.01l1.234 2.485c.167.344.614.67.99.74l2.235.37c1.428.238 1.76 1.278.736 2.317l-1.744 1.754c-.289.29-.456.863-.36 1.277l.5 2.167c.395 1.71-.517 2.379-2.015 1.48l-2.094-1.25c-.377-.23-1.007-.23-1.384 0l-2.094 1.25c-1.498.89-2.41.23-2.015-1.48l.5-2.167c.095-.405-.071-.978-.36-1.277l-1.744-1.754c-1.025-1.03-.692-2.07.736-2.317l2.234-.37c.377-.061.824-.396.99-.74l1.236-2.484c.657-1.348 1.743-1.348 2.418 0zm24 0l1.234 2.485c.167.344.614.67.99.74l2.235.37c1.428.238 1.76 1.278.736 2.317l-1.744 1.754c-.289.29-.456.863-.36 1.277l.5 2.167c.395 1.71-.517 2.379-2.015 1.48l-2.094-1.25c-.377-.23-1.007-.23-1.384 0l-2.094 1.25c-1.498.89-2.41.23-2.015-1.48l.5-2.167c.096-.405-.071-.978-.36-1.277l-1.744-1.754c-1.025-1.03-.692-2.07.736-2.317l2.235-.37c.376-.061.823-.396.99-.74l1.235-2.484c.657-1.348 1.744-1.348 2.418 0zm24 0l1.234 2.485c.167.344.614.67.99.74l2.235.37c1.428.238 1.76 1.278.736 2.317l-1.744 1.754c-.289.29-.456.863-.36 1.277l.5 2.167c.395 1.71-.517 2.379-2.015 1.48l-2.094-1.25c-.377-.23-1.007-.23-1.384 0l-2.094 1.25c-1.498.89-2.41.23-2.015-1.48l.5-2.167c.096-.405-.071-.978-.36-1.277l-1.744-1.754c-1.025-1.03-.692-2.07.736-2.317l2.234-.37c.377-.061.824-.396.99-.74l1.236-2.484c.657-1.348 1.744-1.348 2.418 0zm24 0l1.235 2.485c.166.344.613.67.99.74l2.234.37c1.428.238 1.76 1.278.736 2.317l-1.744 1.754c-.289.29-.456.863-.36 1.277l.5 2.167c.395 1.71-.517 2.379-2.015 1.48l-2.094-1.25c-.377-.23-1.007-.23-1.384 0l-2.094 1.25c-1.498.89-2.41.23-2.015-1.48l.5-2.167c.096-.405-.071-.978-.36-1.277l-1.744-1.754c-1.025-1.03-.692-2.07.736-2.317l2.234-.37c.377-.061.824-.396.99-.74l1.236-2.484c.657-1.348 1.743-1.348 2.418 0zm23.999 0l1.235 2.485c.167.344.614.67.991.74l2.234.37c1.428.238 1.761 1.278.736 2.317l-1.744 1.754c-.289.29-.455.863-.359 1.277l.499 2.167c.395 1.71-.517 2.379-2.015 1.48l-2.094-1.25c-.377-.23-1.007-.23-1.384 0l-2.094 1.25c-1.498.89-2.41.23-2.015-1.48l.499-2.167c.096-.405-.07-.978-.359-1.277l-1.744-1.754c-1.025-1.03-.692-2.07.736-2.317l2.234-.37c.377-.061.824-.396.991-.74l1.235-2.484c.657-1.348 1.743-1.348 2.418 0z" fill="#FFC750"/><mask id="a" style="mask-type:alpha" maskUnits="userSpaceOnUse" x="102" y="5" width="14" height="14"><path d="M110.209 6.01l1.235 2.485c.167.344.614.67.991.74l2.234.37c1.428.238 1.761 1.278.736 2.317l-1.744 1.754c-.289.29-.455.863-.359 1.277l.499 2.167c.395 1.71-.517 2.379-2.015 1.48l-2.094-1.25c-.377-.23-1.007-.23-1.384 0l-2.094 1.25c-1.498.89-2.41.23-2.015-1.48l.499-2.167c.096-.405-.07-.978-.359-1.277l-1.744-1.754c-1.025-1.03-.692-2.07.736-2.317l2.234-.37c.377-.061.824-.396.991-.74l1.235-2.484c.657-1.348 1.743-1.348 2.418 0z" fill="#FFC750"/></mask><g mask="url(#a)"><path d="M109 23V3h-9v20h9z" fill="#FFC750"/></g></svg>