<svg width="32" height="32" fill="none" xmlns="http://www.w3.org/2000/svg"><path d="M5 7.333A2.333 2.333 0 017.333 5h3.334A2.333 2.333 0 0113 7.333v3.334A2.333 2.333 0 0110.667 13H7.333A2.333 2.333 0 015 10.667V7.333zm0 14A2.333 2.333 0 017.333 19h3.334A2.333 2.333 0 0113 21.333v3.334A2.333 2.333 0 0110.667 27H7.333A2.333 2.333 0 015 24.667v-3.334zm14-14A2.333 2.333 0 0121.333 5h3.334A2.333 2.333 0 0127 7.333v3.334A2.333 2.333 0 0124.667 13h-3.334A2.333 2.333 0 0119 10.667V7.333z" stroke="#92AB78" stroke-width="2"/><path d="M23.667 21.333v1h2.666a.667.667 0 010 1.334h-2.666v2.666a.667.667 0 01-1.334 0v-2.666h-2.666a.667.667 0 010-1.334h2.666v-2.666a.667.667 0 011.334 0v1.666z" stroke="#FFC750" stroke-width="2"/></svg>