<svg width="24" height="24" fill="none" xmlns="http://www.w3.org/2000/svg"><path fill-rule="evenodd" clip-rule="evenodd" d="M10.73 17.184h.954s.287-.056.43-.222c.143-.166.143-.5.143-.5s0-1.442.573-1.665c.573-.222 1.337 1.444 2.101 2.054.573.5 1.003.389 1.003.389l2.1-.056s1.099-.056.574-1.11c-.048-.056-.287-.722-1.576-2.109-1.337-1.443-1.146-1.165.43-3.663.955-1.498 1.337-2.386 1.241-2.83-.095-.389-.811-.278-.811-.278h-2.388s-.19-.056-.286.056c-.143.11-.191.277-.191.277s-.382 1.166-.86 2.164c-1.05 2.054-1.48 2.165-1.623 2.054-.382-.277-.287-1.221-.287-1.831 0-1.998.287-2.831-.525-3.053-.239-.055-.43-.111-1.098-.111-.86 0-1.576 0-1.957.222-.287.166-.478.5-.335.5.144 0 .525.11.716.388.191.5.191 1.332.191 1.332s.144 2.386-.334 2.664c-.334.222-.764-.222-1.719-2.109-.477-.944-.86-2.053-.86-2.053s-.047-.223-.19-.333c-.143-.111-.382-.167-.382-.167H3.52s-.334 0-.478.167c-.095.166 0 .444 0 .444s1.767 4.773 3.772 7.215c1.863 2.33 3.916 2.164 3.916 2.164z" fill="#07F"/></svg>