<svg width="140" height="63" fill="none" xmlns="http://www.w3.org/2000/svg"><path d="M68.592 35.699h2.197v4.926h1.586l2.847-4.926h2.398l-3.415 5.782v.038l3.62 6.314h-2.483l-2.929-5.295h-1.586v5.29H68.63v-12.13h-.038zm14.154 3.214c2.642 0 4.796 1.913 4.796 4.562 0 2.688-2.116 4.558-4.758 4.558s-4.758-1.87-4.758-4.558c-.043-2.688 2.073-4.562 4.72-4.562zm6.501.205h2.078v6.84h2.723v-6.84h2.073v6.84h2.723v-6.84h2.078v8.71H89.328v-8.71h-.08zm17.818-.205c2.475 0 3.86 1.831 3.86 4.113a6.142 6.142 0 01-.081.856h-5.981c.124 1.507 1.304 2.32 2.603 2.32a4.242 4.242 0 002.484-.938l.851 1.55a5.583 5.583 0 01-3.497 1.262c-2.885 0-4.677-2.08-4.677-4.562 0-2.727 1.83-4.601 4.433-4.601h.005zm4.873 7.083c1.06-.163 1.834-1.052 1.834-4.152v-2.726h6.344v8.71h-2.159v-6.954h-2.112v.975c0 3.783-1.017 5.984-3.907 6.065v-1.918zm14.359-7.079c2.479 0 3.86 1.827 3.86 4.114-.007.285-.034.57-.081.85H124.1c.119 1.508 1.299 2.32 2.603 2.32a4.242 4.242 0 002.479-.937l.855 1.55a5.578 5.578 0 01-3.496 1.262c-2.89 0-4.682-2.08-4.682-4.562 0-2.727 1.835-4.597 4.438-4.597zm5.651.201h2.155v3.339h1.055l2.116-3.339h2.399l-2.766 4.152v.043l3.09 4.515h-2.517l-2.279-3.54h-1.137v3.54h-2.159v-8.71h.043zm-49.202 7.045c1.423 0 2.599-1.1 2.599-2.726a2.634 2.634 0 00-1.582-2.514 2.625 2.625 0 00-1.022-.217c-1.419 0-2.56 1.1-2.56 2.726 0 1.627 1.136 2.726 2.565 2.726v.005zm25.986-3.788c0-1.138-.778-1.831-1.753-1.831-1.098 0-1.911.731-2.116 1.831h3.869zm19.232 0c0-1.138-.774-1.831-1.748-1.831-1.099 0-1.911.731-2.116 1.831h3.864z" fill="#2D3540"/><path d="M98.968 9.274v20.56a.554.554 0 01-.568.57h-4.19a.553.553 0 01-.568-.57V9.275a.556.556 0 01.573-.57H98.4a.553.553 0 01.573.57h-.005zm32.694-.57c.162 0 .368.082.573.245.119.12.119.325.081.487l-6.917 20.605a.574.574 0 01-.525.363h-3.741c-.248 0-.449-.12-.53-.363l-4.027-12.015-4.027 12.01a.573.573 0 01-.525.368h-3.75c-.239 0-.444-.12-.526-.368l-6.917-20.6c-.038-.162-.038-.325.082-.487.086-.163.286-.244.449-.244h4.676c.244 0 .449.162.526.406l3.702 12.172 4.07-12.172a.572.572 0 01.525-.368h3.296c.239 0 .445.124.526.368l4.07 12.172 3.702-12.172a.56.56 0 01.525-.406h4.682zm7.074 0c.287 0 .531.245.574.57v20.56a.559.559 0 01-.352.532.556.556 0 01-.222.038h-4.184a.556.556 0 01-.534-.348.558.558 0 01-.039-.221V9.274a.558.558 0 01.351-.532.557.557 0 01.222-.037h4.184zm-47.53 20.968a.419.419 0 01-.33.694h-5.125a.654.654 0 01-.526-.249l-.855-1.052a11.455 11.455 0 01-6.138 1.827 11.344 11.344 0 01-7.812-3.441 11.371 11.371 0 010-15.836 11.343 11.343 0 017.812-3.441 11.34 11.34 0 019.964 5.914 11.375 11.375 0 01-.41 11.59l3.42 3.994zM48.38 39.65c1.06.407 1.466 1.995 1.547 2.683.163 1.263-.205 1.75-.611 1.75s-.974-.487-1.586-1.463c-.611-.975-.855-2.075-.525-2.645.2-.368.65-.53 1.175-.325zm-6.182 4.601c.655 0 1.386.287 2.035.852 1.261 1.061 1.624 2.28.975 3.175-.363.45-.975.732-1.667.732-.693 0-1.424-.24-1.911-.689-1.137-.98-1.462-2.606-.73-3.5.156-.191.355-.343.58-.443.226-.1.472-.14.718-.127zM27.97 56.016a27.949 27.949 0 01-15.54-4.722 28 28 0 01-10.3-12.57 28.04 28.04 0 016.064-30.52 27.942 27.942 0 0130.483-6.072 27.981 27.981 0 0112.555 10.313 28.031 28.031 0 014.716 15.558 28.212 28.212 0 01-3.945 14.372c-.082.12-.287.082-.325-.081-.975-6.882-5.164-10.666-11.264-11.809-.526-.081-.612-.406.081-.488 1.868-.162 4.514-.124 5.895.12a18.566 18.566 0 00-4.56-14.468 18.521 18.521 0 00-13.822-6.217c-10.203 0-18.5 8.312-18.5 18.528s8.297 18.529 18.505 18.529h.85a25.02 25.02 0 01-.363-5.008c.048-1.143.287-1.306.774-.411 2.565 4.438 6.224 8.432 13.38 10.02 5.857 1.3 11.713 2.807 18.014 10.828.573.693-.287 1.425-.936.856-6.425-5.701-12.277-7.576-17.608-7.576-5.976.043-10.041.813-14.15.813l-.004.005zm53.067-30.902L78.8 22.388c-.243-.287-.043-.736.325-.736h4.715c.243-.65.368-1.387.368-2.12 0-3.376-2.522-6.312-5.976-6.312-3.459 0-5.98 2.936-5.98 6.313 0 3.376 2.521 6.27 5.98 6.27.974.043 1.949-.24 2.804-.689z" fill="#FF8C00"/></svg>