<svg width="174" height="38" fill="none" xmlns="http://www.w3.org/2000/svg"><path d="M152.869 19.11c0-4.662-3.588-8.432-8.657-8.432-4.969 0-8.507 3.625-8.507 8.607 0 5.006 3.638 8.657 8.858 8.657 3.312 0 6.098-1.456 7.829-4.415l-3.512-1.603c-.828 1.48-2.636 2.441-4.317 2.441-2.132 0-4.591-1.578-4.742-3.773h12.923c.082-.49.124-.986.125-1.483zm-12.973-1.426c.302-2.22 1.857-3.674 4.341-3.674 2.459 0 3.965 1.425 4.165 3.674h-8.506zm-35.4-7.01c-5.094 0-8.707 3.602-8.707 8.682 0 5.03 3.613 8.582 8.758 8.582 5.169 0 8.782-3.551 8.782-8.508 0-5.105-3.713-8.756-8.833-8.756zm.051 13.49c-2.56 0-4.141-1.873-4.141-4.784 0-2.96 1.606-4.982 4.141-4.982 2.559 0 4.165 1.998 4.165 4.982 0 2.936-1.58 4.784-4.165 4.784zM86.355 10.68c-2.087 0-3.659.7-5.23 2.437h-.517c-1.056-1.569-2.779-2.438-4.712-2.438a6.185 6.185 0 00-2.783.631 6.07 6.07 0 00-2.185 1.807h-.516l-.025-.024v-2.075h-4.319v16.558h4.667v-8.521c0-2.752 1.18-4.37 3.218-4.37 1.89 0 3.118 1.377 3.118 3.477v9.414h4.691v-8.521c0-2.732 1.18-4.37 3.243-4.37 1.866 0 3.07 1.377 3.07 3.502v9.39h4.691V17.63c0-4.32-2.358-6.952-6.41-6.952zm76.891 11.153h-.334c0-.294-2.035-5.538-3.369-8.787l-.834-2.032h-4.701l6.67 16.617-2.628 6.331h4.669l9.605-22.942h-4.704l-.768 1.737-2.601 6.326c-.734 1.767-1.034 2.587-1.005 2.75zM126.27 10.68c-2.088 0-3.881.892-5.085 2.486h-.491l-.049-.024v-2.124h-4.321v16.558h4.667v-8.473c0-2.702 1.329-4.393 3.512-4.393 2.039 0 3.537 1.496 3.537 3.861v9.004h4.667v-9.992c0-4.055-2.702-6.904-6.437-6.904z" fill="#000"/><path d="M34.376 1.188C24.293 1.188 16.19 9.203 16.19 19c0 9.878 8.182 17.813 18.182 17.813 10 0 18.19-8.016 18.19-17.813 0-9.797-8.187-17.813-18.187-17.813zm0 24.451c-3.72 0-6.777-2.996-6.777-6.639 0-3.643 3.057-6.64 6.777-6.64 3.719 0 6.777 2.997 6.777 6.64-.083 3.643-3.058 6.64-6.777 6.64z" fill="#8B3FFD"/><path d="M16.192 6.363v25.909H9.75L1.484 6.362h14.708z" fill="#8B3FFD"/></svg>