<svg width="163" height="23" fill="none" xmlns="http://www.w3.org/2000/svg"><g clip-path="url(#clip0_1275_8292)"><path d="M26.146 22.686l3.74-22.18h5.983l-3.743 22.18h-5.98zM53.74.985c-1.185-.45-3.042-.932-5.36-.932-5.912 0-10.076 3.008-10.112 7.32-.033 3.187 2.973 4.965 5.242 6.026 2.33 1.087 3.112 1.78 3.1 2.75-.014 1.488-1.859 2.166-3.578 2.166-2.395 0-3.667-.336-5.632-1.163l-.771-.353-.84 4.965c1.398.62 3.982 1.156 6.665 1.184 6.289 0 10.371-2.974 10.418-7.579.022-2.523-1.572-4.443-5.024-6.026-2.09-1.026-3.371-1.71-3.358-2.75 0-.921 1.084-1.907 3.427-1.907 1.956-.03 3.373.4 4.478.85l.535.256.811-4.807zM69.136.506h-4.623c-1.432 0-2.504.395-3.133 1.84L52.495 22.67h6.282s1.027-2.732 1.26-3.333c.686 0 6.79.01 7.662.01.178.777.728 3.324.728 3.324h5.55L69.137.505v.001zM61.8 14.828c.495-1.277 2.384-6.2 2.384-6.2-.035.06.49-1.284.793-2.117l.404 1.913s1.146 5.294 1.385 6.404H61.8zM21.067.506L15.21 15.632l-.624-3.074c-1.09-3.543-4.487-7.382-8.285-9.304l5.355 19.397 6.33-.007L27.405.506h-6.338" fill="#0E4595"/><path d="M9.745.505H.098L.021.967C7.527 2.803 12.493 7.239 14.555 12.57L12.457 2.38C12.095.974 11.045.555 9.745.506" fill="#F2AE14"/></g><g clip-path="url(#clip1_1275_8292)"><path d="M142.385 10.545V22h6.379v-6.788h7.23a7.078 7.078 0 006.603-4.667h-20.212z" fill="#37A72E"/><path d="M141.533 1.106c.372 4.677 4.817 8.379 10.239 8.379h11.089a6.76 6.76 0 00.128-1.326c0-3.882-3.137-7.021-7.017-7.053h-14.439z" fill="url(#paint0_linear_1275_8292)"/><path d="M132.092 9.368a.385.385 0 01.723.17v12.356h6.38V1.106h-6.38c-.808.032-1.722.615-2.062 1.347l-5.072 10.86c-.01.043-.032.085-.053.128a.427.427 0 01-.776-.244V1.107h-6.379v20.787h6.379c.797-.042 1.69-.626 2.031-1.347L132.092 9.4c-.01-.01 0-.021 0-.032zm-23.816.361l-3.732 12.165h-4.593l-3.72-12.176a.414.414 0 00-.416-.34.415.415 0 00-.414.414v12.091h-6.38V1.095h7.103c1.17 0 2.403.913 2.743 2.026l3.104 10.129c.16.51.405.498.564 0l3.105-10.129c.34-1.124 1.573-2.026 2.743-2.026h7.102v20.788h-6.379V9.782a.415.415 0 00-.415-.414.433.433 0 00-.415.36z" fill="#37A72E"/></g><defs><clipPath id="clip0_1275_8292"><path fill="#fff" d="M0 0h74v23H0z"/></clipPath><clipPath id="clip1_1275_8292"><path fill="#fff" transform="translate(89 1)" d="M0 0h74v21H0z"/></clipPath><linearGradient id="paint0_linear_1275_8292" x1="141.536" y1="5.295" x2="162.988" y2="5.295" gradientUnits="userSpaceOnUse"><stop stop-color="#00A0E5"/><stop offset="1" stop-color="#0077C3"/></linearGradient></defs></svg>