<svg width="24" height="24" fill="none" xmlns="http://www.w3.org/2000/svg"><path d="M17.668 6.328A7.926 7.926 0 0012.032 4c-4.39 0-7.968 3.56-7.968 7.928 0 1.4.37 2.76 1.062 3.96L4 20l4.221-1.104a8.002 8.002 0 003.811.968c4.39 0 7.968-3.56 7.968-7.928 0-2.12-.828-4.112-2.332-5.608zM12.032 18.52c-1.19 0-2.356-.32-3.377-.92l-.24-.144-2.51.656.668-2.432-.16-.248a6.587 6.587 0 01-1.014-3.504c0-3.632 2.975-6.592 6.625-6.592 1.769 0 3.433.688 4.68 1.936a6.544 6.544 0 011.937 4.664c.016 3.632-2.959 6.584-6.609 6.584zm3.634-4.928c-.2-.096-1.182-.576-1.359-.648-.184-.064-.313-.096-.45.096-.136.2-.514.648-.627.776-.112.136-.233.152-.434.048-.201-.096-.844-.312-1.6-.984-.595-.528-.989-1.176-1.11-1.376-.112-.2-.016-.304.089-.408.088-.088.2-.232.297-.344.097-.112.137-.2.201-.328.065-.136.033-.248-.016-.344a65.268 65.268 0 01-.61-1.472c-.162-.384-.33-.336-.451-.344H9.21a.724.724 0 00-.53.248c-.177.2-.692.68-.692 1.656 0 .976.716 1.92.812 2.048.096.136 1.407 2.136 3.401 2.992.474.208.844.328 1.134.416.474.152.908.128 1.254.08.386-.056 1.182-.48 1.343-.944.168-.464.168-.856.112-.944-.056-.088-.177-.128-.378-.224z" fill="#fff"/></svg>